Graphik-Black.ufo
<glyph name="exclam" format="2">
  <advance width="342"/>
  <unicode hex="0021"/>
  <outline>
    <contour>
      <point x="171" y="-12" type="curve" smooth="yes"/>
      <point x="108" y="-12"/>
      <point x="57" y="35"/>
      <point x="57" y="93" type="curve" smooth="yes"/>
      <point x="57" y="152"/>
      <point x="108" y="199"/>
      <point x="171" y="199" type="curve" smooth="yes"/>
      <point x="234" y="199"/>
      <point x="286" y="152"/>
      <point x="286" y="93" type="curve" smooth="yes"/>
      <point x="286" y="35"/>
      <point x="234" y="-12"/>
    </contour>
    <contour>
      <point x="89" y="241" type="line"/>
      <point x="61" y="715" type="line"/>
      <point x="282" y="715" type="line"/>
      <point x="253" y="241" type="line"/>
    </contour>
  </outline>
</glyph>
<glyph name="quotedbl" format="2">
  <advance width="478"/>
  <unicode hex="0022"/>
  <outline>
    <contour>
      <point x="59" y="434" type="line"/>
      <point x="37" y="715" type="line"/>
      <point x="220" y="715" type="line"/>
      <point x="198" y="434" type="line"/>
    </contour>
    <contour>
      <point x="280" y="434" type="line"/>
      <point x="258" y="715" type="line"/>
      <point x="441" y="715" type="line"/>
      <point x="419" y="434" type="line"/>
    </contour>
  </outline>
</glyph>
<glyph name="numbersign" format="2">
  <advance width="589"/>
  <unicode hex="0023"/>
  <outline>
    <contour>
      <point x="274" y="99" type="line"/>
      <point x="294" y="234" type="line"/>
      <point x="237" y="234" type="line"/>
      <point x="217" y="99" type="line"/>
      <point x="87" y="99" type="line"/>
      <point x="107" y="234" type="line"/>
      <point x="41" y="234" type="line"/>
      <point x="41" y="388" type="line"/>
      <point x="130" y="388" type="line"/>
      <point x="139" y="453" type="line"/>
      <point x="64" y="453" type="line"/>
      <point x="64" y="599" type="line"/>
      <point x="161" y="599" type="line"/>
      <point x="179" y="715" type="line"/>
      <point x="309" y="715" type="line"/>
      <point x="291" y="599" type="line"/>
      <point x="347" y="599" type="line"/>
      <point x="365" y="715" type="line"/>
      <point x="496" y="715" type="line"/>
      <point x="478" y="599" type="line"/>
      <point x="548" y="599" type="line"/>
      <point x="548" y="453" type="line"/>
      <point x="456" y="453" type="line"/>
      <point x="447" y="388" type="line"/>
      <point x="525" y="388" type="line"/>
      <point x="525" y="234" type="line"/>
      <point x="424" y="234" type="line"/>
      <point x="404" y="99" type="line"/>
    </contour>
    <contour>
      <point x="269" y="453" type="line"/>
      <point x="260" y="388" type="line"/>
      <point x="316" y="388" type="line"/>
      <point x="326" y="453" type="line"/>
    </contour>
  </outline>
</glyph>
<glyph name="dollar" format="2">
  <advance width="651"/>
  <unicode hex="0024"/>
  <outline>
    <contour>
      <point x="289" y="-135" type="line"/>
      <point x="289" y="-10" type="line"/>
      <point x="115" y="2"/>
      <point x="26" y="92"/>
      <point x="20" y="227" type="curve"/>
      <point x="219" y="227" type="line"/>
      <point x="223" y="185"/>
      <point x="242" y="153"/>
      <point x="289" y="142" type="curve"/>
      <point x="289" y="272" type="line"/>
      <point x="106" y="297"/>
      <point x="34" y="360"/>
      <point x="34" y="500" type="curve" smooth="yes"/>
      <point x="34" y="625"/>
      <point x="130" y="713"/>
      <point x="289" y="724" type="curve"/>
      <point x="289" y="813" type="line"/>
      <point x="370" y="813" type="line"/>
      <point x="370" y="723" type="line"/>
      <point x="519" y="711"/>
      <point x="608" y="644"/>
      <point x="619" y="503" type="curve"/>
      <point x="424" y="503" type="line"/>
      <point x="420" y="537"/>
      <point x="407" y="561"/>
      <point x="370" y="571" type="curve"/>
      <point x="370" y="448" type="line"/>
      <point x="525" y="427"/>
      <point x="629" y="376"/>
      <point x="629" y="230" type="curve" smooth="yes"/>
      <point x="629" y="105"/>
      <point x="551" y="2"/>
      <point x="370" y="-10" type="curve"/>
      <point x="370" y="-135" type="line"/>
    </contour>
    <contour>
      <point x="227" y="517" type="curve" smooth="yes"/>
      <point x="227" y="485"/>
      <point x="243" y="469"/>
      <point x="289" y="459" type="curve"/>
      <point x="289" y="574" type="line"/>
      <point x="248" y="567"/>
      <point x="227" y="546"/>
    </contour>
    <contour>
      <point x="430" y="203" type="curve" smooth="yes"/>
      <point x="430" y="232"/>
      <point x="415" y="247"/>
      <point x="370" y="258" type="curve"/>
      <point x="370" y="140" type="line"/>
      <point x="411" y="149"/>
      <point x="430" y="172"/>
    </contour>
  </outline>
</glyph>
<glyph name="percent" format="2">
  <advance width="835"/>
  <unicode hex="0025"/>
  <outline>
    <contour>
      <point x="218" y="472" type="curve" smooth="yes"/>
      <point x="252" y="472"/>
      <point x="270" y="500"/>
      <point x="270" y="544" type="curve" smooth="yes"/>
      <point x="270" y="588"/>
      <point x="252" y="615"/>
      <point x="218" y="615" type="curve" smooth="yes"/>
      <point x="184" y="615"/>
      <point x="165" y="588"/>
      <point x="165" y="545" type="curve" smooth="yes"/>
      <point x="165" y="499"/>
      <point x="184" y="472"/>
    </contour>
    <contour>
      <point x="217" y="360" type="curve" smooth="yes"/>
      <point x="93" y="360"/>
      <point x="23" y="440"/>
      <point x="23" y="544" type="curve" smooth="yes"/>
      <point x="23" y="646"/>
      <point x="106" y="723"/>
      <point x="218" y="723" type="curve" smooth="yes"/>
      <point x="328" y="723"/>
      <point x="411" y="651"/>
      <point x="411" y="547" type="curve" smooth="yes"/>
      <point x="411" y="442"/>
      <point x="338" y="360"/>
    </contour>
    <contour>
      <point x="115" y="0" type="line"/>
      <point x="622" y="715" type="line"/>
      <point x="724" y="715" type="line"/>
      <point x="216" y="0" type="line"/>
    </contour>
    <contour>
      <point x="618" y="99" type="curve" smooth="yes"/>
      <point x="652" y="99"/>
      <point x="670" y="127"/>
      <point x="670" y="171" type="curve" smooth="yes"/>
      <point x="670" y="215"/>
      <point x="652" y="242"/>
      <point x="618" y="242" type="curve" smooth="yes"/>
      <point x="584" y="242"/>
      <point x="565" y="215"/>
      <point x="565" y="172" type="curve" smooth="yes"/>
      <point x="565" y="126"/>
      <point x="584" y="99"/>
    </contour>
    <contour>
      <point x="617" y="-13" type="curve" smooth="yes"/>
      <point x="493" y="-13"/>
      <point x="424" y="67"/>
      <point x="424" y="171" type="curve" smooth="yes"/>
      <point x="424" y="273"/>
      <point x="506" y="350"/>
      <point x="618" y="350" type="curve" smooth="yes"/>
      <point x="729" y="350"/>
      <point x="812" y="278"/>
      <point x="812" y="174" type="curve" smooth="yes"/>
      <point x="812" y="69"/>
      <point x="738" y="-13"/>
    </contour>
  </outline>
</glyph>
<glyph name="ampersand" format="2">
  <advance width="777"/>
  <unicode hex="0026"/>
  <outline>
    <contour>
      <point x="764" y="373" type="line"/>
      <point x="649" y="146" type="line"/>
      <point x="768" y="0" type="line"/>
      <point x="513" y="0" type="line"/>
      <point x="476" y="46" type="line"/>
      <point x="431" y="13"/>
      <point x="378" y="-13"/>
      <point x="284" y="-13" type="curve" smooth="yes"/>
      <point x="128" y="-13"/>
      <point x="28" y="67"/>
      <point x="28" y="207" type="curve" smooth="yes"/>
      <point x="28" y="295"/>
      <point x="82" y="365"/>
      <point x="184" y="413" type="curve"/>
      <point x="155" y="456"/>
      <point x="144" y="502"/>
      <point x="144" y="534" type="curve" smooth="yes"/>
      <point x="144" y="658"/>
      <point x="252" y="725"/>
      <point x="385" y="725" type="curve" smooth="yes"/>
      <point x="504" y="725"/>
      <point x="610" y="668"/>
      <point x="610" y="555" type="curve" smooth="yes"/>
      <point x="610" y="478"/>
      <point x="566" y="421"/>
      <point x="468" y="379" type="curve"/>
      <point x="547" y="282" type="line"/>
      <point x="593" y="373" type="line"/>
    </contour>
    <contour>
      <point x="321" y="145" type="curve" smooth="yes"/>
      <point x="344" y="145"/>
      <point x="363" y="153"/>
      <point x="378" y="167" type="curve"/>
      <point x="273" y="294" type="line"/>
      <point x="254" y="280"/>
      <point x="237" y="261"/>
      <point x="237" y="228" type="curve" smooth="yes"/>
      <point x="237" y="181"/>
      <point x="264" y="145"/>
    </contour>
    <contour>
      <point x="335" y="531" type="curve" smooth="yes"/>
      <point x="335" y="507"/>
      <point x="350" y="484"/>
      <point x="374" y="458" type="curve"/>
      <point x="416" y="479"/>
      <point x="438" y="504"/>
      <point x="438" y="536" type="curve" smooth="yes"/>
      <point x="438" y="567"/>
      <point x="419" y="588"/>
      <point x="389" y="588" type="curve" smooth="yes"/>
      <point x="358" y="588"/>
      <point x="335" y="566"/>
    </contour>
  </outline>
</glyph>
<glyph name="quotesingle" format="2">
  <advance width="264"/>
  <unicode hex="0027"/>
  <outline>
    <contour>
      <point x="59" y="434" type="line"/>
      <point x="37" y="715" type="line"/>
      <point x="227" y="715" type="line"/>
      <point x="205" y="434" type="line"/>
    </contour>
  </outline>
</glyph>
<glyph name="parenleft" format="2">
  <advance width="362"/>
  <unicode hex="0028"/>
  <outline>
    <contour>
      <point x="202" y="-148" type="line"/>
      <point x="127" y="-58"/>
      <point x="35" y="86"/>
      <point x="35" y="314" type="curve" smooth="yes"/>
      <point x="35" y="541"/>
      <point x="127" y="685"/>
      <point x="202" y="775" type="curve"/>
      <point x="352" y="775" type="line"/>
      <point x="290" y="675"/>
      <point x="222" y="523"/>
      <point x="222" y="314" type="curve" smooth="yes"/>
      <point x="222" y="104"/>
      <point x="290" y="-48"/>
      <point x="352" y="-148" type="curve"/>
    </contour>
  </outline>
</glyph>
<glyph name="parenright" format="2">
  <advance width="362"/>
  <unicode hex="0029"/>
  <outline>
    <contour>
      <point x="10" y="-147" type="line"/>
      <point x="72" y="-47"/>
      <point x="140" y="105"/>
      <point x="140" y="314" type="curve" smooth="yes"/>
      <point x="140" y="524"/>
      <point x="72" y="676"/>
      <point x="10" y="776" type="curve"/>
      <point x="160" y="776" type="line"/>
      <point x="235" y="686"/>
      <point x="327" y="542"/>
      <point x="327" y="314" type="curve" smooth="yes"/>
      <point x="327" y="87"/>
      <point x="235" y="-57"/>
      <point x="160" y="-147" type="curve"/>
    </contour>
  </outline>
</glyph>
<glyph name="asterisk" format="2">
  <advance width="444"/>
  <unicode hex="002A"/>
  <outline>
    <contour>
      <point x="169" y="363" type="line"/>
      <point x="52" y="446" type="line"/>
      <point x="142" y="532" type="line"/>
      <point x="26" y="542" type="line"/>
      <point x="63" y="676" type="line"/>
      <point x="171" y="622" type="line"/>
      <point x="145" y="743" type="line"/>
      <point x="299" y="743" type="line"/>
      <point x="273" y="622" type="line"/>
      <point x="381" y="676" type="line"/>
      <point x="417" y="542" type="line"/>
      <point x="301" y="532" type="line"/>
      <point x="391" y="446" type="line"/>
      <point x="274" y="363" type="line"/>
      <point x="221" y="477" type="line"/>
    </contour>
  </outline>
</glyph>
<glyph name="plus" format="2">
  <advance width="579"/>
  <unicode hex="002B"/>
  <outline>
    <contour>
      <point x="211" y="79" type="line"/>
      <point x="211" y="269" type="line"/>
      <point x="38" y="269" type="line"/>
      <point x="38" y="411" type="line"/>
      <point x="211" y="411" type="line"/>
      <point x="211" y="600" type="line"/>
      <point x="368" y="600" type="line"/>
      <point x="368" y="411" type="line"/>
      <point x="542" y="411" type="line"/>
      <point x="542" y="269" type="line"/>
      <point x="368" y="269" type="line"/>
      <point x="368" y="79" type="line"/>
    </contour>
  </outline>
</glyph>
<glyph name="comma" format="2">
  <advance width="311"/>
  <unicode hex="002C"/>
  <outline>
    <contour>
      <point x="128" y="-122" type="line"/>
      <point x="13" y="-79" type="line"/>
      <point x="94" y="193" type="line"/>
      <point x="276" y="130" type="line"/>
    </contour>
  </outline>
</glyph>
<glyph name="hyphen" format="2">
  <advance width="390"/>
  <unicode hex="002D"/>
  <outline>
    <contour>
      <point x="49" y="214" type="line"/>
      <point x="49" y="360" type="line"/>
      <point x="341" y="360" type="line"/>
      <point x="341" y="214" type="line"/>
    </contour>
  </outline>
</glyph>
<glyph name="period" format="2">
  <advance width="302"/>
  <unicode hex="002E"/>
  <outline>
    <contour>
      <point x="150" y="-12" type="curve" smooth="yes"/>
      <point x="87" y="-12"/>
      <point x="40" y="35"/>
      <point x="40" y="96" type="curve" smooth="yes"/>
      <point x="40" y="155"/>
      <point x="87" y="203"/>
      <point x="150" y="203" type="curve" smooth="yes"/>
      <point x="214" y="203"/>
      <point x="262" y="155"/>
      <point x="262" y="96" type="curve" smooth="yes"/>
      <point x="262" y="35"/>
      <point x="214" y="-12"/>
    </contour>
  </outline>
</glyph>
<glyph name="zero" format="2">
  <advance width="741"/>
  <unicode hex="0030"/>
  <outline>
    <contour>
      <point x="373" y="162" type="curve" smooth="yes"/>
      <point x="453" y="162"/>
      <point x="484" y="221"/>
      <point x="484" y="345" type="curve" smooth="yes"/>
      <point x="484" y="371" type="line" smooth="yes"/>
      <point x="484" y="496"/>
      <point x="451" y="554"/>
      <point x="371" y="554" type="curve" smooth="yes"/>
      <point x="290" y="554"/>
      <point x="257" y="496"/>
      <point x="257" y="372" type="curve" smooth="yes"/>
      <point x="257" y="344" type="line" smooth="yes"/>
      <point x="257" y="219"/>
      <point x="290" y="162"/>
    </contour>
    <contour>
      <point x="366" y="-13" type="curve" smooth="yes"/>
      <point x="160" y="-13"/>
      <point x="32" y="115"/>
      <point x="32" y="343" type="curve" smooth="yes"/>
      <point x="32" y="371" type="line" smooth="yes"/>
      <point x="32" y="600"/>
      <point x="179" y="726"/>
      <point x="370" y="726" type="curve" smooth="yes"/>
      <point x="560" y="726"/>
      <point x="709" y="613"/>
      <point x="709" y="376" type="curve" smooth="yes"/>
      <point x="709" y="349" type="line" smooth="yes"/>
      <point x="709" y="119"/>
      <point x="575" y="-13"/>
    </contour>
  </outline>
</glyph>
<glyph name="one" format="2">
  <advance width="459"/>
  <unicode hex="0031"/>
  <outline>
    <contour>
      <point x="163" y="0" type="line"/>
      <point x="163" y="492" type="line"/>
      <point x="31" y="413" type="line"/>
      <point x="31" y="601" type="line"/>
      <point x="195" y="715" type="line"/>
      <point x="390" y="715" type="line"/>
      <point x="390" y="0" type="line"/>
    </contour>
  </outline>
</glyph>
<glyph name="two" format="2">
  <advance width="626"/>
  <unicode hex="0032"/>
  <outline>
    <contour>
      <point x="7" y="0" type="line"/>
      <point x="7" y="31" type="line"/>
      <point x="250" y="289" type="line" smooth="yes"/>
      <point x="322" y="366"/>
      <point x="370" y="426"/>
      <point x="370" y="485" type="curve" smooth="yes"/>
      <point x="370" y="526"/>
      <point x="350" y="556"/>
      <point x="305" y="556" type="curve" smooth="yes"/>
      <point x="259" y="556"/>
      <point x="231" y="527"/>
      <point x="222" y="448" type="curve"/>
      <point x="18" y="448" type="line"/>
      <point x="24" y="634"/>
      <point x="137" y="726"/>
      <point x="316" y="726" type="curve" smooth="yes"/>
      <point x="498" y="726"/>
      <point x="593" y="629"/>
      <point x="593" y="495" type="curve" smooth="yes"/>
      <point x="593" y="394"/>
      <point x="539" y="323"/>
      <point x="460" y="247" type="curve" smooth="yes"/>
      <point x="378" y="168" type="line"/>
      <point x="599" y="168" type="line"/>
      <point x="599" y="0" type="line"/>
    </contour>
  </outline>
</glyph>
<glyph name="three" format="2">
  <advance width="661"/>
  <unicode hex="0033"/>
  <outline>
    <contour>
      <point x="333" y="-13" type="curve" smooth="yes"/>
      <point x="126" y="-13"/>
      <point x="33" y="79"/>
      <point x="26" y="240" type="curve"/>
      <point x="227" y="240" type="line"/>
      <point x="232" y="185"/>
      <point x="256" y="149"/>
      <point x="319" y="149" type="curve" smooth="yes"/>
      <point x="374" y="149"/>
      <point x="400" y="175"/>
      <point x="400" y="221" type="curve" smooth="yes"/>
      <point x="400" y="269"/>
      <point x="374" y="294"/>
      <point x="316" y="294" type="curve" smooth="yes"/>
      <point x="259" y="294" type="line"/>
      <point x="259" y="431" type="line"/>
      <point x="313" y="431" type="line" smooth="yes"/>
      <point x="372" y="431"/>
      <point x="400" y="457"/>
      <point x="400" y="503" type="curve" smooth="yes"/>
      <point x="400" y="540"/>
      <point x="376" y="565"/>
      <point x="328" y="565" type="curve" smooth="yes"/>
      <point x="279" y="565"/>
      <point x="252" y="535"/>
      <point x="244" y="481" type="curve"/>
      <point x="44" y="481" type="line"/>
      <point x="54" y="628"/>
      <point x="148" y="726"/>
      <point x="334" y="726" type="curve" smooth="yes"/>
      <point x="508" y="726"/>
      <point x="612" y="650"/>
      <point x="612" y="528" type="curve" smooth="yes"/>
      <point x="612" y="448"/>
      <point x="566" y="396"/>
      <point x="489" y="374" type="curve"/>
      <point x="572" y="359"/>
      <point x="629" y="300"/>
      <point x="629" y="215" type="curve" smooth="yes"/>
      <point x="629" y="78"/>
      <point x="528" y="-13"/>
    </contour>
  </outline>
</glyph>
<glyph name="four" format="2">
  <advance width="689"/>
  <unicode hex="0034"/>
  <outline>
    <contour>
      <point x="360" y="0" type="line"/>
      <point x="360" y="134" type="line"/>
      <point x="14" y="134" type="line"/>
      <point x="14" y="220" type="line"/>
      <point x="308" y="715" type="line"/>
      <point x="578" y="715" type="line"/>
      <point x="578" y="289" type="line"/>
      <point x="668" y="289" type="line"/>
      <point x="668" y="134" type="line"/>
      <point x="578" y="134" type="line"/>
      <point x="578" y="0" type="line"/>
    </contour>
    <contour>
      <point x="222" y="289" type="line"/>
      <point x="366" y="289" type="line"/>
      <point x="366" y="544" type="line"/>
    </contour>
  </outline>
</glyph>
<glyph name="five" format="2">
  <advance width="639"/>
  <unicode hex="0035"/>
  <outline>
    <contour>
      <point x="311" y="-13" type="curve" smooth="yes"/>
      <point x="115" y="-13"/>
      <point x="26" y="93"/>
      <point x="23" y="230" type="curve"/>
      <point x="228" y="230" type="line"/>
      <point x="234" y="186"/>
      <point x="251" y="157"/>
      <point x="310" y="157" type="curve" smooth="yes"/>
      <point x="362" y="157"/>
      <point x="382" y="197"/>
      <point x="382" y="245" type="curve" smooth="yes"/>
      <point x="382" y="302"/>
      <point x="352" y="335"/>
      <point x="296" y="335" type="curve" smooth="yes"/>
      <point x="242" y="335"/>
      <point x="207" y="313"/>
      <point x="187" y="287" type="curve"/>
      <point x="48" y="287" type="line"/>
      <point x="66" y="715" type="line"/>
      <point x="563" y="715" type="line"/>
      <point x="563" y="551" type="line"/>
      <point x="228" y="551" type="line"/>
      <point x="223" y="405" type="line"/>
      <point x="250" y="445"/>
      <point x="301" y="485"/>
      <point x="394" y="485" type="curve" smooth="yes"/>
      <point x="525" y="485"/>
      <point x="609" y="398"/>
      <point x="609" y="241" type="curve" smooth="yes"/>
      <point x="609" y="88"/>
      <point x="500" y="-13"/>
    </contour>
  </outline>
</glyph>
<glyph name="six" format="2">
  <advance width="685"/>
  <unicode hex="0036"/>
  <outline>
    <contour>
      <point x="358" y="-13" type="curve" smooth="yes"/>
      <point x="124" y="-13"/>
      <point x="32" y="133"/>
      <point x="32" y="342" type="curve" smooth="yes"/>
      <point x="32" y="361" type="line" smooth="yes"/>
      <point x="32" y="590"/>
      <point x="175" y="726"/>
      <point x="360" y="726" type="curve" smooth="yes"/>
      <point x="530" y="726"/>
      <point x="628" y="652"/>
      <point x="643" y="507" type="curve"/>
      <point x="435" y="507" type="line"/>
      <point x="430" y="537"/>
      <point x="416" y="559"/>
      <point x="370" y="559" type="curve" smooth="yes"/>
      <point x="297" y="559"/>
      <point x="260" y="498"/>
      <point x="256" y="388" type="curve"/>
      <point x="288" y="436"/>
      <point x="330" y="469"/>
      <point x="420" y="469" type="curve" smooth="yes"/>
      <point x="548" y="469"/>
      <point x="658" y="395"/>
      <point x="658" y="240" type="curve" smooth="yes"/>
      <point x="658" y="89"/>
      <point x="544" y="-13"/>
    </contour>
    <contour>
      <point x="354" y="146" type="curve" smooth="yes"/>
      <point x="406" y="146"/>
      <point x="438" y="186"/>
      <point x="438" y="239" type="curve" smooth="yes"/>
      <point x="438" y="291"/>
      <point x="407" y="330"/>
      <point x="355" y="330" type="curve" smooth="yes"/>
      <point x="303" y="330"/>
      <point x="270" y="290"/>
      <point x="270" y="239" type="curve" smooth="yes"/>
      <point x="270" y="186"/>
      <point x="302" y="146"/>
    </contour>
  </outline>
</glyph>
<glyph name="seven" format="2">
  <advance width="586"/>
  <unicode hex="0037"/>
  <outline>
    <contour>
      <point x="105" y="0" type="line"/>
      <point x="297" y="531" type="line"/>
      <point x="23" y="531" type="line"/>
      <point x="23" y="715" type="line"/>
      <point x="580" y="715" type="line"/>
      <point x="580" y="692" type="line"/>
      <point x="336" y="0" type="line"/>
    </contour>
  </outline>
</glyph>
<glyph name="eight" format="2">
  <advance width="666"/>
  <unicode hex="0038"/>
  <outline>
    <contour>
      <point x="333" y="-13" type="curve" smooth="yes"/>
      <point x="141" y="-13"/>
      <point x="25" y="63"/>
      <point x="25" y="201" type="curve" smooth="yes"/>
      <point x="25" y="281"/>
      <point x="68" y="345"/>
      <point x="155" y="376" type="curve"/>
      <point x="93" y="403"/>
      <point x="55" y="450"/>
      <point x="55" y="522" type="curve" smooth="yes"/>
      <point x="55" y="653"/>
      <point x="181" y="726"/>
      <point x="335" y="726" type="curve" smooth="yes"/>
      <point x="495" y="726"/>
      <point x="614" y="654"/>
      <point x="614" y="524" type="curve" smooth="yes"/>
      <point x="614" y="451"/>
      <point x="575" y="404"/>
      <point x="514" y="377" type="curve"/>
      <point x="600" y="347"/>
      <point x="641" y="286"/>
      <point x="641" y="207" type="curve" smooth="yes"/>
      <point x="641" y="70"/>
      <point x="525" y="-13"/>
    </contour>
    <contour>
      <point x="334" y="145" type="curve" smooth="yes"/>
      <point x="385" y="145"/>
      <point x="420" y="176"/>
      <point x="420" y="226" type="curve" smooth="yes"/>
      <point x="420" y="275"/>
      <point x="386" y="308"/>
      <point x="334" y="308" type="curve" smooth="yes"/>
      <point x="283" y="308"/>
      <point x="247" y="278"/>
      <point x="247" y="226" type="curve" smooth="yes"/>
      <point x="247" y="176"/>
      <point x="283" y="145"/>
    </contour>
    <contour>
      <point x="335" y="431" type="curve" smooth="yes"/>
      <point x="378" y="431"/>
      <point x="412" y="459"/>
      <point x="412" y="503" type="curve" smooth="yes"/>
      <point x="412" y="547"/>
      <point x="377" y="575"/>
      <point x="335" y="575" type="curve" smooth="yes"/>
      <point x="294" y="575"/>
      <point x="259" y="547"/>
      <point x="259" y="503" type="curve" smooth="yes"/>
      <point x="259" y="460"/>
      <point x="294" y="431"/>
    </contour>
  </outline>
</glyph>
<glyph name="nine" format="2">
  <advance width="685"/>
  <unicode hex="0039"/>
  <outline>
    <contour>
      <point x="327" y="-12" type="curve" smooth="yes"/>
      <point x="153" y="-12"/>
      <point x="50" y="66"/>
      <point x="37" y="207" type="curve"/>
      <point x="244" y="207" type="line"/>
      <point x="249" y="177"/>
      <point x="268" y="155"/>
      <point x="315" y="155" type="curve" smooth="yes"/>
      <point x="395" y="155"/>
      <point x="425" y="214"/>
      <point x="428" y="324" type="curve"/>
      <point x="397" y="277"/>
      <point x="359" y="242"/>
      <point x="270" y="242" type="curve" smooth="yes"/>
      <point x="133" y="242"/>
      <point x="27" y="317"/>
      <point x="27" y="472" type="curve" smooth="yes"/>
      <point x="27" y="623"/>
      <point x="142" y="727"/>
      <point x="329" y="727" type="curve" smooth="yes"/>
      <point x="551" y="727"/>
      <point x="653" y="577"/>
      <point x="653" y="371" type="curve" smooth="yes"/>
      <point x="653" y="351" type="line" smooth="yes"/>
      <point x="653" y="120"/>
      <point x="537" y="-12"/>
    </contour>
    <contour>
      <point x="326" y="385" type="curve" smooth="yes"/>
      <point x="378" y="385"/>
      <point x="412" y="424"/>
      <point x="412" y="475" type="curve" smooth="yes"/>
      <point x="412" y="528"/>
      <point x="379" y="568"/>
      <point x="326" y="568" type="curve" smooth="yes"/>
      <point x="275" y="568"/>
      <point x="242" y="528"/>
      <point x="242" y="475" type="curve" smooth="yes"/>
      <point x="242" y="424"/>
      <point x="274" y="385"/>
    </contour>
  </outline>
</glyph>
<glyph name="colon" format="2">
  <advance width="308"/>
  <unicode hex="003A"/>
  <outline>
    <contour>
      <point x="152" y="-12" type="curve" smooth="yes"/>
      <point x="89" y="-12"/>
      <point x="43" y="35"/>
      <point x="43" y="96" type="curve" smooth="yes"/>
      <point x="43" y="155"/>
      <point x="89" y="203"/>
      <point x="152" y="203" type="curve" smooth="yes"/>
      <point x="217" y="203"/>
      <point x="265" y="155"/>
      <point x="265" y="96" type="curve" smooth="yes"/>
      <point x="265" y="35"/>
      <point x="217" y="-12"/>
    </contour>
    <contour>
      <point x="152" y="272" type="curve" smooth="yes"/>
      <point x="89" y="272"/>
      <point x="43" y="319"/>
      <point x="43" y="379" type="curve" smooth="yes"/>
      <point x="43" y="439"/>
      <point x="89" y="487"/>
      <point x="152" y="487" type="curve" smooth="yes"/>
      <point x="217" y="487"/>
      <point x="265" y="439"/>
      <point x="265" y="379" type="curve" smooth="yes"/>
      <point x="265" y="319"/>
      <point x="217" y="272"/>
    </contour>
  </outline>
</glyph>
<glyph name="semicolon" format="2">
  <advance width="326"/>
  <unicode hex="003B"/>
  <outline>
    <contour>
      <point x="123" y="-122" type="line"/>
      <point x="8" y="-79" type="line"/>
      <point x="89" y="193" type="line"/>
      <point x="271" y="130" type="line"/>
    </contour>
    <contour>
      <point x="178" y="272" type="curve" smooth="yes"/>
      <point x="115" y="272"/>
      <point x="68" y="319"/>
      <point x="68" y="379" type="curve" smooth="yes"/>
      <point x="68" y="439"/>
      <point x="115" y="487"/>
      <point x="178" y="487" type="curve" smooth="yes"/>
      <point x="242" y="487"/>
      <point x="290" y="439"/>
      <point x="290" y="379" type="curve" smooth="yes"/>
      <point x="290" y="319"/>
      <point x="242" y="272"/>
    </contour>
  </outline>
</glyph>
<glyph name="less" format="2">
  <advance width="514"/>
  <unicode hex="003C"/>
  <outline>
    <contour>
      <point x="468" y="53" type="line"/>
      <point x="40" y="304" type="line"/>
      <point x="40" y="341" type="line"/>
      <point x="468" y="592" type="line"/>
      <point x="468" y="414" type="line"/>
      <point x="291" y="324" type="line"/>
      <point x="468" y="225" type="line"/>
    </contour>
  </outline>
</glyph>
<glyph name="equal" format="2">
  <advance width="570"/>
  <unicode hex="003D"/>
  <outline>
    <contour>
      <point x="38" y="162" type="line"/>
      <point x="38" y="293" type="line"/>
      <point x="531" y="293" type="line"/>
      <point x="531" y="162" type="line"/>
    </contour>
    <contour>
      <point x="38" y="361" type="line"/>
      <point x="38" y="492" type="line"/>
      <point x="531" y="492" type="line"/>
      <point x="531" y="361" type="line"/>
    </contour>
  </outline>
</glyph>
<glyph name="question" format="2">
  <advance width="569"/>
  <unicode hex="003F"/>
  <outline>
    <contour>
      <point x="167" y="241" type="line"/>
      <point x="167" y="254" type="line" smooth="yes"/>
      <point x="167" y="330"/>
      <point x="219" y="378"/>
      <point x="264" y="420" type="curve" smooth="yes"/>
      <point x="298" y="452"/>
      <point x="328" y="480"/>
      <point x="328" y="514" type="curve" smooth="yes"/>
      <point x="328" y="548"/>
      <point x="311" y="566"/>
      <point x="275" y="566" type="curve" smooth="yes"/>
      <point x="238" y="566"/>
      <point x="213" y="536"/>
      <point x="206" y="486" type="curve"/>
      <point x="14" y="486" type="line"/>
      <point x="19" y="644"/>
      <point x="132" y="726"/>
      <point x="291" y="726" type="curve" smooth="yes"/>
      <point x="449" y="726"/>
      <point x="542" y="658"/>
      <point x="542" y="533" type="curve" smooth="yes"/>
      <point x="542" y="469"/>
      <point x="512" y="425"/>
      <point x="474" y="386" type="curve" smooth="yes"/>
      <point x="423" y="336"/>
      <point x="365" y="297"/>
      <point x="354" y="250" type="curve"/>
      <point x="354" y="241" type="line"/>
    </contour>
    <contour>
      <point x="261" y="-12" type="curve" smooth="yes"/>
      <point x="196" y="-12"/>
      <point x="145" y="35"/>
      <point x="145" y="93" type="curve" smooth="yes"/>
      <point x="145" y="152"/>
      <point x="196" y="199"/>
      <point x="261" y="199" type="curve" smooth="yes"/>
      <point x="324" y="199"/>
      <point x="375" y="152"/>
      <point x="375" y="93" type="curve" smooth="yes"/>
      <point x="375" y="35"/>
      <point x="324" y="-12"/>
    </contour>
  </outline>
</glyph>
<glyph name="at" format="2">
  <advance width="922"/>
  <unicode hex="0040"/>
  <outline>
    <contour>
      <point x="461" y="-160" type="curve" smooth="yes"/>
      <point x="190" y="-160"/>
      <point x="26" y="20"/>
      <point x="26" y="250" type="curve" smooth="yes"/>
      <point x="26" y="517"/>
      <point x="243" y="691"/>
      <point x="480" y="691" type="curve" smooth="yes"/>
      <point x="717" y="691"/>
      <point x="896" y="549"/>
      <point x="896" y="327" type="curve" smooth="yes"/>
      <point x="896" y="127"/>
      <point x="787" y="50"/>
      <point x="675" y="50" type="curve" smooth="yes"/>
      <point x="587" y="50"/>
      <point x="538" y="77"/>
      <point x="522" y="130" type="curve"/>
      <point x="497" y="78"/>
      <point x="455" y="48"/>
      <point x="391" y="48" type="curve" smooth="yes"/>
      <point x="292" y="48"/>
      <point x="227" y="121"/>
      <point x="227" y="236" type="curve" smooth="yes"/>
      <point x="227" y="379"/>
      <point x="315" y="471"/>
      <point x="425" y="471" type="curve" smooth="yes"/>
      <point x="486" y="471"/>
      <point x="517" y="446"/>
      <point x="532" y="414" type="curve"/>
      <point x="539" y="463" type="line"/>
      <point x="698" y="463" type="line"/>
      <point x="664" y="187" type="line" smooth="yes"/>
      <point x="658" y="148"/>
      <point x="671" y="123"/>
      <point x="706" y="123" type="curve" smooth="yes"/>
      <point x="761" y="123"/>
      <point x="814" y="182"/>
      <point x="814" y="330" type="curve" smooth="yes"/>
      <point x="814" y="504"/>
      <point x="683" y="621"/>
      <point x="482" y="621" type="curve" smooth="yes"/>
      <point x="276" y="621"/>
      <point x="112" y="477"/>
      <point x="112" y="248" type="curve" smooth="yes"/>
      <point x="112" y="56"/>
      <point x="231" y="-90"/>
      <point x="464" y="-90" type="curve" smooth="yes"/>
      <point x="582" y="-90"/>
      <point x="677" y="-48"/>
      <point x="725" y="0" type="curve"/>
      <point x="819" y="0" type="line"/>
      <point x="751" y="-97"/>
      <point x="615" y="-160"/>
    </contour>
    <contour>
      <point x="444" y="175" type="curve" smooth="yes"/>
      <point x="485" y="175"/>
      <point x="516" y="221"/>
      <point x="516" y="284" type="curve" smooth="yes"/>
      <point x="516" y="322"/>
      <point x="497" y="347"/>
      <point x="458" y="347" type="curve" smooth="yes"/>
      <point x="417" y="347"/>
      <point x="390" y="303"/>
      <point x="390" y="244" type="curve" smooth="yes"/>
      <point x="390" y="206"/>
      <point x="407" y="175"/>
    </contour>
  </outline>
</glyph>
<glyph name="B" format="2">
  <advance width="690"/>
  <unicode hex="0042"/>
  <outline>
    <contour>
      <point x="65" y="0" type="line"/>
      <point x="65" y="715" type="line"/>
      <point x="403" y="715" type="line" smooth="yes"/>
      <point x="579" y="715"/>
      <point x="647" y="634"/>
      <point x="647" y="528" type="curve" smooth="yes"/>
      <point x="647" y="524" type="line" smooth="yes"/>
      <point x="647" y="441"/>
      <point x="603" y="389"/>
      <point x="523" y="370" type="curve"/>
      <point x="607" y="355"/>
      <point x="666" y="303"/>
      <point x="666" y="203" type="curve" smooth="yes"/>
      <point x="666" y="199" type="line" smooth="yes"/>
      <point x="666" y="72"/>
      <point x="585" y="0"/>
      <point x="401" y="0" type="curve" smooth="yes"/>
    </contour>
    <contour>
      <point x="286" y="149" type="line"/>
      <point x="358" y="149" type="line" smooth="yes"/>
      <point x="416" y="149"/>
      <point x="443" y="176"/>
      <point x="443" y="224" type="curve" smooth="yes"/>
      <point x="443" y="228" type="line" smooth="yes"/>
      <point x="443" y="275"/>
      <point x="417" y="301"/>
      <point x="353" y="301" type="curve" smooth="yes"/>
      <point x="286" y="301" type="line"/>
    </contour>
    <contour>
      <point x="286" y="436" type="line"/>
      <point x="355" y="436" type="line" smooth="yes"/>
      <point x="411" y="436"/>
      <point x="433" y="455"/>
      <point x="433" y="499" type="curve" smooth="yes"/>
      <point x="433" y="503" type="line" smooth="yes"/>
      <point x="433" y="546"/>
      <point x="410" y="567"/>
      <point x="354" y="567" type="curve" smooth="yes"/>
      <point x="286" y="567" type="line"/>
    </contour>
  </outline>
</glyph>
<glyph name="D" format="2">
  <advance width="751"/>
  <unicode hex="0044"/>
  <outline>
    <contour>
      <point x="292" y="174" type="line"/>
      <point x="330" y="174" type="line" smooth="yes"/>
      <point x="441" y="174"/>
      <point x="488" y="229"/>
      <point x="488" y="354" type="curve" smooth="yes"/>
      <point x="488" y="362" type="line" smooth="yes"/>
      <point x="488" y="493"/>
      <point x="439" y="541"/>
      <point x="329" y="541" type="curve" smooth="yes"/>
      <point x="292" y="541" type="line"/>
    </contour>
    <contour>
      <point x="65" y="0" type="line"/>
      <point x="65" y="715" type="line"/>
      <point x="338" y="715" type="line" smooth="yes"/>
      <point x="594" y="715"/>
      <point x="724" y="593"/>
      <point x="724" y="366" type="curve" smooth="yes"/>
      <point x="724" y="359" type="line" smooth="yes"/>
      <point x="724" y="131"/>
      <point x="590" y="0"/>
      <point x="338" y="0" type="curve" smooth="yes"/>
    </contour>
  </outline>
</glyph>
<glyph name="E" format="2">
  <advance width="620"/>
  <unicode hex="0045"/>
  <outline>
    <contour>
      <point x="65" y="0" type="line"/>
      <point x="65" y="715" type="line"/>
      <point x="573" y="715" type="line"/>
      <point x="573" y="541" type="line"/>
      <point x="291" y="541" type="line"/>
      <point x="291" y="440" type="line"/>
      <point x="515" y="440" type="line"/>
      <point x="515" y="281" type="line"/>
      <point x="291" y="281" type="line"/>
      <point x="291" y="174" type="line"/>
      <point x="589" y="174" type="line"/>
      <point x="589" y="0" type="line"/>
    </contour>
  </outline>
</glyph>
<glyph name="F" format="2">
  <advance width="585"/>
  <unicode hex="0046"/>
  <outline>
    <contour>
      <point x="65" y="0" type="line"/>
      <point x="65" y="715" type="line"/>
      <point x="560" y="715" type="line"/>
      <point x="560" y="540" type="line"/>
      <point x="292" y="540" type="line"/>
      <point x="292" y="407" type="line"/>
      <point x="508" y="407" type="line"/>
      <point x="508" y="240" type="line"/>
      <point x="292" y="240" type="line"/>
      <point x="292" y="0" type="line"/>
    </contour>
  </outline>
</glyph>
<glyph name="H" format="2">
  <advance width="794"/>
  <unicode hex="0048"/>
  <outline>
    <contour>
      <point x="65" y="0" type="line"/>
      <point x="65" y="715" type="line"/>
      <point x="292" y="715" type="line"/>
      <point x="292" y="451" type="line"/>
      <point x="502" y="451" type="line"/>
      <point x="502" y="715" type="line"/>
      <point x="729" y="715" type="line"/>
      <point x="729" y="0" type="line"/>
      <point x="502" y="0" type="line"/>
      <point x="502" y="275" type="line"/>
      <point x="292" y="275" type="line"/>
      <point x="292" y="0" type="line"/>
    </contour>
  </outline>
</glyph>
<glyph name="J" format="2">
  <advance width="489"/>
  <unicode hex="004A"/>
  <outline>
    <contour>
      <point x="168" y="-9" type="curve" smooth="yes"/>
      <point x="98" y="-9"/>
      <point x="62" y="1"/>
      <point x="32" y="16" type="curve"/>
      <point x="32" y="183" type="line"/>
      <point x="55" y="176"/>
      <point x="78" y="170"/>
      <point x="117" y="170" type="curve" smooth="yes"/>
      <point x="170" y="170"/>
      <point x="207" y="193"/>
      <point x="207" y="263" type="curve" smooth="yes"/>
      <point x="207" y="715" type="line"/>
      <point x="434" y="715" type="line"/>
      <point x="434" y="262" type="line" smooth="yes"/>
      <point x="434" y="85"/>
      <point x="347" y="-9"/>
    </contour>
  </outline>
</glyph>
<glyph name="L" format="2">
  <advance width="582"/>
  <unicode hex="004C"/>
  <outline>
    <contour>
      <point x="65" y="0" type="line"/>
      <point x="65" y="715" type="line"/>
      <point x="292" y="715" type="line"/>
      <point x="292" y="175" type="line"/>
      <point x="552" y="175" type="line"/>
      <point x="552" y="0" type="line"/>
    </contour>
  </outline>
</glyph>
<glyph name="M" format="2">
  <advance width="958"/>
  <unicode hex="004D"/>
  <outline>
    <contour>
      <point x="65" y="0" type="line"/>
      <point x="65" y="715" type="line"/>
      <point x="359" y="715" type="line"/>
      <point x="480" y="368" type="line"/>
      <point x="603" y="715" type="line"/>
      <point x="891" y="715" type="line"/>
      <point x="891" y="0" type="line"/>
      <point x="666" y="0" type="line"/>
      <point x="666" y="422" type="line"/>
      <point x="503" y="0" type="line"/>
      <point x="427" y="0" type="line"/>
      <point x="267" y="422" type="line"/>
      <point x="267" y="0" type="line"/>
    </contour>
  </outline>
</glyph>
<glyph name="N" format="2">
  <advance width="787"/>
  <unicode hex="004E"/>
  <outline>
    <contour>
      <point x="65" y="0" type="line"/>
      <point x="65" y="715" type="line"/>
      <point x="319" y="715" type="line"/>
      <point x="522" y="337" type="line"/>
      <point x="522" y="715" type="line"/>
      <point x="721" y="715" type="line"/>
      <point x="721" y="0" type="line"/>
      <point x="504" y="0" type="line"/>
      <point x="265" y="428" type="line"/>
      <point x="265" y="0" type="line"/>
    </contour>
  </outline>
</glyph>
<glyph name="O" format="2">
  <advance width="820"/>
  <unicode hex="004F"/>
  <outline>
    <contour>
      <point x="411" y="165" type="curve" smooth="yes"/>
      <point x="500" y="165"/>
      <point x="557" y="235"/>
      <point x="557" y="354" type="curve" smooth="yes"/>
      <point x="557" y="362" type="line" smooth="yes"/>
      <point x="557" y="483"/>
      <point x="499" y="549"/>
      <point x="409" y="549" type="curve" smooth="yes"/>
      <point x="321" y="549"/>
      <point x="264" y="484"/>
      <point x="264" y="362" type="curve" smooth="yes"/>
      <point x="264" y="354" type="line" smooth="yes"/>
      <point x="264" y="232"/>
      <point x="321" y="165"/>
    </contour>
    <contour>
      <point x="405" y="-13" type="curve" smooth="yes"/>
      <point x="171" y="-13"/>
      <point x="27" y="136"/>
      <point x="27" y="353" type="curve" smooth="yes"/>
      <point x="27" y="361" type="line" smooth="yes"/>
      <point x="27" y="582"/>
      <point x="195" y="726"/>
      <point x="409" y="726" type="curve" smooth="yes"/>
      <point x="629" y="726"/>
      <point x="793" y="593"/>
      <point x="793" y="367" type="curve" smooth="yes"/>
      <point x="793" y="359" type="line" smooth="yes"/>
      <point x="793" y="136"/>
      <point x="640" y="-13"/>
    </contour>
  </outline>
</glyph>
<glyph name="P" format="2">
  <advance width="664"/>
  <unicode hex="0050"/>
  <outline>
    <contour>
      <point x="65" y="0" type="line"/>
      <point x="65" y="715" type="line"/>
      <point x="350" y="715" type="line" smooth="yes"/>
      <point x="556" y="715"/>
      <point x="644" y="623"/>
      <point x="644" y="470" type="curve" smooth="yes"/>
      <point x="644" y="466" type="line" smooth="yes"/>
      <point x="644" y="317"/>
      <point x="545" y="233"/>
      <point x="360" y="233" type="curve" smooth="yes"/>
      <point x="291" y="233" type="line"/>
      <point x="291" y="0" type="line"/>
    </contour>
    <contour>
      <point x="291" y="385" type="line"/>
      <point x="338" y="385" type="line" smooth="yes"/>
      <point x="398" y="385"/>
      <point x="429" y="412"/>
      <point x="429" y="465" type="curve" smooth="yes"/>
      <point x="429" y="469" type="line" smooth="yes"/>
      <point x="429" y="524"/>
      <point x="398" y="546"/>
      <point x="339" y="546" type="curve" smooth="yes"/>
      <point x="291" y="546" type="line"/>
    </contour>
  </outline>
</glyph>
<glyph name="Q" format="2">
  <advance width="820"/>
  <unicode hex="0051"/>
  <outline>
    <contour>
      <point x="605" y="-126" type="line"/>
      <point x="487" y="-6" type="line"/>
      <point x="461" y="-10"/>
      <point x="433" y="-13"/>
      <point x="405" y="-13" type="curve" smooth="yes"/>
      <point x="171" y="-13"/>
      <point x="27" y="136"/>
      <point x="27" y="353" type="curve" smooth="yes"/>
      <point x="27" y="361" type="line" smooth="yes"/>
      <point x="27" y="582"/>
      <point x="195" y="725"/>
      <point x="409" y="725" type="curve" smooth="yes"/>
      <point x="629" y="725"/>
      <point x="794" y="593"/>
      <point x="794" y="367" type="curve" smooth="yes"/>
      <point x="794" y="359" type="line" smooth="yes"/>
      <point x="794" y="234"/>
      <point x="746" y="132"/>
      <point x="662" y="67" type="curve"/>
      <point x="729" y="0" type="line"/>
    </contour>
    <contour>
      <point x="263" y="354" type="line" smooth="yes"/>
      <point x="263" y="256"/>
      <point x="297" y="194"/>
      <point x="353" y="171" type="curve"/>
      <point x="463" y="269" type="line"/>
      <point x="518" y="212" type="line"/>
      <point x="543" y="245"/>
      <point x="557" y="293"/>
      <point x="557" y="355" type="curve" smooth="yes"/>
      <point x="557" y="363" type="line" smooth="yes"/>
      <point x="557" y="484"/>
      <point x="499" y="549"/>
      <point x="409" y="549" type="curve" smooth="yes"/>
      <point x="320" y="549"/>
      <point x="263" y="485"/>
      <point x="263" y="362" type="curve" smooth="yes"/>
    </contour>
  </outline>
</glyph>
<glyph name="V" format="2">
  <advance width="741"/>
  <unicode hex="0056"/>
  <outline>
    <contour>
      <point x="245" y="0" type="line"/>
      <point x="9" y="715" type="line"/>
      <point x="254" y="715" type="line"/>
      <point x="387" y="236" type="line"/>
      <point x="520" y="715" type="line"/>
      <point x="732" y="715" type="line"/>
      <point x="501" y="0" type="line"/>
    </contour>
  </outline>
</glyph>
<glyph name="X" format="2">
  <advance width="772"/>
  <unicode hex="0058"/>
  <outline>
    <contour>
      <point x="18" y="0" type="line"/>
      <point x="236" y="368" type="line"/>
      <point x="34" y="715" type="line"/>
      <point x="293" y="715" type="line"/>
      <point x="393" y="514" type="line"/>
      <point x="491" y="715" type="line"/>
      <point x="723" y="715" type="line"/>
      <point x="536" y="376" type="line"/>
      <point x="755" y="0" type="line"/>
      <point x="497" y="0" type="line"/>
      <point x="374" y="235" type="line"/>
      <point x="251" y="0" type="line"/>
    </contour>
  </outline>
</glyph>
<glyph name="Y" format="2">
  <advance width="692"/>
  <unicode hex="0059"/>
  <outline>
    <contour>
      <point x="237" y="0" type="line"/>
      <point x="237" y="305" type="line"/>
      <point x="5" y="715" type="line"/>
      <point x="251" y="715" type="line"/>
      <point x="360" y="491" type="line"/>
      <point x="470" y="715" type="line"/>
      <point x="687" y="715" type="line"/>
      <point x="465" y="306" type="line"/>
      <point x="465" y="0" type="line"/>
    </contour>
  </outline>
</glyph>
<glyph name="Z" format="2">
  <advance width="627"/>
  <unicode hex="005A"/>
  <outline>
    <contour>
      <point x="10" y="0" type="line"/>
      <point x="10" y="24" type="line"/>
      <point x="296" y="545" type="line"/>
      <point x="50" y="545" type="line"/>
      <point x="50" y="715" type="line"/>
      <point x="613" y="715" type="line"/>
      <point x="613" y="691" type="line"/>
      <point x="330" y="171" type="line"/>
      <point x="596" y="171" type="line"/>
      <point x="596" y="0" type="line"/>
    </contour>
  </outline>
</glyph>
<glyph name="bracketleft" format="2">
  <advance width="419"/>
  <unicode hex="005B"/>
  <outline>
    <contour>
      <point x="61" y="-148" type="line"/>
      <point x="61" y="776" type="line"/>
      <point x="382" y="776" type="line"/>
      <point x="382" y="634" type="line"/>
      <point x="260" y="634" type="line"/>
      <point x="260" y="-6" type="line"/>
      <point x="382" y="-6" type="line"/>
      <point x="382" y="-148" type="line"/>
    </contour>
  </outline>
</glyph>
<glyph name="backslash" format="2">
  <advance width="440"/>
  <unicode hex="005C"/>
  <outline>
    <contour>
      <point x="315" y="-148" type="line"/>
      <point x="-7" y="776" type="line"/>
      <point x="147" y="776" type="line"/>
      <point x="470" y="-148" type="line"/>
    </contour>
  </outline>
</glyph>
<glyph name="bracketright" format="2">
  <advance width="419"/>
  <unicode hex="005D"/>
  <outline>
    <contour>
      <point x="38" y="-148" type="line"/>
      <point x="38" y="-6" type="line"/>
      <point x="158" y="-6" type="line"/>
      <point x="158" y="634" type="line"/>
      <point x="38" y="634" type="line"/>
      <point x="38" y="776" type="line"/>
      <point x="357" y="776" type="line"/>
      <point x="357" y="-148" type="line"/>
    </contour>
  </outline>
</glyph>
<glyph name="underscore" format="2">
  <advance width="441"/>
  <unicode hex="005F"/>
  <outline>
    <contour>
      <point x="-1" y="-161" type="line"/>
      <point x="-1" y="-72" type="line"/>
      <point x="442" y="-72" type="line"/>
      <point x="442" y="-161" type="line"/>
    </contour>
  </outline>
</glyph>
<glyph name="grave" format="2">
  <advance width="400"/>
  <unicode hex="0060"/>
  <outline>
    <contour>
      <point x="136" y="578" type="line"/>
      <point x="32" y="747" type="line"/>
      <point x="225" y="747" type="line"/>
      <point x="277" y="578" type="line"/>
    </contour>
  </outline>
</glyph>
<glyph name="b" format="2">
  <advance width="646"/>
  <unicode hex="0062"/>
  <outline>
    <contour>
      <point x="403" y="-13" type="curve" smooth="yes"/>
      <point x="326" y="-13"/>
      <point x="270" y="24"/>
      <point x="244" y="80" type="curve"/>
      <point x="244" y="0" type="line"/>
      <point x="47" y="0" type="line"/>
      <point x="47" y="750" type="line"/>
      <point x="244" y="750" type="line"/>
      <point x="244" y="447" type="line"/>
      <point x="273" y="496"/>
      <point x="325" y="537"/>
      <point x="404" y="537" type="curve" smooth="yes"/>
      <point x="523" y="537"/>
      <point x="623" y="448"/>
      <point x="623" y="265" type="curve" smooth="yes"/>
      <point x="623" y="257" type="line" smooth="yes"/>
      <point x="623" y="74"/>
      <point x="522" y="-13"/>
    </contour>
    <contour>
      <point x="331" y="137" type="curve" smooth="yes"/>
      <point x="390" y="137"/>
      <point x="423" y="179"/>
      <point x="423" y="259" type="curve" smooth="yes"/>
      <point x="423" y="267" type="line" smooth="yes"/>
      <point x="423" y="351"/>
      <point x="389" y="391"/>
      <point x="330" y="391" type="curve" smooth="yes"/>
      <point x="272" y="391"/>
      <point x="239" y="347"/>
      <point x="239" y="267" type="curve" smooth="yes"/>
      <point x="239" y="259" type="line" smooth="yes"/>
      <point x="239" y="178"/>
      <point x="271" y="137"/>
    </contour>
  </outline>
</glyph>
<glyph name="c" format="2">
  <advance width="586"/>
  <unicode hex="0063"/>
  <outline>
    <contour>
      <point x="300" y="-13" type="curve" smooth="yes"/>
      <point x="143" y="-13"/>
      <point x="22" y="76"/>
      <point x="22" y="254" type="curve" smooth="yes"/>
      <point x="22" y="262" type="line" smooth="yes"/>
      <point x="22" y="440"/>
      <point x="148" y="537"/>
      <point x="305" y="537" type="curve" smooth="yes"/>
      <point x="436" y="537"/>
      <point x="557" y="481"/>
      <point x="567" y="317" type="curve"/>
      <point x="382" y="317" type="line"/>
      <point x="376" y="359"/>
      <point x="358" y="386"/>
      <point x="310" y="386" type="curve" smooth="yes"/>
      <point x="252" y="386"/>
      <point x="222" y="346"/>
      <point x="222" y="266" type="curve" smooth="yes"/>
      <point x="222" y="258" type="line" smooth="yes"/>
      <point x="222" y="173"/>
      <point x="250" y="130"/>
      <point x="313" y="130" type="curve" smooth="yes"/>
      <point x="358" y="130"/>
      <point x="388" y="158"/>
      <point x="393" y="209" type="curve"/>
      <point x="570" y="209" type="line"/>
      <point x="565" y="74"/>
      <point x="476" y="-13"/>
    </contour>
  </outline>
</glyph>
<glyph name="f" format="2">
  <advance width="393"/>
  <unicode hex="0066"/>
  <outline>
    <contour>
      <point x="75" y="0" type="line"/>
      <point x="75" y="391" type="line"/>
      <point x="11" y="391" type="line"/>
      <point x="11" y="523" type="line"/>
      <point x="75" y="523" type="line"/>
      <point x="75" y="562" type="line" smooth="yes"/>
      <point x="75" y="697"/>
      <point x="163" y="758"/>
      <point x="290" y="758" type="curve" smooth="yes"/>
      <point x="324" y="758"/>
      <point x="350" y="754"/>
      <point x="375" y="747" type="curve"/>
      <point x="375" y="606" type="line"/>
      <point x="363" y="609"/>
      <point x="348" y="612"/>
      <point x="328" y="612" type="curve" smooth="yes"/>
      <point x="289" y="612"/>
      <point x="272" y="590"/>
      <point x="272" y="561" type="curve" smooth="yes"/>
      <point x="272" y="523" type="line"/>
      <point x="374" y="523" type="line"/>
      <point x="374" y="391" type="line"/>
      <point x="272" y="391" type="line"/>
      <point x="272" y="0" type="line"/>
    </contour>
  </outline>
</glyph>
<glyph name="j" format="2">
  <advance width="303"/>
  <unicode hex="006A"/>
  <outline>
    <contour>
      <point x="-9" y="-183" type="curve"/>
      <point x="-9" y="-42" type="line"/>
      <point x="33" y="-40"/>
      <point x="52" y="-24"/>
      <point x="52" y="16" type="curve" smooth="yes"/>
      <point x="52" y="523" type="line"/>
      <point x="249" y="523" type="line"/>
      <point x="249" y="11" type="line" smooth="yes"/>
      <point x="249" y="-105"/>
      <point x="194" y="-183"/>
    </contour>
    <contour>
      <point x="151" y="562" type="curve" smooth="yes"/>
      <point x="90" y="562"/>
      <point x="44" y="604"/>
      <point x="44" y="661" type="curve" smooth="yes"/>
      <point x="44" y="719"/>
      <point x="90" y="761"/>
      <point x="151" y="761" type="curve" smooth="yes"/>
      <point x="211" y="761"/>
      <point x="257" y="719"/>
      <point x="257" y="661" type="curve" smooth="yes"/>
      <point x="257" y="604"/>
      <point x="211" y="562"/>
    </contour>
  </outline>
</glyph>
<glyph name="m" format="2">
  <advance width="935"/>
  <unicode hex="006D"/>
  <outline>
    <contour>
      <point x="47" y="0" type="line"/>
      <point x="47" y="523" type="line"/>
      <point x="244" y="523" type="line"/>
      <point x="244" y="443" type="line"/>
      <point x="273" y="493"/>
      <point x="328" y="537"/>
      <point x="409" y="537" type="curve" smooth="yes"/>
      <point x="479" y="537"/>
      <point x="525" y="508"/>
      <point x="549" y="453" type="curve"/>
      <point x="595" y="512"/>
      <point x="656" y="537"/>
      <point x="721" y="537" type="curve" smooth="yes"/>
      <point x="821" y="537"/>
      <point x="891" y="472"/>
      <point x="891" y="345" type="curve" smooth="yes"/>
      <point x="891" y="0" type="line"/>
      <point x="695" y="0" type="line"/>
      <point x="695" y="309" type="line" smooth="yes"/>
      <point x="695" y="355"/>
      <point x="672" y="379"/>
      <point x="636" y="379" type="curve" smooth="yes"/>
      <point x="592" y="379"/>
      <point x="567" y="350"/>
      <point x="567" y="300" type="curve" smooth="yes"/>
      <point x="567" y="0" type="line"/>
      <point x="372" y="0" type="line"/>
      <point x="372" y="309" type="line" smooth="yes"/>
      <point x="372" y="355"/>
      <point x="348" y="379"/>
      <point x="314" y="379" type="curve" smooth="yes"/>
      <point x="269" y="379"/>
      <point x="244" y="350"/>
      <point x="244" y="300" type="curve" smooth="yes"/>
      <point x="244" y="0" type="line"/>
    </contour>
  </outline>
</glyph>
<glyph name="r" format="2">
  <advance width="438"/>
  <unicode hex="0072"/>
  <outline>
    <contour>
      <point x="47" y="0" type="line"/>
      <point x="47" y="523" type="line"/>
      <point x="244" y="523" type="line"/>
      <point x="244" y="417" type="line"/>
      <point x="277" y="498"/>
      <point x="334" y="531"/>
      <point x="412" y="530" type="curve"/>
      <point x="412" y="346" type="line"/>
      <point x="303" y="352"/>
      <point x="244" y="316"/>
      <point x="244" y="241" type="curve" smooth="yes"/>
      <point x="244" y="0" type="line"/>
    </contour>
  </outline>
</glyph>
<glyph name="v" format="2">
  <advance width="604"/>
  <unicode hex="0076"/>
  <outline>
    <contour>
      <point x="197" y="0" type="line"/>
      <point x="5" y="523" type="line"/>
      <point x="215" y="523" type="line"/>
      <point x="314" y="205" type="line"/>
      <point x="414" y="523" type="line"/>
      <point x="599" y="523" type="line"/>
      <point x="408" y="0" type="line"/>
    </contour>
  </outline>
</glyph>
<glyph name="x" format="2">
  <advance width="613"/>
  <unicode hex="0078"/>
  <outline>
    <contour>
      <point x="8" y="0" type="line"/>
      <point x="180" y="265" type="line"/>
      <point x="19" y="523" type="line"/>
      <point x="245" y="523" type="line"/>
      <point x="316" y="395" type="line"/>
      <point x="387" y="523" type="line"/>
      <point x="588" y="523" type="line"/>
      <point x="425" y="280" type="line"/>
      <point x="605" y="0" type="line"/>
      <point x="379" y="0" type="line"/>
      <point x="295" y="146" type="line"/>
      <point x="207" y="0" type="line"/>
    </contour>
  </outline>
</glyph>
<glyph name="y" format="2">
  <advance width="600"/>
  <unicode hex="0079"/>
  <outline>
    <contour>
      <point x="129" y="-174" type="line"/>
      <point x="214" y="52" type="line"/>
      <point x="5" y="523" type="line"/>
      <point x="218" y="523" type="line"/>
      <point x="317" y="262" type="line"/>
      <point x="409" y="523" type="line"/>
      <point x="595" y="523" type="line"/>
      <point x="316" y="-174" type="line"/>
    </contour>
  </outline>
</glyph>
<glyph name="braceleft" format="2">
  <advance width="425"/>
  <unicode hex="007B"/>
  <outline>
    <contour>
      <point x="388" y="-148" type="line"/>
      <point x="177" y="-148"/>
      <point x="82" y="-75"/>
      <point x="109" y="88" type="curve" smooth="yes"/>
      <point x="122" y="169" type="line" smooth="yes"/>
      <point x="130" y="214"/>
      <point x="102" y="247"/>
      <point x="29" y="247" type="curve"/>
      <point x="29" y="384" type="line"/>
      <point x="102" y="384"/>
      <point x="130" y="416"/>
      <point x="122" y="461" type="curve" smooth="yes"/>
      <point x="109" y="541" type="line" smooth="yes"/>
      <point x="81" y="711"/>
      <point x="177" y="777"/>
      <point x="388" y="777" type="curve"/>
      <point x="388" y="634" type="line"/>
      <point x="315" y="630"/>
      <point x="295" y="610"/>
      <point x="303" y="548" type="curve" smooth="yes"/>
      <point x="315" y="449" type="line" smooth="yes"/>
      <point x="323" y="383"/>
      <point x="285" y="334"/>
      <point x="211" y="317" type="curve"/>
      <point x="286" y="301"/>
      <point x="323" y="251"/>
      <point x="315" y="184" type="curve" smooth="yes"/>
      <point x="303" y="86" type="line" smooth="yes"/>
      <point x="295" y="22"/>
      <point x="315" y="-1"/>
      <point x="388" y="-5" type="curve"/>
    </contour>
  </outline>
</glyph>
<glyph name="bar" format="2">
  <advance width="270"/>
  <unicode hex="007C"/>
  <outline>
    <contour>
      <point x="67" y="-148" type="line"/>
      <point x="67" y="776" type="line"/>
      <point x="203" y="776" type="line"/>
      <point x="203" y="-148" type="line"/>
    </contour>
  </outline>
</glyph>
<glyph name="braceright" format="2">
  <advance width="425"/>
  <unicode hex="007D"/>
  <outline>
    <contour>
      <point x="37" y="-148" type="curve"/>
      <point x="37" y="-5" type="line"/>
      <point x="110" y="-1"/>
      <point x="130" y="22"/>
      <point x="122" y="86" type="curve" smooth="yes"/>
      <point x="110" y="184" type="line" smooth="yes"/>
      <point x="102" y="251"/>
      <point x="139" y="301"/>
      <point x="214" y="317" type="curve"/>
      <point x="140" y="334"/>
      <point x="102" y="383"/>
      <point x="110" y="449" type="curve" smooth="yes"/>
      <point x="122" y="548" type="line" smooth="yes"/>
      <point x="130" y="610"/>
      <point x="110" y="630"/>
      <point x="37" y="634" type="curve"/>
      <point x="37" y="777" type="line"/>
      <point x="248" y="777"/>
      <point x="344" y="711"/>
      <point x="316" y="541" type="curve" smooth="yes"/>
      <point x="303" y="461" type="line" smooth="yes"/>
      <point x="295" y="416"/>
      <point x="322" y="384"/>
      <point x="396" y="384" type="curve"/>
      <point x="396" y="247" type="line"/>
      <point x="322" y="247"/>
      <point x="295" y="214"/>
      <point x="303" y="169" type="curve" smooth="yes"/>
      <point x="316" y="88" type="line" smooth="yes"/>
      <point x="343" y="-75"/>
      <point x="248" y="-148"/>
    </contour>
  </outline>
</glyph>
<glyph name="asciitilde" format="2">
  <advance width="532"/>
  <unicode hex="007E"/>
  <outline>
    <contour>
      <point x="25" y="213" type="line"/>
      <point x="33" y="365"/>
      <point x="103" y="424"/>
      <point x="180" y="424" type="curve" smooth="yes"/>
      <point x="253" y="424"/>
      <point x="301" y="380"/>
      <point x="336" y="380" type="curve" smooth="yes"/>
      <point x="363" y="380"/>
      <point x="376" y="397"/>
      <point x="381" y="425" type="curve"/>
      <point x="506" y="425" type="line"/>
      <point x="502" y="284"/>
      <point x="429" y="214"/>
      <point x="352" y="214" type="curve" smooth="yes"/>
      <point x="277" y="214"/>
      <point x="232" y="257"/>
      <point x="196" y="257" type="curve" smooth="yes"/>
      <point x="168" y="257"/>
      <point x="155" y="239"/>
      <point x="151" y="213" type="curve"/>
    </contour>
  </outline>
</glyph>
<glyph name="exclamdown" format="2">
  <advance width="343"/>
  <unicode hex="00A1"/>
  <outline>
    <contour>
      <point x="60" y="-117" type="line"/>
      <point x="89" y="357" type="line"/>
      <point x="253" y="357" type="line"/>
      <point x="282" y="-117" type="line"/>
    </contour>
    <contour>
      <point x="171" y="399" type="curve" smooth="yes"/>
      <point x="108" y="399"/>
      <point x="57" y="446"/>
      <point x="57" y="505" type="curve" smooth="yes"/>
      <point x="57" y="563"/>
      <point x="108" y="610"/>
      <point x="171" y="610" type="curve" smooth="yes"/>
      <point x="234" y="610"/>
      <point x="285" y="563"/>
      <point x="285" y="505" type="curve" smooth="yes"/>
      <point x="285" y="446"/>
      <point x="234" y="399"/>
    </contour>
  </outline>
</glyph>
<glyph name="cent" format="2">
  <advance width="600"/>
  <unicode hex="00A2"/>
  <outline>
    <contour>
      <point x="279" y="-135" type="line"/>
      <point x="279" y="-11" type="line"/>
      <point x="131" y="0"/>
      <point x="21" y="89"/>
      <point x="21" y="255" type="curve" smooth="yes"/>
      <point x="21" y="263" type="line" smooth="yes"/>
      <point x="21" y="424"/>
      <point x="133" y="520"/>
      <point x="279" y="536" type="curve"/>
      <point x="279" y="629" type="line"/>
      <point x="354" y="629" type="line"/>
      <point x="354" y="536" type="line"/>
      <point x="476" y="526"/>
      <point x="573" y="457"/>
      <point x="582" y="317" type="curve"/>
      <point x="405" y="317" type="line"/>
      <point x="400" y="355"/>
      <point x="383" y="380"/>
      <point x="354" y="390" type="curve"/>
      <point x="354" y="124" type="line"/>
      <point x="388" y="134"/>
      <point x="411" y="161"/>
      <point x="415" y="209" type="curve"/>
      <point x="585" y="209" type="line"/>
      <point x="581" y="84"/>
      <point x="499" y="1"/>
      <point x="354" y="-11" type="curve"/>
      <point x="354" y="-135" type="line"/>
    </contour>
    <contour>
      <point x="215" y="257" type="line" smooth="yes"/>
      <point x="215" y="183"/>
      <point x="237" y="141"/>
      <point x="279" y="126" type="curve"/>
      <point x="279" y="390" type="line"/>
      <point x="239" y="376"/>
      <point x="215" y="336"/>
      <point x="215" y="265" type="curve" smooth="yes"/>
    </contour>
  </outline>
</glyph>
<glyph name="sterling" format="2">
  <advance width="668"/>
  <unicode hex="00A3"/>
  <outline>
    <contour>
      <point x="32" y="285" type="line"/>
      <point x="32" y="409" type="line"/>
      <point x="80" y="409" type="line"/>
      <point x="73" y="434"/>
      <point x="69" y="461"/>
      <point x="69" y="492" type="curve" smooth="yes"/>
      <point x="69" y="643"/>
      <point x="193" y="725"/>
      <point x="354" y="725" type="curve" smooth="yes"/>
      <point x="550" y="725"/>
      <point x="632" y="625"/>
      <point x="639" y="475" type="curve"/>
      <point x="433" y="475" type="line"/>
      <point x="426" y="532"/>
      <point x="404" y="556"/>
      <point x="362" y="556" type="curve" smooth="yes"/>
      <point x="319" y="556"/>
      <point x="293" y="527"/>
      <point x="293" y="479" type="curve" smooth="yes"/>
      <point x="293" y="456"/>
      <point x="295" y="433"/>
      <point x="298" y="409" type="curve"/>
      <point x="468" y="409" type="line"/>
      <point x="468" y="285" type="line"/>
      <point x="315" y="285" type="line"/>
      <point x="316" y="270"/>
      <point x="317" y="254"/>
      <point x="317" y="239" type="curve" smooth="yes"/>
      <point x="317" y="218"/>
      <point x="314" y="201"/>
      <point x="309" y="184" type="curve"/>
      <point x="339" y="175"/>
      <point x="365" y="166"/>
      <point x="388" y="166" type="curve" smooth="yes"/>
      <point x="423" y="166"/>
      <point x="443" y="183"/>
      <point x="446" y="220" type="curve"/>
      <point x="650" y="220" type="line"/>
      <point x="645" y="89"/>
      <point x="571" y="-9"/>
      <point x="433" y="-9" type="curve" smooth="yes"/>
      <point x="330" y="-9"/>
      <point x="272" y="41"/>
      <point x="225" y="41" type="curve" smooth="yes"/>
      <point x="197" y="41"/>
      <point x="183" y="24"/>
      <point x="180" y="0" type="curve"/>
      <point x="14" y="0" type="line"/>
      <point x="19" y="80"/>
      <point x="52" y="151"/>
      <point x="117" y="184" type="curve"/>
      <point x="121" y="199"/>
      <point x="124" y="217"/>
      <point x="124" y="239" type="curve" smooth="yes"/>
      <point x="124" y="255"/>
      <point x="122" y="270"/>
      <point x="119" y="285" type="curve"/>
    </contour>
  </outline>
</glyph>
<glyph name="yen" format="2">
  <advance width="659"/>
  <unicode hex="00A5"/>
  <outline>
    <contour>
      <point x="61" y="297" type="line"/>
      <point x="61" y="370" type="line"/>
      <point x="195" y="370" type="line"/>
      <point x="8" y="715" type="line"/>
      <point x="253" y="715" type="line"/>
      <point x="344" y="499" type="line"/>
      <point x="435" y="715" type="line"/>
      <point x="651" y="715" type="line"/>
      <point x="473" y="370" type="line"/>
      <point x="609" y="370" type="line"/>
      <point x="609" y="297" type="line"/>
      <point x="449" y="297" type="line"/>
      <point x="449" y="250" type="line"/>
      <point x="609" y="250" type="line"/>
      <point x="609" y="176" type="line"/>
      <point x="449" y="176" type="line"/>
      <point x="449" y="0" type="line"/>
      <point x="221" y="0" type="line"/>
      <point x="221" y="176" type="line"/>
      <point x="61" y="176" type="line"/>
      <point x="61" y="250" type="line"/>
      <point x="221" y="250" type="line"/>
      <point x="221" y="297" type="line"/>
    </contour>
  </outline>
</glyph>
<glyph name="section" format="2">
  <advance width="618"/>
  <unicode hex="00A7"/>
  <outline>
    <contour>
      <point x="297" y="-137" type="curve" smooth="yes"/>
      <point x="153" y="-137"/>
      <point x="74" y="-65"/>
      <point x="69" y="50" type="curve"/>
      <point x="246" y="50" type="line"/>
      <point x="248" y="15"/>
      <point x="265" y="-7"/>
      <point x="302" y="-7" type="curve" smooth="yes"/>
      <point x="335" y="-7"/>
      <point x="352" y="7"/>
      <point x="352" y="31" type="curve" smooth="yes"/>
      <point x="352" y="59"/>
      <point x="326" y="69"/>
      <point x="251" y="86" type="curve" smooth="yes"/>
      <point x="110" y="120"/>
      <point x="18" y="164"/>
      <point x="18" y="286" type="curve" smooth="yes"/>
      <point x="18" y="355"/>
      <point x="61" y="399"/>
      <point x="125" y="424" type="curve"/>
      <point x="97" y="454"/>
      <point x="84" y="493"/>
      <point x="84" y="537" type="curve" smooth="yes"/>
      <point x="84" y="655"/>
      <point x="181" y="725"/>
      <point x="322" y="725" type="curve" smooth="yes"/>
      <point x="465" y="725"/>
      <point x="543" y="653"/>
      <point x="548" y="537" type="curve"/>
      <point x="372" y="537" type="line"/>
      <point x="368" y="573"/>
      <point x="353" y="592"/>
      <point x="316" y="592" type="curve" smooth="yes"/>
      <point x="283" y="592"/>
      <point x="267" y="577"/>
      <point x="267" y="555" type="curve" smooth="yes"/>
      <point x="267" y="525"/>
      <point x="288" y="517"/>
      <point x="366" y="498" type="curve" smooth="yes"/>
      <point x="504" y="466"/>
      <point x="601" y="426"/>
      <point x="601" y="300" type="curve" smooth="yes"/>
      <point x="601" y="232"/>
      <point x="558" y="188"/>
      <point x="494" y="161" type="curve"/>
      <point x="521" y="132"/>
      <point x="535" y="94"/>
      <point x="535" y="49" type="curve" smooth="yes"/>
      <point x="535" y="-64"/>
      <point x="439" y="-137"/>
    </contour>
    <contour>
      <point x="376" y="231" type="line"/>
      <point x="402" y="236"/>
      <point x="412" y="249"/>
      <point x="412" y="270" type="curve" smooth="yes"/>
      <point x="412" y="299"/>
      <point x="385" y="307"/>
      <point x="317" y="329" type="curve" smooth="yes"/>
      <point x="244" y="353" type="line"/>
      <point x="219" y="349"/>
      <point x="208" y="335"/>
      <point x="208" y="314" type="curve" smooth="yes"/>
      <point x="208" y="287"/>
      <point x="238" y="277"/>
      <point x="303" y="256" type="curve" smooth="yes"/>
    </contour>
  </outline>
</glyph>
<glyph name="dieresis" format="2">
  <advance width="400"/>
  <unicode hex="00A8"/>
  <outline>
    <contour>
      <point x="91" y="570" type="curve" smooth="yes"/>
      <point x="40" y="570"/>
      <point x="0" y="610"/>
      <point x="0" y="659" type="curve" smooth="yes"/>
      <point x="0" y="708"/>
      <point x="40" y="748"/>
      <point x="91" y="748" type="curve" smooth="yes"/>
      <point x="142" y="748"/>
      <point x="183" y="708"/>
      <point x="183" y="659" type="curve" smooth="yes"/>
      <point x="183" y="610"/>
      <point x="142" y="570"/>
    </contour>
    <contour>
      <point x="308" y="570" type="curve" smooth="yes"/>
      <point x="257" y="570"/>
      <point x="218" y="610"/>
      <point x="218" y="659" type="curve" smooth="yes"/>
      <point x="218" y="708"/>
      <point x="257" y="748"/>
      <point x="308" y="748" type="curve" smooth="yes"/>
      <point x="360" y="748"/>
      <point x="400" y="708"/>
      <point x="400" y="659" type="curve" smooth="yes"/>
      <point x="400" y="610"/>
      <point x="360" y="570"/>
    </contour>
  </outline>
</glyph>
<glyph name="copyright" format="2">
  <advance width="842"/>
  <unicode hex="00A9"/>
  <outline>
    <contour>
      <point x="429" y="150" type="curve" smooth="yes"/>
      <point x="283" y="150"/>
      <point x="214" y="231"/>
      <point x="214" y="354" type="curve" smooth="yes"/>
      <point x="214" y="362" type="line" smooth="yes"/>
      <point x="214" y="486"/>
      <point x="304" y="565"/>
      <point x="424" y="565" type="curve" smooth="yes"/>
      <point x="533" y="565"/>
      <point x="607" y="516"/>
      <point x="616" y="405" type="curve"/>
      <point x="479" y="405" type="line"/>
      <point x="475" y="439"/>
      <point x="457" y="459"/>
      <point x="424" y="459" type="curve" smooth="yes"/>
      <point x="381" y="459"/>
      <point x="354" y="427"/>
      <point x="354" y="362" type="curve" smooth="yes"/>
      <point x="354" y="355" type="line" smooth="yes"/>
      <point x="354" y="291"/>
      <point x="379" y="257"/>
      <point x="426" y="257" type="curve" smooth="yes"/>
      <point x="460" y="257"/>
      <point x="485" y="274"/>
      <point x="489" y="313" type="curve"/>
      <point x="621" y="313" type="line"/>
      <point x="616" y="207"/>
      <point x="537" y="150"/>
    </contour>
    <contour>
      <point x="420" y="31" type="curve" smooth="yes"/>
      <point x="598" y="31"/>
      <point x="743" y="163"/>
      <point x="743" y="359" type="curve" smooth="yes"/>
      <point x="743" y="552"/>
      <point x="602" y="684"/>
      <point x="422" y="684" type="curve" smooth="yes"/>
      <point x="240" y="684"/>
      <point x="99" y="551"/>
      <point x="99" y="357" type="curve" smooth="yes"/>
      <point x="99" y="161"/>
      <point x="245" y="31"/>
    </contour>
    <contour>
      <point x="420" y="-21" type="curve" smooth="yes"/>
      <point x="206" y="-21"/>
      <point x="34" y="142"/>
      <point x="34" y="357" type="curve" smooth="yes"/>
      <point x="34" y="569"/>
      <point x="205" y="736"/>
      <point x="422" y="736" type="curve" smooth="yes"/>
      <point x="642" y="736"/>
      <point x="809" y="570"/>
      <point x="809" y="359" type="curve" smooth="yes"/>
      <point x="809" y="143"/>
      <point x="637" y="-21"/>
    </contour>
  </outline>
</glyph>
<glyph name="ordfeminine" format="2">
  <advance width="495"/>
  <unicode hex="00AA"/>
  <outline>
    <contour>
      <point x="168" y="287" type="curve" smooth="yes"/>
      <point x="94" y="287"/>
      <point x="27" y="323"/>
      <point x="27" y="412" type="curve" smooth="yes"/>
      <point x="27" y="510"/>
      <point x="99" y="545"/>
      <point x="247" y="545" type="curve" smooth="yes"/>
      <point x="284" y="545" type="line"/>
      <point x="284" y="558" type="line" smooth="yes"/>
      <point x="284" y="586"/>
      <point x="277" y="606"/>
      <point x="244" y="606" type="curve" smooth="yes"/>
      <point x="214" y="606"/>
      <point x="204" y="584"/>
      <point x="201" y="566" type="curve"/>
      <point x="41" y="566" type="line"/>
      <point x="47" y="667"/>
      <point x="126" y="723"/>
      <point x="253" y="723" type="curve" smooth="yes"/>
      <point x="382" y="723"/>
      <point x="454" y="671"/>
      <point x="454" y="563" type="curve" smooth="yes"/>
      <point x="454" y="298" type="line"/>
      <point x="288" y="298" type="line"/>
      <point x="288" y="345" type="line"/>
      <point x="273" y="318"/>
      <point x="237" y="287"/>
    </contour>
    <contour>
      <point x="233" y="401" type="curve" smooth="yes"/>
      <point x="263" y="401"/>
      <point x="284" y="418"/>
      <point x="284" y="443" type="curve" smooth="yes"/>
      <point x="284" y="461" type="line"/>
      <point x="253" y="461" type="line" smooth="yes"/>
      <point x="211" y="461"/>
      <point x="196" y="451"/>
      <point x="196" y="429" type="curve" smooth="yes"/>
      <point x="196" y="410"/>
      <point x="209" y="401"/>
    </contour>
  </outline>
</glyph>
<glyph name="guillemotleft" format="2">
  <advance width="477"/>
  <unicode hex="00AB"/>
  <outline>
    <contour>
      <point x="149" y="67" type="line"/>
      <point x="25" y="261" type="line"/>
      <point x="149" y="455" type="line"/>
      <point x="270" y="455" type="line"/>
      <point x="151" y="261" type="line"/>
      <point x="270" y="67" type="line"/>
    </contour>
    <contour>
      <point x="330" y="67" type="line"/>
      <point x="206" y="261" type="line"/>
      <point x="330" y="455" type="line"/>
      <point x="451" y="455" type="line"/>
      <point x="332" y="261" type="line"/>
      <point x="451" y="67" type="line"/>
    </contour>
  </outline>
</glyph>
<glyph name="registered" format="2">
  <advance width="517"/>
  <unicode hex="00AE"/>
  <outline>
    <contour>
      <point x="172" y="396" type="line"/>
      <point x="172" y="615" type="line"/>
      <point x="263" y="615" type="line" smooth="yes"/>
      <point x="325" y="615"/>
      <point x="356" y="590"/>
      <point x="356" y="543" type="curve" smooth="yes"/>
      <point x="356" y="542" type="line" smooth="yes"/>
      <point x="356" y="512"/>
      <point x="342" y="495"/>
      <point x="321" y="484" type="curve"/>
      <point x="369" y="396" type="line"/>
      <point x="293" y="396" type="line"/>
      <point x="255" y="469" type="line"/>
      <point x="245" y="469" type="line"/>
      <point x="245" y="396" type="line"/>
    </contour>
    <contour>
      <point x="245" y="516" type="line"/>
      <point x="259" y="516" type="line" smooth="yes"/>
      <point x="277" y="516"/>
      <point x="285" y="523"/>
      <point x="285" y="538" type="curve" smooth="yes"/>
      <point x="285" y="539" type="line" smooth="yes"/>
      <point x="285" y="554"/>
      <point x="276" y="559"/>
      <point x="259" y="559" type="curve" smooth="yes"/>
      <point x="245" y="559" type="line"/>
    </contour>
    <contour>
      <point x="259" y="320" type="curve" smooth="yes"/>
      <point x="364" y="320"/>
      <point x="444" y="395"/>
      <point x="444" y="503" type="curve" smooth="yes"/>
      <point x="444" y="611"/>
      <point x="367" y="686"/>
      <point x="259" y="686" type="curve" smooth="yes"/>
      <point x="150" y="686"/>
      <point x="73" y="610"/>
      <point x="73" y="502" type="curve" smooth="yes"/>
      <point x="73" y="393"/>
      <point x="154" y="320"/>
    </contour>
    <contour>
      <point x="259" y="280" type="curve" smooth="yes"/>
      <point x="131" y="280"/>
      <point x="28" y="376"/>
      <point x="28" y="502" type="curve" smooth="yes"/>
      <point x="28" y="626"/>
      <point x="130" y="726"/>
      <point x="259" y="726" type="curve" smooth="yes"/>
      <point x="389" y="726"/>
      <point x="489" y="627"/>
      <point x="489" y="503" type="curve" smooth="yes"/>
      <point x="489" y="377"/>
      <point x="387" y="280"/>
    </contour>
  </outline>
</glyph>
<glyph name="macron" format="2">
  <advance width="400"/>
  <unicode hex="00AF"/>
  <outline>
    <contour>
      <point x="42" y="605" type="line"/>
      <point x="42" y="712" type="line"/>
      <point x="358" y="712" type="line"/>
      <point x="358" y="605" type="line"/>
    </contour>
  </outline>
</glyph>
<glyph name="degree" format="2">
  <advance width="457"/>
  <unicode hex="00B0"/>
  <outline>
    <contour>
      <point x="230" y="448" type="curve" smooth="yes"/>
      <point x="283" y="448"/>
      <point x="320" y="492"/>
      <point x="320" y="549" type="curve" smooth="yes"/>
      <point x="320" y="608"/>
      <point x="283" y="652"/>
      <point x="230" y="652" type="curve" smooth="yes"/>
      <point x="175" y="652"/>
      <point x="137" y="608"/>
      <point x="137" y="549" type="curve" smooth="yes"/>
      <point x="137" y="492"/>
      <point x="175" y="448"/>
    </contour>
    <contour>
      <point x="230" y="376" type="curve" smooth="yes"/>
      <point x="130" y="376"/>
      <point x="50" y="455"/>
      <point x="50" y="549" type="curve" smooth="yes"/>
      <point x="50" y="645"/>
      <point x="130" y="724"/>
      <point x="230" y="724" type="curve" smooth="yes"/>
      <point x="327" y="724"/>
      <point x="407" y="645"/>
      <point x="407" y="549" type="curve" smooth="yes"/>
      <point x="407" y="455"/>
      <point x="327" y="376"/>
    </contour>
  </outline>
</glyph>
<glyph name="plusminus" format="2">
  <advance width="579"/>
  <unicode hex="00B1"/>
  <outline>
    <contour>
      <point x="211" y="182" type="line"/>
      <point x="211" y="343" type="line"/>
      <point x="38" y="343" type="line"/>
      <point x="38" y="485" type="line"/>
      <point x="211" y="485" type="line"/>
      <point x="211" y="647" type="line"/>
      <point x="368" y="647" type="line"/>
      <point x="368" y="485" type="line"/>
      <point x="542" y="485" type="line"/>
      <point x="542" y="343" type="line"/>
      <point x="368" y="343" type="line"/>
      <point x="368" y="182" type="line"/>
    </contour>
    <contour>
      <point x="38" y="0" type="line"/>
      <point x="38" y="126" type="line"/>
      <point x="545" y="126" type="line"/>
      <point x="545" y="0" type="line"/>
    </contour>
  </outline>
</glyph>
<glyph name="twosuperior" format="2">
  <advance width="366"/>
  <unicode hex="00B2"/>
  <outline>
    <contour>
      <point x="4" y="333" type="line"/>
      <point x="4" y="351" type="line"/>
      <point x="133" y="483" type="line" smooth="yes"/>
      <point x="176" y="527"/>
      <point x="203" y="557"/>
      <point x="203" y="586" type="curve" smooth="yes"/>
      <point x="203" y="604"/>
      <point x="195" y="616"/>
      <point x="175" y="616" type="curve" smooth="yes"/>
      <point x="155" y="616"/>
      <point x="143" y="600"/>
      <point x="139" y="565" type="curve"/>
      <point x="8" y="565" type="line"/>
      <point x="11" y="668"/>
      <point x="78" y="721"/>
      <point x="183" y="721" type="curve" smooth="yes"/>
      <point x="294" y="721"/>
      <point x="344" y="666"/>
      <point x="344" y="597" type="curve" smooth="yes"/>
      <point x="344" y="544"/>
      <point x="311" y="505"/>
      <point x="266" y="462" type="curve" smooth="yes"/>
      <point x="238" y="436" type="line"/>
      <point x="346" y="436" type="line"/>
      <point x="346" y="333" type="line"/>
    </contour>
  </outline>
</glyph>
<glyph name="acute" format="2">
  <advance width="400"/>
  <unicode hex="00B4"/>
  <outline>
    <contour>
      <point x="123" y="578" type="line"/>
      <point x="175" y="747" type="line"/>
      <point x="368" y="747" type="line"/>
      <point x="264" y="578" type="line"/>
    </contour>
  </outline>
</glyph>
<glyph name="paragraph" format="2">
  <advance width="544"/>
  <unicode hex="00B6"/>
  <outline>
    <contour>
      <point x="253" y="-100" type="line"/>
      <point x="253" y="326" type="line"/>
      <point x="246" y="326" type="line" smooth="yes"/>
      <point x="112" y="326"/>
      <point x="25" y="389"/>
      <point x="25" y="517" type="curve" smooth="yes"/>
      <point x="25" y="651"/>
      <point x="116" y="715"/>
      <point x="246" y="715" type="curve" smooth="yes"/>
      <point x="478" y="715" type="line"/>
      <point x="478" y="-100" type="line"/>
      <point x="402" y="-100" type="line"/>
      <point x="402" y="650" type="line"/>
      <point x="328" y="650" type="line"/>
      <point x="328" y="-100" type="line"/>
    </contour>
  </outline>
</glyph>
<glyph name="periodcentered" format="2">
  <advance width="302"/>
  <unicode hex="00B7"/>
  <outline>
    <contour>
      <point x="150" y="219" type="curve" smooth="yes"/>
      <point x="87" y="219"/>
      <point x="40" y="266"/>
      <point x="40" y="326" type="curve" smooth="yes"/>
      <point x="40" y="386"/>
      <point x="87" y="434"/>
      <point x="150" y="434" type="curve" smooth="yes"/>
      <point x="214" y="434"/>
      <point x="262" y="386"/>
      <point x="262" y="326" type="curve" smooth="yes"/>
      <point x="262" y="266"/>
      <point x="214" y="219"/>
    </contour>
  </outline>
</glyph>
<glyph name="cedilla" format="2">
  <advance width="400"/>
  <unicode hex="00B8"/>
  <outline>
    <contour>
      <point x="203" y="-228" type="curve" smooth="yes"/>
      <point x="128" y="-228"/>
      <point x="81" y="-195"/>
      <point x="71" y="-134" type="curve"/>
      <point x="161" y="-134" type="line"/>
      <point x="164" y="-147"/>
      <point x="174" y="-160"/>
      <point x="196" y="-160" type="curve" smooth="yes"/>
      <point x="215" y="-160"/>
      <point x="226" y="-148"/>
      <point x="226" y="-131" type="curve" smooth="yes"/>
      <point x="226" y="-114"/>
      <point x="215" y="-101"/>
      <point x="193" y="-101" type="curve" smooth="yes"/>
      <point x="177" y="-101"/>
      <point x="167" y="-106"/>
      <point x="161" y="-113" type="curve"/>
      <point x="121" y="-72" type="line"/>
      <point x="169" y="0" type="line"/>
      <point x="245" y="0" type="line"/>
      <point x="214" y="-44" type="line"/>
      <point x="274" y="-38"/>
      <point x="328" y="-65"/>
      <point x="328" y="-131" type="curve" smooth="yes"/>
      <point x="328" y="-192"/>
      <point x="279" y="-228"/>
    </contour>
  </outline>
</glyph>
<glyph name="ordmasculine" format="2">
  <advance width="527"/>
  <unicode hex="00BA"/>
  <outline>
    <contour>
      <point x="264" y="413" type="curve" smooth="yes"/>
      <point x="307" y="413"/>
      <point x="324" y="443"/>
      <point x="324" y="503" type="curve" smooth="yes"/>
      <point x="324" y="509" type="line" smooth="yes"/>
      <point x="324" y="567"/>
      <point x="306" y="598"/>
      <point x="264" y="598" type="curve" smooth="yes"/>
      <point x="224" y="598"/>
      <point x="203" y="570"/>
      <point x="203" y="511" type="curve" smooth="yes"/>
      <point x="203" y="505" type="line" smooth="yes"/>
      <point x="203" y="443"/>
      <point x="222" y="413"/>
    </contour>
    <contour>
      <point x="263" y="287" type="curve" smooth="yes"/>
      <point x="132" y="287"/>
      <point x="28" y="360"/>
      <point x="28" y="498" type="curve" smooth="yes"/>
      <point x="28" y="504" type="line" smooth="yes"/>
      <point x="28" y="642"/>
      <point x="132" y="723"/>
      <point x="264" y="723" type="curve" smooth="yes"/>
      <point x="396" y="723"/>
      <point x="499" y="645"/>
      <point x="499" y="510" type="curve" smooth="yes"/>
      <point x="499" y="504" type="line" smooth="yes"/>
      <point x="499" y="366"/>
      <point x="394" y="287"/>
    </contour>
  </outline>
</glyph>
<glyph name="guillemotright" format="2">
  <advance width="477"/>
  <unicode hex="00BB"/>
  <outline>
    <contour>
      <point x="26" y="67" type="line"/>
      <point x="145" y="261" type="line"/>
      <point x="26" y="455" type="line"/>
      <point x="147" y="455" type="line"/>
      <point x="271" y="261" type="line"/>
      <point x="147" y="67" type="line"/>
    </contour>
    <contour>
      <point x="206" y="67" type="line"/>
      <point x="325" y="261" type="line"/>
      <point x="206" y="455" type="line"/>
      <point x="327" y="455" type="line"/>
      <point x="451" y="261" type="line"/>
      <point x="327" y="67" type="line"/>
    </contour>
  </outline>
</glyph>
<glyph name="onequarter" format="2">
  <advance width="817"/>
  <unicode hex="00BC"/>
  <outline>
    <contour>
      <point x="105" y="333" type="line"/>
      <point x="105" y="576" type="line"/>
      <point x="22" y="531" type="line"/>
      <point x="22" y="647" type="line"/>
      <point x="126" y="715" type="line"/>
      <point x="250" y="715" type="line"/>
      <point x="250" y="333" type="line"/>
    </contour>
    <contour>
      <point x="68" y="0" type="line"/>
      <point x="638" y="715" type="line"/>
      <point x="737" y="715" type="line"/>
      <point x="168" y="0" type="line"/>
    </contour>
    <contour>
      <point x="606" y="0" type="line"/>
      <point x="606" y="70" type="line"/>
      <point x="416" y="70" type="line"/>
      <point x="416" y="123" type="line"/>
      <point x="573" y="382" type="line"/>
      <point x="745" y="382" type="line"/>
      <point x="745" y="164" type="line"/>
      <point x="793" y="164" type="line"/>
      <point x="793" y="70" type="line"/>
      <point x="745" y="70" type="line"/>
      <point x="745" y="0" type="line"/>
    </contour>
    <contour>
      <point x="538" y="164" type="line"/>
      <point x="610" y="164" type="line"/>
      <point x="610" y="288" type="line"/>
    </contour>
  </outline>
</glyph>
<glyph name="onehalf" format="2">
  <advance width="831"/>
  <unicode hex="00BD"/>
  <outline>
    <contour>
      <point x="55" y="0" type="line"/>
      <point x="625" y="715" type="line"/>
      <point x="724" y="715" type="line"/>
      <point x="155" y="0" type="line"/>
    </contour>
    <contour>
      <point x="105" y="333" type="line"/>
      <point x="105" y="576" type="line"/>
      <point x="22" y="531" type="line"/>
      <point x="22" y="647" type="line"/>
      <point x="126" y="715" type="line"/>
      <point x="250" y="715" type="line"/>
      <point x="250" y="333" type="line"/>
    </contour>
    <contour>
      <point x="465" y="0" type="line"/>
      <point x="465" y="18" type="line"/>
      <point x="594" y="150" type="line" smooth="yes"/>
      <point x="637" y="194"/>
      <point x="664" y="224"/>
      <point x="664" y="253" type="curve" smooth="yes"/>
      <point x="664" y="271"/>
      <point x="656" y="282"/>
      <point x="636" y="282" type="curve" smooth="yes"/>
      <point x="616" y="282"/>
      <point x="604" y="266"/>
      <point x="600" y="232" type="curve"/>
      <point x="469" y="232" type="line"/>
      <point x="472" y="335"/>
      <point x="539" y="387"/>
      <point x="644" y="387" type="curve" smooth="yes"/>
      <point x="755" y="387"/>
      <point x="805" y="333"/>
      <point x="805" y="264" type="curve" smooth="yes"/>
      <point x="805" y="211"/>
      <point x="772" y="171"/>
      <point x="727" y="129" type="curve" smooth="yes"/>
      <point x="699" y="102" type="line"/>
      <point x="807" y="102" type="line"/>
      <point x="807" y="0" type="line"/>
    </contour>
  </outline>
</glyph>
<glyph name="threequarters" format="2">
  <advance width="852"/>
  <unicode hex="00BE"/>
  <outline>
    <contour>
      <point x="196" y="326" type="curve" smooth="yes"/>
      <point x="70" y="326"/>
      <point x="24" y="384"/>
      <point x="20" y="463" type="curve"/>
      <point x="147" y="463" type="line"/>
      <point x="149" y="442"/>
      <point x="161" y="425"/>
      <point x="187" y="425" type="curve" smooth="yes"/>
      <point x="209" y="425"/>
      <point x="221" y="437"/>
      <point x="221" y="456" type="curve" smooth="yes"/>
      <point x="221" y="475"/>
      <point x="209" y="485"/>
      <point x="180" y="485" type="curve" smooth="yes"/>
      <point x="149" y="485" type="line"/>
      <point x="149" y="564" type="line"/>
      <point x="180" y="564" type="line" smooth="yes"/>
      <point x="210" y="564"/>
      <point x="223" y="575"/>
      <point x="223" y="595" type="curve" smooth="yes"/>
      <point x="223" y="612"/>
      <point x="213" y="622"/>
      <point x="192" y="622" type="curve" smooth="yes"/>
      <point x="172" y="622"/>
      <point x="158" y="610"/>
      <point x="154" y="587" type="curve"/>
      <point x="28" y="587" type="line"/>
      <point x="34" y="664"/>
      <point x="88" y="721"/>
      <point x="196" y="721" type="curve" smooth="yes"/>
      <point x="298" y="721"/>
      <point x="358" y="682"/>
      <point x="358" y="614" type="curve" smooth="yes"/>
      <point x="358" y="571"/>
      <point x="333" y="543"/>
      <point x="289" y="532" type="curve"/>
      <point x="334" y="525"/>
      <point x="366" y="494"/>
      <point x="366" y="450" type="curve" smooth="yes"/>
      <point x="366" y="377"/>
      <point x="311" y="326"/>
    </contour>
    <contour>
      <point x="118" y="0" type="line"/>
      <point x="688" y="715" type="line"/>
      <point x="787" y="715" type="line"/>
      <point x="218" y="0" type="line"/>
    </contour>
    <contour>
      <point x="640" y="0" type="line"/>
      <point x="640" y="70" type="line"/>
      <point x="450" y="70" type="line"/>
      <point x="450" y="123" type="line"/>
      <point x="607" y="382" type="line"/>
      <point x="779" y="382" type="line"/>
      <point x="779" y="164" type="line"/>
      <point x="827" y="164" type="line"/>
      <point x="827" y="70" type="line"/>
      <point x="779" y="70" type="line"/>
      <point x="779" y="0" type="line"/>
    </contour>
    <contour>
      <point x="572" y="164" type="line"/>
      <point x="644" y="164" type="line"/>
      <point x="644" y="288" type="line"/>
    </contour>
  </outline>
</glyph>
<glyph name="questiondown" format="2">
  <advance width="569"/>
  <unicode hex="00BF"/>
  <outline>
    <contour>
      <point x="401" y="358" type="line"/>
      <point x="401" y="344" type="line" smooth="yes"/>
      <point x="401" y="269"/>
      <point x="350" y="221"/>
      <point x="305" y="178" type="curve" smooth="yes"/>
      <point x="271" y="147"/>
      <point x="241" y="118"/>
      <point x="241" y="85" type="curve" smooth="yes"/>
      <point x="241" y="50"/>
      <point x="257" y="33"/>
      <point x="293" y="33" type="curve" smooth="yes"/>
      <point x="331" y="33"/>
      <point x="355" y="63"/>
      <point x="362" y="113" type="curve"/>
      <point x="554" y="113" type="line"/>
      <point x="550" y="-45"/>
      <point x="437" y="-127"/>
      <point x="277" y="-127" type="curve" smooth="yes"/>
      <point x="120" y="-127"/>
      <point x="27" y="-60"/>
      <point x="27" y="66" type="curve" smooth="yes"/>
      <point x="27" y="130"/>
      <point x="56" y="174"/>
      <point x="95" y="212" type="curve" smooth="yes"/>
      <point x="145" y="262"/>
      <point x="204" y="301"/>
      <point x="215" y="348" type="curve"/>
      <point x="215" y="358" type="line"/>
    </contour>
    <contour>
      <point x="308" y="611" type="curve" smooth="yes"/>
      <point x="372" y="611"/>
      <point x="423" y="564"/>
      <point x="423" y="505" type="curve" smooth="yes"/>
      <point x="423" y="447"/>
      <point x="372" y="399"/>
      <point x="308" y="399" type="curve" smooth="yes"/>
      <point x="245" y="399"/>
      <point x="194" y="447"/>
      <point x="194" y="505" type="curve" smooth="yes"/>
      <point x="194" y="564"/>
      <point x="245" y="611"/>
    </contour>
  </outline>
</glyph>
<glyph name="Aacute" format="2">
  <advance width="760"/>
  <unicode hex="00C1"/>
  <outline>
    <contour>
      <point x="9" y="0" type="line"/>
      <point x="234" y="715" type="line"/>
      <point x="527" y="715" type="line"/>
      <point x="751" y="0" type="line"/>
      <point x="511" y="0" type="line"/>
      <point x="478" y="119" type="line"/>
      <point x="252" y="119" type="line"/>
      <point x="220" y="0" type="line"/>
    </contour>
    <contour>
      <point x="295" y="757" type="line"/>
      <point x="346" y="906" type="line"/>
      <point x="547" y="906" type="line"/>
      <point x="444" y="757" type="line"/>
    </contour>
    <contour>
      <point x="366" y="532" type="line"/>
      <point x="295" y="273" type="line"/>
      <point x="436" y="273" type="line"/>
    </contour>
  </outline>
</glyph>
<glyph name="Atilde" format="2">
  <advance width="760"/>
  <unicode hex="00C3"/>
  <outline>
    <contour>
      <point x="9" y="0" type="line"/>
      <point x="234" y="715" type="line"/>
      <point x="527" y="715" type="line"/>
      <point x="751" y="0" type="line"/>
      <point x="511" y="0" type="line"/>
      <point x="478" y="119" type="line"/>
      <point x="252" y="119" type="line"/>
      <point x="220" y="0" type="line"/>
    </contour>
    <contour>
      <point x="444" y="755" type="curve" smooth="yes"/>
      <point x="386" y="755"/>
      <point x="354" y="787"/>
      <point x="323" y="787" type="curve" smooth="yes"/>
      <point x="307" y="787"/>
      <point x="296" y="775"/>
      <point x="293" y="757" type="curve"/>
      <point x="184" y="757" type="line"/>
      <point x="191" y="868"/>
      <point x="246" y="917"/>
      <point x="310" y="917" type="curve" smooth="yes"/>
      <point x="365" y="917"/>
      <point x="400" y="885"/>
      <point x="434" y="885" type="curve" smooth="yes"/>
      <point x="451" y="885"/>
      <point x="460" y="897"/>
      <point x="463" y="915" type="curve"/>
      <point x="573" y="915" type="line"/>
      <point x="565" y="804"/>
      <point x="506" y="755"/>
    </contour>
    <contour>
      <point x="366" y="532" type="line"/>
      <point x="295" y="273" type="line"/>
      <point x="436" y="273" type="line"/>
    </contour>
  </outline>
</glyph>
<glyph name="Adieresis" format="2">
  <advance width="760"/>
  <unicode hex="00C4"/>
  <outline>
    <contour>
      <point x="9" y="0" type="line"/>
      <point x="234" y="715" type="line"/>
      <point x="527" y="715" type="line"/>
      <point x="751" y="0" type="line"/>
      <point x="511" y="0" type="line"/>
      <point x="478" y="119" type="line"/>
      <point x="252" y="119" type="line"/>
      <point x="220" y="0" type="line"/>
    </contour>
    <contour>
      <point x="264" y="752" type="curve" smooth="yes"/>
      <point x="213" y="752"/>
      <point x="173" y="792"/>
      <point x="173" y="841" type="curve" smooth="yes"/>
      <point x="173" y="891"/>
      <point x="213" y="930"/>
      <point x="264" y="930" type="curve" smooth="yes"/>
      <point x="315" y="930"/>
      <point x="356" y="891"/>
      <point x="356" y="841" type="curve" smooth="yes"/>
      <point x="356" y="792"/>
      <point x="315" y="752"/>
    </contour>
    <contour>
      <point x="491" y="752" type="curve" smooth="yes"/>
      <point x="440" y="752"/>
      <point x="400" y="792"/>
      <point x="400" y="841" type="curve" smooth="yes"/>
      <point x="400" y="891"/>
      <point x="440" y="930"/>
      <point x="491" y="930" type="curve" smooth="yes"/>
      <point x="542" y="930"/>
      <point x="583" y="891"/>
      <point x="583" y="841" type="curve" smooth="yes"/>
      <point x="583" y="792"/>
      <point x="542" y="752"/>
    </contour>
    <contour>
      <point x="366" y="532" type="line"/>
      <point x="295" y="273" type="line"/>
      <point x="436" y="273" type="line"/>
    </contour>
  </outline>
</glyph>
<glyph name="Aring" format="2">
  <advance width="760"/>
  <unicode hex="00C5"/>
  <outline>
    <contour>
      <point x="9" y="0" type="line"/>
      <point x="234" y="715" type="line"/>
      <point x="527" y="715" type="line"/>
      <point x="751" y="0" type="line"/>
      <point x="511" y="0" type="line"/>
      <point x="478" y="119" type="line"/>
      <point x="252" y="119" type="line"/>
      <point x="220" y="0" type="line"/>
    </contour>
    <contour>
      <point x="378" y="742" type="curve" smooth="yes"/>
      <point x="311" y="742"/>
      <point x="256" y="795"/>
      <point x="256" y="860" type="curve" smooth="yes"/>
      <point x="256" y="925"/>
      <point x="311" y="978"/>
      <point x="378" y="978" type="curve" smooth="yes"/>
      <point x="445" y="978"/>
      <point x="500" y="925"/>
      <point x="500" y="860" type="curve" smooth="yes"/>
      <point x="500" y="795"/>
      <point x="445" y="742"/>
    </contour>
    <contour>
      <point x="366" y="532" type="line"/>
      <point x="295" y="273" type="line"/>
      <point x="436" y="273" type="line"/>
    </contour>
    <contour>
      <point x="378" y="810" type="curve" smooth="yes"/>
      <point x="404" y="810"/>
      <point x="423" y="831"/>
      <point x="423" y="860" type="curve" smooth="yes"/>
      <point x="423" y="889"/>
      <point x="404" y="909"/>
      <point x="378" y="909" type="curve" smooth="yes"/>
      <point x="351" y="909"/>
      <point x="333" y="889"/>
      <point x="333" y="860" type="curve" smooth="yes"/>
      <point x="333" y="831"/>
      <point x="351" y="810"/>
    </contour>
  </outline>
</glyph>
<glyph name="Ccedilla" format="2">
  <advance width="764"/>
  <unicode hex="00C7"/>
  <outline>
    <contour>
      <point x="379" y="-228" type="curve" smooth="yes"/>
      <point x="304" y="-228"/>
      <point x="257" y="-195"/>
      <point x="247" y="-134" type="curve"/>
      <point x="337" y="-134" type="line"/>
      <point x="340" y="-147"/>
      <point x="350" y="-160"/>
      <point x="372" y="-160" type="curve" smooth="yes"/>
      <point x="391" y="-160"/>
      <point x="402" y="-148"/>
      <point x="402" y="-131" type="curve" smooth="yes"/>
      <point x="402" y="-114"/>
      <point x="391" y="-101"/>
      <point x="369" y="-101" type="curve" smooth="yes"/>
      <point x="353" y="-101"/>
      <point x="343" y="-106"/>
      <point x="337" y="-113" type="curve"/>
      <point x="297" y="-72" type="line"/>
      <point x="339" y="-9" type="line"/>
      <point x="128" y="15"/>
      <point x="28" y="154"/>
      <point x="28" y="353" type="curve" smooth="yes"/>
      <point x="28" y="361" type="line" smooth="yes"/>
      <point x="28" y="582"/>
      <point x="187" y="726"/>
      <point x="398" y="726" type="curve" smooth="yes"/>
      <point x="591" y="726"/>
      <point x="721" y="638"/>
      <point x="738" y="444" type="curve"/>
      <point x="504" y="444" type="line"/>
      <point x="497" y="510"/>
      <point x="462" y="547"/>
      <point x="399" y="547" type="curve" smooth="yes"/>
      <point x="317" y="547"/>
      <point x="267" y="483"/>
      <point x="267" y="362" type="curve" smooth="yes"/>
      <point x="267" y="354" type="line" smooth="yes"/>
      <point x="267" y="235"/>
      <point x="315" y="169"/>
      <point x="403" y="169" type="curve" smooth="yes"/>
      <point x="467" y="169"/>
      <point x="513" y="202"/>
      <point x="521" y="274" type="curve"/>
      <point x="747" y="274" type="line"/>
      <point x="735" y="87"/>
      <point x="599" y="-11"/>
      <point x="412" y="-13" type="curve"/>
      <point x="390" y="-44" type="line"/>
      <point x="450" y="-38"/>
      <point x="504" y="-65"/>
      <point x="504" y="-131" type="curve" smooth="yes"/>
      <point x="504" y="-192"/>
      <point x="455" y="-228"/>
    </contour>
  </outline>
</glyph>
<glyph name="Ecircumflex" format="2">
  <advance width="620"/>
  <unicode hex="00CA"/>
  <outline>
    <contour>
      <point x="132" y="757" type="line"/>
      <point x="247" y="906" type="line"/>
      <point x="411" y="906" type="line"/>
      <point x="521" y="757" type="line"/>
      <point x="379" y="757" type="line"/>
      <point x="325" y="804" type="line"/>
      <point x="271" y="757" type="line"/>
    </contour>
    <contour>
      <point x="65" y="0" type="line"/>
      <point x="65" y="715" type="line"/>
      <point x="573" y="715" type="line"/>
      <point x="573" y="541" type="line"/>
      <point x="291" y="541" type="line"/>
      <point x="291" y="440" type="line"/>
      <point x="515" y="440" type="line"/>
      <point x="515" y="281" type="line"/>
      <point x="291" y="281" type="line"/>
      <point x="291" y="174" type="line"/>
      <point x="589" y="174" type="line"/>
      <point x="589" y="0" type="line"/>
    </contour>
  </outline>
</glyph>
<glyph name="Edieresis" format="2">
  <advance width="620"/>
  <unicode hex="00CB"/>
  <outline>
    <contour>
      <point x="65" y="0" type="line"/>
      <point x="65" y="715" type="line"/>
      <point x="573" y="715" type="line"/>
      <point x="573" y="541" type="line"/>
      <point x="291" y="541" type="line"/>
      <point x="291" y="440" type="line"/>
      <point x="515" y="440" type="line"/>
      <point x="515" y="281" type="line"/>
      <point x="291" y="281" type="line"/>
      <point x="291" y="174" type="line"/>
      <point x="589" y="174" type="line"/>
      <point x="589" y="0" type="line"/>
    </contour>
    <contour>
      <point x="213" y="752" type="curve" smooth="yes"/>
      <point x="162" y="752"/>
      <point x="122" y="792"/>
      <point x="122" y="841" type="curve" smooth="yes"/>
      <point x="122" y="891"/>
      <point x="162" y="930"/>
      <point x="213" y="930" type="curve" smooth="yes"/>
      <point x="264" y="930"/>
      <point x="305" y="891"/>
      <point x="305" y="841" type="curve" smooth="yes"/>
      <point x="305" y="792"/>
      <point x="264" y="752"/>
    </contour>
    <contour>
      <point x="440" y="752" type="curve" smooth="yes"/>
      <point x="389" y="752"/>
      <point x="349" y="792"/>
      <point x="349" y="841" type="curve" smooth="yes"/>
      <point x="349" y="891"/>
      <point x="389" y="930"/>
      <point x="440" y="930" type="curve" smooth="yes"/>
      <point x="491" y="930"/>
      <point x="532" y="891"/>
      <point x="532" y="841" type="curve" smooth="yes"/>
      <point x="532" y="792"/>
      <point x="491" y="752"/>
    </contour>
  </outline>
</glyph>
<glyph name="Icircumflex" format="2">
  <advance width="366"/>
  <unicode hex="00CE"/>
  <outline>
    <contour>
      <point x="68" y="0" type="line"/>
      <point x="68" y="715" type="line"/>
      <point x="297" y="715" type="line"/>
      <point x="297" y="0" type="line"/>
    </contour>
    <contour>
      <point x="-12" y="757" type="line"/>
      <point x="103" y="906" type="line"/>
      <point x="267" y="906" type="line"/>
      <point x="377" y="757" type="line"/>
      <point x="235" y="757" type="line"/>
      <point x="181" y="804" type="line"/>
      <point x="127" y="757" type="line"/>
    </contour>
  </outline>
</glyph>
<glyph name="Idieresis" format="2">
  <advance width="366"/>
  <unicode hex="00CF"/>
  <outline>
    <contour>
      <point x="68" y="0" type="line"/>
      <point x="68" y="715" type="line"/>
      <point x="297" y="715" type="line"/>
      <point x="297" y="0" type="line"/>
    </contour>
    <contour>
      <point x="69" y="752" type="curve" smooth="yes"/>
      <point x="18" y="752"/>
      <point x="-22" y="792"/>
      <point x="-22" y="841" type="curve" smooth="yes"/>
      <point x="-22" y="891"/>
      <point x="18" y="930"/>
      <point x="69" y="930" type="curve" smooth="yes"/>
      <point x="120" y="930"/>
      <point x="161" y="891"/>
      <point x="161" y="841" type="curve" smooth="yes"/>
      <point x="161" y="792"/>
      <point x="120" y="752"/>
    </contour>
    <contour>
      <point x="296" y="752" type="curve" smooth="yes"/>
      <point x="245" y="752"/>
      <point x="205" y="792"/>
      <point x="205" y="841" type="curve" smooth="yes"/>
      <point x="205" y="891"/>
      <point x="245" y="930"/>
      <point x="296" y="930" type="curve" smooth="yes"/>
      <point x="347" y="930"/>
      <point x="388" y="891"/>
      <point x="388" y="841" type="curve" smooth="yes"/>
      <point x="388" y="792"/>
      <point x="347" y="752"/>
    </contour>
  </outline>
</glyph>
<glyph name="Ntilde" format="2">
  <advance width="787"/>
  <unicode hex="00D1"/>
  <outline>
    <contour>
      <point x="479" y="755" type="curve" smooth="yes"/>
      <point x="421" y="755"/>
      <point x="389" y="787"/>
      <point x="358" y="787" type="curve" smooth="yes"/>
      <point x="342" y="787"/>
      <point x="331" y="775"/>
      <point x="328" y="757" type="curve"/>
      <point x="219" y="757" type="line"/>
      <point x="226" y="868"/>
      <point x="281" y="917"/>
      <point x="345" y="917" type="curve" smooth="yes"/>
      <point x="400" y="917"/>
      <point x="435" y="885"/>
      <point x="469" y="885" type="curve" smooth="yes"/>
      <point x="486" y="885"/>
      <point x="495" y="897"/>
      <point x="498" y="915" type="curve"/>
      <point x="608" y="915" type="line"/>
      <point x="600" y="804"/>
      <point x="541" y="755"/>
    </contour>
    <contour>
      <point x="65" y="0" type="line"/>
      <point x="65" y="715" type="line"/>
      <point x="319" y="715" type="line"/>
      <point x="522" y="337" type="line"/>
      <point x="522" y="715" type="line"/>
      <point x="721" y="715" type="line"/>
      <point x="721" y="0" type="line"/>
      <point x="504" y="0" type="line"/>
      <point x="265" y="428" type="line"/>
      <point x="265" y="0" type="line"/>
    </contour>
  </outline>
</glyph>
<glyph name="Otilde" format="2">
  <advance width="820"/>
  <unicode hex="00D5"/>
  <outline>
    <contour>
      <point x="475" y="755" type="curve" smooth="yes"/>
      <point x="417" y="755"/>
      <point x="385" y="787"/>
      <point x="354" y="787" type="curve" smooth="yes"/>
      <point x="338" y="787"/>
      <point x="327" y="775"/>
      <point x="324" y="757" type="curve"/>
      <point x="215" y="757" type="line"/>
      <point x="222" y="868"/>
      <point x="277" y="917"/>
      <point x="341" y="917" type="curve" smooth="yes"/>
      <point x="396" y="917"/>
      <point x="431" y="885"/>
      <point x="465" y="885" type="curve" smooth="yes"/>
      <point x="482" y="885"/>
      <point x="491" y="897"/>
      <point x="494" y="915" type="curve"/>
      <point x="604" y="915" type="line"/>
      <point x="596" y="804"/>
      <point x="537" y="755"/>
    </contour>
    <contour>
      <point x="411" y="165" type="curve" smooth="yes"/>
      <point x="500" y="165"/>
      <point x="557" y="235"/>
      <point x="557" y="354" type="curve" smooth="yes"/>
      <point x="557" y="362" type="line" smooth="yes"/>
      <point x="557" y="483"/>
      <point x="499" y="549"/>
      <point x="409" y="549" type="curve" smooth="yes"/>
      <point x="321" y="549"/>
      <point x="264" y="484"/>
      <point x="264" y="362" type="curve" smooth="yes"/>
      <point x="264" y="354" type="line" smooth="yes"/>
      <point x="264" y="232"/>
      <point x="321" y="165"/>
    </contour>
    <contour>
      <point x="405" y="-13" type="curve" smooth="yes"/>
      <point x="171" y="-13"/>
      <point x="27" y="136"/>
      <point x="27" y="353" type="curve" smooth="yes"/>
      <point x="27" y="361" type="line" smooth="yes"/>
      <point x="27" y="582"/>
      <point x="195" y="726"/>
      <point x="409" y="726" type="curve" smooth="yes"/>
      <point x="629" y="726"/>
      <point x="793" y="593"/>
      <point x="793" y="367" type="curve" smooth="yes"/>
      <point x="793" y="359" type="line" smooth="yes"/>
      <point x="793" y="136"/>
      <point x="640" y="-13"/>
    </contour>
  </outline>
</glyph>
<glyph name="Odieresis" format="2">
  <advance width="820"/>
  <unicode hex="00D6"/>
  <outline>
    <contour>
      <point x="295" y="752" type="curve" smooth="yes"/>
      <point x="244" y="752"/>
      <point x="204" y="792"/>
      <point x="204" y="841" type="curve" smooth="yes"/>
      <point x="204" y="891"/>
      <point x="244" y="930"/>
      <point x="295" y="930" type="curve" smooth="yes"/>
      <point x="346" y="930"/>
      <point x="387" y="891"/>
      <point x="387" y="841" type="curve" smooth="yes"/>
      <point x="387" y="792"/>
      <point x="346" y="752"/>
    </contour>
    <contour>
      <point x="522" y="752" type="curve" smooth="yes"/>
      <point x="471" y="752"/>
      <point x="431" y="792"/>
      <point x="431" y="841" type="curve" smooth="yes"/>
      <point x="431" y="891"/>
      <point x="471" y="930"/>
      <point x="522" y="930" type="curve" smooth="yes"/>
      <point x="573" y="930"/>
      <point x="614" y="891"/>
      <point x="614" y="841" type="curve" smooth="yes"/>
      <point x="614" y="792"/>
      <point x="573" y="752"/>
    </contour>
    <contour>
      <point x="411" y="165" type="curve" smooth="yes"/>
      <point x="500" y="165"/>
      <point x="557" y="235"/>
      <point x="557" y="354" type="curve" smooth="yes"/>
      <point x="557" y="362" type="line" smooth="yes"/>
      <point x="557" y="483"/>
      <point x="499" y="549"/>
      <point x="409" y="549" type="curve" smooth="yes"/>
      <point x="321" y="549"/>
      <point x="264" y="484"/>
      <point x="264" y="362" type="curve" smooth="yes"/>
      <point x="264" y="354" type="line" smooth="yes"/>
      <point x="264" y="232"/>
      <point x="321" y="165"/>
    </contour>
    <contour>
      <point x="405" y="-13" type="curve" smooth="yes"/>
      <point x="171" y="-13"/>
      <point x="27" y="136"/>
      <point x="27" y="353" type="curve" smooth="yes"/>
      <point x="27" y="361" type="line" smooth="yes"/>
      <point x="27" y="582"/>
      <point x="195" y="726"/>
      <point x="409" y="726" type="curve" smooth="yes"/>
      <point x="629" y="726"/>
      <point x="793" y="593"/>
      <point x="793" y="367" type="curve" smooth="yes"/>
      <point x="793" y="359" type="line" smooth="yes"/>
      <point x="793" y="136"/>
      <point x="640" y="-13"/>
    </contour>
  </outline>
</glyph>
<glyph name="multiply" format="2">
  <advance width="589"/>
  <unicode hex="00D7"/>
  <outline>
    <contour>
      <point x="142" y="83" type="line"/>
      <point x="40" y="185" type="line"/>
      <point x="192" y="337" type="line"/>
      <point x="37" y="491" type="line"/>
      <point x="140" y="595" type="line"/>
      <point x="294" y="439" type="line"/>
      <point x="447" y="591" type="line"/>
      <point x="549" y="489" type="line"/>
      <point x="397" y="337" type="line"/>
      <point x="552" y="183" type="line"/>
      <point x="448" y="79" type="line"/>
      <point x="294" y="235" type="line"/>
    </contour>
  </outline>
</glyph>
<glyph name="Oslash" format="2">
  <advance width="820"/>
  <unicode hex="00D8"/>
  <outline>
    <contour>
      <point x="91" y="-33" type="line"/>
      <point x="34" y="23" type="line"/>
      <point x="112" y="105" type="line"/>
      <point x="57" y="168"/>
      <point x="27" y="254"/>
      <point x="27" y="353" type="curve" smooth="yes"/>
      <point x="27" y="361" type="line" smooth="yes"/>
      <point x="27" y="582"/>
      <point x="195" y="725"/>
      <point x="409" y="725" type="curve" smooth="yes"/>
      <point x="497" y="725"/>
      <point x="576" y="703"/>
      <point x="640" y="663" type="curve"/>
      <point x="713" y="741" type="line"/>
      <point x="770" y="685" type="line"/>
      <point x="702" y="613" type="line"/>
      <point x="760" y="553"/>
      <point x="794" y="470"/>
      <point x="794" y="367" type="curve" smooth="yes"/>
      <point x="794" y="359" type="line" smooth="yes"/>
      <point x="794" y="136"/>
      <point x="641" y="-13"/>
      <point x="405" y="-13" type="curve" smooth="yes"/>
      <point x="312" y="-13"/>
      <point x="233" y="10"/>
      <point x="172" y="52" type="curve"/>
    </contour>
    <contour>
      <point x="410" y="165" type="curve" smooth="yes"/>
      <point x="502" y="165"/>
      <point x="559" y="235"/>
      <point x="559" y="355" type="curve" smooth="yes"/>
      <point x="559" y="363" type="line" smooth="yes"/>
      <point x="559" y="396"/>
      <point x="555" y="424"/>
      <point x="547" y="449" type="curve"/>
      <point x="312" y="201" type="line"/>
      <point x="337" y="177"/>
      <point x="370" y="165"/>
    </contour>
    <contour>
      <point x="261" y="354" type="line" smooth="yes"/>
      <point x="261" y="323"/>
      <point x="264" y="296"/>
      <point x="271" y="273" type="curve"/>
      <point x="502" y="518" type="line"/>
      <point x="477" y="538"/>
      <point x="446" y="549"/>
      <point x="409" y="549" type="curve" smooth="yes"/>
      <point x="319" y="549"/>
      <point x="261" y="485"/>
      <point x="261" y="362" type="curve" smooth="yes"/>
    </contour>
  </outline>
</glyph>
<glyph name="Udieresis" format="2">
  <advance width="776"/>
  <unicode hex="00DC"/>
  <outline>
    <contour>
      <point x="388" y="-13" type="curve" smooth="yes"/>
      <point x="179" y="-13"/>
      <point x="61" y="91"/>
      <point x="61" y="295" type="curve" smooth="yes"/>
      <point x="61" y="715" type="line"/>
      <point x="287" y="715" type="line"/>
      <point x="287" y="304" type="line" smooth="yes"/>
      <point x="287" y="211"/>
      <point x="307" y="165"/>
      <point x="388" y="165" type="curve" smooth="yes"/>
      <point x="468" y="165"/>
      <point x="488" y="211"/>
      <point x="488" y="305" type="curve" smooth="yes"/>
      <point x="488" y="715" type="line"/>
      <point x="716" y="715" type="line"/>
      <point x="716" y="297" type="line" smooth="yes"/>
      <point x="716" y="82"/>
      <point x="588" y="-13"/>
    </contour>
    <contour>
      <point x="272" y="752" type="curve" smooth="yes"/>
      <point x="221" y="752"/>
      <point x="181" y="792"/>
      <point x="181" y="841" type="curve" smooth="yes"/>
      <point x="181" y="891"/>
      <point x="221" y="930"/>
      <point x="272" y="930" type="curve" smooth="yes"/>
      <point x="323" y="930"/>
      <point x="364" y="891"/>
      <point x="364" y="841" type="curve" smooth="yes"/>
      <point x="364" y="792"/>
      <point x="323" y="752"/>
    </contour>
    <contour>
      <point x="499" y="752" type="curve" smooth="yes"/>
      <point x="448" y="752"/>
      <point x="408" y="792"/>
      <point x="408" y="841" type="curve" smooth="yes"/>
      <point x="408" y="891"/>
      <point x="448" y="930"/>
      <point x="499" y="930" type="curve" smooth="yes"/>
      <point x="550" y="930"/>
      <point x="591" y="891"/>
      <point x="591" y="841" type="curve" smooth="yes"/>
      <point x="591" y="792"/>
      <point x="550" y="752"/>
    </contour>
  </outline>
</glyph>
<glyph name="Thorn" format="2">
  <advance width="664"/>
  <unicode hex="00DE"/>
  <outline>
    <contour>
      <point x="65" y="0" type="line"/>
      <point x="65" y="715" type="line"/>
      <point x="291" y="715" type="line"/>
      <point x="291" y="601" type="line"/>
      <point x="350" y="601" type="line" smooth="yes"/>
      <point x="556" y="601"/>
      <point x="644" y="522"/>
      <point x="644" y="367" type="curve" smooth="yes"/>
      <point x="644" y="363" type="line" smooth="yes"/>
      <point x="644" y="214"/>
      <point x="545" y="130"/>
      <point x="360" y="130" type="curve" smooth="yes"/>
      <point x="291" y="130" type="line"/>
      <point x="291" y="0" type="line"/>
    </contour>
    <contour>
      <point x="291" y="282" type="line"/>
      <point x="338" y="282" type="line" smooth="yes"/>
      <point x="398" y="282"/>
      <point x="429" y="309"/>
      <point x="429" y="362" type="curve" smooth="yes"/>
      <point x="429" y="366" type="line" smooth="yes"/>
      <point x="429" y="420"/>
      <point x="398" y="442"/>
      <point x="339" y="442" type="curve" smooth="yes"/>
      <point x="291" y="442" type="line"/>
    </contour>
  </outline>
</glyph>
<glyph name="germandbls" format="2">
  <advance width="644"/>
  <unicode hex="00DF"/>
  <outline>
    <contour>
      <point x="389" y="-10" type="curve" smooth="yes"/>
      <point x="345" y="-10"/>
      <point x="312" y="-5"/>
      <point x="292" y="0" type="curve"/>
      <point x="292" y="147" type="line"/>
      <point x="303" y="143"/>
      <point x="317" y="139"/>
      <point x="335" y="139" type="curve" smooth="yes"/>
      <point x="383" y="139"/>
      <point x="424" y="164"/>
      <point x="424" y="249" type="curve" smooth="yes"/>
      <point x="424" y="255" type="line" smooth="yes"/>
      <point x="424" y="348"/>
      <point x="370" y="368"/>
      <point x="296" y="368" type="curve"/>
      <point x="296" y="505" type="line"/>
      <point x="354" y="506"/>
      <point x="381" y="540"/>
      <point x="381" y="576" type="curve" smooth="yes"/>
      <point x="381" y="578" type="line" smooth="yes"/>
      <point x="381" y="618"/>
      <point x="358" y="643"/>
      <point x="315" y="643" type="curve" smooth="yes"/>
      <point x="271" y="643"/>
      <point x="244" y="612"/>
      <point x="244" y="557" type="curve" smooth="yes"/>
      <point x="244" y="0" type="line"/>
      <point x="47" y="0" type="line"/>
      <point x="47" y="540" type="line" smooth="yes"/>
      <point x="47" y="707"/>
      <point x="175" y="770"/>
      <point x="327" y="770" type="curve" smooth="yes"/>
      <point x="475" y="770"/>
      <point x="567" y="710"/>
      <point x="567" y="587" type="curve" smooth="yes"/>
      <point x="567" y="585" type="line" smooth="yes"/>
      <point x="567" y="515"/>
      <point x="516" y="466"/>
      <point x="449" y="446" type="curve"/>
      <point x="541" y="426"/>
      <point x="624" y="362"/>
      <point x="624" y="241" type="curve" smooth="yes"/>
      <point x="624" y="234" type="line" smooth="yes"/>
      <point x="624" y="73"/>
      <point x="527" y="-10"/>
    </contour>
  </outline>
</glyph>
<glyph name="agrave" format="2">
  <advance width="585"/>
  <unicode hex="00E0"/>
  <outline>
    <contour>
      <point x="198" y="-13" type="curve" smooth="yes"/>
      <point x="104" y="-13"/>
      <point x="20" y="33"/>
      <point x="20" y="145" type="curve" smooth="yes"/>
      <point x="20" y="268"/>
      <point x="120" y="316"/>
      <point x="301" y="316" type="curve" smooth="yes"/>
      <point x="346" y="316" type="line"/>
      <point x="346" y="325" type="line" smooth="yes"/>
      <point x="346" y="369"/>
      <point x="338" y="401"/>
      <point x="285" y="401" type="curve" smooth="yes"/>
      <point x="240" y="401"/>
      <point x="226" y="372"/>
      <point x="223" y="345" type="curve"/>
      <point x="39" y="345" type="line"/>
      <point x="47" y="473"/>
      <point x="147" y="538"/>
      <point x="297" y="538" type="curve" smooth="yes"/>
      <point x="449" y="538"/>
      <point x="541" y="476"/>
      <point x="541" y="338" type="curve" smooth="yes"/>
      <point x="541" y="0" type="line"/>
      <point x="351" y="0" type="line"/>
      <point x="351" y="60" type="line"/>
      <point x="329" y="24"/>
      <point x="283" y="-13"/>
    </contour>
    <contour>
      <point x="269" y="119" type="curve" smooth="yes"/>
      <point x="314" y="119"/>
      <point x="346" y="144"/>
      <point x="346" y="183" type="curve" smooth="yes"/>
      <point x="346" y="210" type="line"/>
      <point x="304" y="210" type="line" smooth="yes"/>
      <point x="238" y="210"/>
      <point x="214" y="197"/>
      <point x="214" y="160" type="curve" smooth="yes"/>
      <point x="214" y="135"/>
      <point x="233" y="119"/>
    </contour>
    <contour>
      <point x="229" y="578" type="line"/>
      <point x="125" y="747" type="line"/>
      <point x="318" y="747" type="line"/>
      <point x="370" y="578" type="line"/>
    </contour>
  </outline>
</glyph>
<glyph name="adieresis" format="2">
  <advance width="585"/>
  <unicode hex="00E4"/>
  <outline>
    <contour>
      <point x="198" y="-13" type="curve" smooth="yes"/>
      <point x="104" y="-13"/>
      <point x="20" y="33"/>
      <point x="20" y="145" type="curve" smooth="yes"/>
      <point x="20" y="268"/>
      <point x="120" y="316"/>
      <point x="301" y="316" type="curve" smooth="yes"/>
      <point x="346" y="316" type="line"/>
      <point x="346" y="325" type="line" smooth="yes"/>
      <point x="346" y="369"/>
      <point x="338" y="401"/>
      <point x="285" y="401" type="curve" smooth="yes"/>
      <point x="240" y="401"/>
      <point x="226" y="372"/>
      <point x="223" y="345" type="curve"/>
      <point x="39" y="345" type="line"/>
      <point x="47" y="473"/>
      <point x="147" y="538"/>
      <point x="297" y="538" type="curve" smooth="yes"/>
      <point x="449" y="538"/>
      <point x="541" y="476"/>
      <point x="541" y="338" type="curve" smooth="yes"/>
      <point x="541" y="0" type="line"/>
      <point x="351" y="0" type="line"/>
      <point x="351" y="60" type="line"/>
      <point x="329" y="24"/>
      <point x="283" y="-13"/>
    </contour>
    <contour>
      <point x="269" y="119" type="curve" smooth="yes"/>
      <point x="314" y="119"/>
      <point x="346" y="144"/>
      <point x="346" y="183" type="curve" smooth="yes"/>
      <point x="346" y="210" type="line"/>
      <point x="304" y="210" type="line" smooth="yes"/>
      <point x="238" y="210"/>
      <point x="214" y="197"/>
      <point x="214" y="160" type="curve" smooth="yes"/>
      <point x="214" y="135"/>
      <point x="233" y="119"/>
    </contour>
    <contour>
      <point x="186" y="570" type="curve" smooth="yes"/>
      <point x="135" y="570"/>
      <point x="95" y="610"/>
      <point x="95" y="659" type="curve" smooth="yes"/>
      <point x="95" y="708"/>
      <point x="135" y="748"/>
      <point x="186" y="748" type="curve" smooth="yes"/>
      <point x="237" y="748"/>
      <point x="278" y="708"/>
      <point x="278" y="659" type="curve" smooth="yes"/>
      <point x="278" y="610"/>
      <point x="237" y="570"/>
    </contour>
    <contour>
      <point x="403" y="570" type="curve" smooth="yes"/>
      <point x="352" y="570"/>
      <point x="313" y="610"/>
      <point x="313" y="659" type="curve" smooth="yes"/>
      <point x="313" y="708"/>
      <point x="352" y="748"/>
      <point x="403" y="748" type="curve" smooth="yes"/>
      <point x="455" y="748"/>
      <point x="495" y="708"/>
      <point x="495" y="659" type="curve" smooth="yes"/>
      <point x="495" y="610"/>
      <point x="455" y="570"/>
    </contour>
  </outline>
</glyph>
<glyph name="ccedilla" format="2">
  <advance width="586"/>
  <unicode hex="00E7"/>
  <outline>
    <contour>
      <point x="280" y="-228" type="curve" smooth="yes"/>
      <point x="205" y="-228"/>
      <point x="158" y="-195"/>
      <point x="148" y="-134" type="curve"/>
      <point x="238" y="-134" type="line"/>
      <point x="241" y="-147"/>
      <point x="251" y="-160"/>
      <point x="273" y="-160" type="curve" smooth="yes"/>
      <point x="292" y="-160"/>
      <point x="303" y="-148"/>
      <point x="303" y="-131" type="curve" smooth="yes"/>
      <point x="303" y="-114"/>
      <point x="292" y="-101"/>
      <point x="270" y="-101" type="curve" smooth="yes"/>
      <point x="254" y="-101"/>
      <point x="244" y="-106"/>
      <point x="238" y="-113" type="curve"/>
      <point x="198" y="-72" type="line"/>
      <point x="240" y="-8" type="line"/>
      <point x="113" y="11"/>
      <point x="22" y="99"/>
      <point x="22" y="254" type="curve" smooth="yes"/>
      <point x="22" y="262" type="line" smooth="yes"/>
      <point x="22" y="440"/>
      <point x="148" y="537"/>
      <point x="305" y="537" type="curve" smooth="yes"/>
      <point x="436" y="537"/>
      <point x="557" y="481"/>
      <point x="567" y="317" type="curve"/>
      <point x="382" y="317" type="line"/>
      <point x="376" y="359"/>
      <point x="358" y="386"/>
      <point x="310" y="386" type="curve" smooth="yes"/>
      <point x="252" y="386"/>
      <point x="222" y="346"/>
      <point x="222" y="266" type="curve" smooth="yes"/>
      <point x="222" y="258" type="line" smooth="yes"/>
      <point x="222" y="173"/>
      <point x="250" y="130"/>
      <point x="313" y="130" type="curve" smooth="yes"/>
      <point x="358" y="130"/>
      <point x="388" y="158"/>
      <point x="393" y="209" type="curve"/>
      <point x="570" y="209" type="line"/>
      <point x="565" y="77"/>
      <point x="480" y="-9"/>
      <point x="313" y="-13" type="curve"/>
      <point x="291" y="-44" type="line"/>
      <point x="351" y="-38"/>
      <point x="405" y="-65"/>
      <point x="405" y="-131" type="curve" smooth="yes"/>
      <point x="405" y="-192"/>
      <point x="356" y="-228"/>
    </contour>
  </outline>
</glyph>
<glyph name="ecircumflex" format="2">
  <advance width="604"/>
  <unicode hex="00EA"/>
  <outline>
    <contour>
      <point x="114" y="580" type="line"/>
      <point x="239" y="746" type="line"/>
      <point x="377" y="746" type="line"/>
      <point x="497" y="580" type="line"/>
      <point x="360" y="580" type="line"/>
      <point x="304" y="633" type="line"/>
      <point x="248" y="580" type="line"/>
    </contour>
    <contour>
      <point x="311" y="-13" type="curve" smooth="yes"/>
      <point x="144" y="-13"/>
      <point x="21" y="82"/>
      <point x="21" y="255" type="curve" smooth="yes"/>
      <point x="21" y="263" type="line" smooth="yes"/>
      <point x="21" y="433"/>
      <point x="151" y="538"/>
      <point x="311" y="538" type="curve" smooth="yes"/>
      <point x="458" y="538"/>
      <point x="583" y="454"/>
      <point x="583" y="266" type="curve" smooth="yes"/>
      <point x="583" y="218" type="line"/>
      <point x="220" y="218" type="line"/>
      <point x="225" y="155"/>
      <point x="262" y="121"/>
      <point x="318" y="121" type="curve" smooth="yes"/>
      <point x="373" y="121"/>
      <point x="394" y="147"/>
      <point x="400" y="177" type="curve"/>
      <point x="584" y="177" type="line"/>
      <point x="568" y="57"/>
      <point x="477" y="-13"/>
    </contour>
    <contour>
      <point x="221" y="321" type="curve"/>
      <point x="393" y="321" type="line"/>
      <point x="391" y="377"/>
      <point x="364" y="411"/>
      <point x="311" y="411" type="curve" smooth="yes"/>
      <point x="263" y="411"/>
      <point x="229" y="380"/>
    </contour>
  </outline>
</glyph>
<glyph name="edieresis" format="2">
  <advance width="604"/>
  <unicode hex="00EB"/>
  <outline>
    <contour>
      <point x="197" y="570" type="curve" smooth="yes"/>
      <point x="146" y="570"/>
      <point x="106" y="610"/>
      <point x="106" y="659" type="curve" smooth="yes"/>
      <point x="106" y="708"/>
      <point x="146" y="748"/>
      <point x="197" y="748" type="curve" smooth="yes"/>
      <point x="248" y="748"/>
      <point x="289" y="708"/>
      <point x="289" y="659" type="curve" smooth="yes"/>
      <point x="289" y="610"/>
      <point x="248" y="570"/>
    </contour>
    <contour>
      <point x="414" y="570" type="curve" smooth="yes"/>
      <point x="363" y="570"/>
      <point x="324" y="610"/>
      <point x="324" y="659" type="curve" smooth="yes"/>
      <point x="324" y="708"/>
      <point x="363" y="748"/>
      <point x="414" y="748" type="curve" smooth="yes"/>
      <point x="466" y="748"/>
      <point x="506" y="708"/>
      <point x="506" y="659" type="curve" smooth="yes"/>
      <point x="506" y="610"/>
      <point x="466" y="570"/>
    </contour>
    <contour>
      <point x="311" y="-13" type="curve" smooth="yes"/>
      <point x="144" y="-13"/>
      <point x="21" y="82"/>
      <point x="21" y="255" type="curve" smooth="yes"/>
      <point x="21" y="263" type="line" smooth="yes"/>
      <point x="21" y="433"/>
      <point x="151" y="538"/>
      <point x="311" y="538" type="curve" smooth="yes"/>
      <point x="458" y="538"/>
      <point x="583" y="454"/>
      <point x="583" y="266" type="curve" smooth="yes"/>
      <point x="583" y="218" type="line"/>
      <point x="220" y="218" type="line"/>
      <point x="225" y="155"/>
      <point x="262" y="121"/>
      <point x="318" y="121" type="curve" smooth="yes"/>
      <point x="373" y="121"/>
      <point x="394" y="147"/>
      <point x="400" y="177" type="curve"/>
      <point x="584" y="177" type="line"/>
      <point x="568" y="57"/>
      <point x="477" y="-13"/>
    </contour>
    <contour>
      <point x="221" y="321" type="curve"/>
      <point x="393" y="321" type="line"/>
      <point x="391" y="377"/>
      <point x="364" y="411"/>
      <point x="311" y="411" type="curve" smooth="yes"/>
      <point x="263" y="411"/>
      <point x="229" y="380"/>
    </contour>
  </outline>
</glyph>
<glyph name="igrave" format="2">
  <advance width="303"/>
  <unicode hex="00EC"/>
  <outline>
    <contour>
      <point x="53" y="0" type="line"/>
      <point x="53" y="523" type="line"/>
      <point x="249" y="523" type="line"/>
      <point x="249" y="0" type="line"/>
    </contour>
    <contour>
      <point x="86" y="578" type="line"/>
      <point x="-18" y="747" type="line"/>
      <point x="175" y="747" type="line"/>
      <point x="227" y="578" type="line"/>
    </contour>
  </outline>
</glyph>
<glyph name="icircumflex" format="2">
  <advance width="303"/>
  <unicode hex="00EE"/>
  <outline>
    <contour>
      <point x="-40" y="580" type="line"/>
      <point x="85" y="746" type="line"/>
      <point x="223" y="746" type="line"/>
      <point x="343" y="580" type="line"/>
      <point x="206" y="580" type="line"/>
      <point x="150" y="633" type="line"/>
      <point x="94" y="580" type="line"/>
    </contour>
    <contour>
      <point x="53" y="0" type="line"/>
      <point x="53" y="523" type="line"/>
      <point x="249" y="523" type="line"/>
      <point x="249" y="0" type="line"/>
    </contour>
  </outline>
</glyph>
<glyph name="idieresis" format="2">
  <advance width="303"/>
  <unicode hex="00EF"/>
  <outline>
    <contour>
      <point x="43" y="570" type="curve" smooth="yes"/>
      <point x="-8" y="570"/>
      <point x="-48" y="610"/>
      <point x="-48" y="659" type="curve" smooth="yes"/>
      <point x="-48" y="708"/>
      <point x="-8" y="748"/>
      <point x="43" y="748" type="curve" smooth="yes"/>
      <point x="94" y="748"/>
      <point x="135" y="708"/>
      <point x="135" y="659" type="curve" smooth="yes"/>
      <point x="135" y="610"/>
      <point x="94" y="570"/>
    </contour>
    <contour>
      <point x="258" y="570" type="curve" smooth="yes"/>
      <point x="208" y="570"/>
      <point x="168" y="610"/>
      <point x="168" y="659" type="curve" smooth="yes"/>
      <point x="168" y="708"/>
      <point x="208" y="748"/>
      <point x="258" y="748" type="curve" smooth="yes"/>
      <point x="310" y="748"/>
      <point x="350" y="708"/>
      <point x="350" y="659" type="curve" smooth="yes"/>
      <point x="350" y="610"/>
      <point x="310" y="570"/>
    </contour>
    <contour>
      <point x="53" y="0" type="line"/>
      <point x="53" y="523" type="line"/>
      <point x="249" y="523" type="line"/>
      <point x="249" y="0" type="line"/>
    </contour>
  </outline>
</glyph>
<glyph name="eth" format="2">
  <advance width="627"/>
  <unicode hex="00F0"/>
  <outline>
    <contour>
      <point x="124" y="556" type="line"/>
      <point x="101" y="618" type="line"/>
      <point x="212" y="655" type="line"/>
      <point x="170" y="691"/>
      <point x="127" y="723"/>
      <point x="90" y="749" type="curve"/>
      <point x="312" y="749" type="line"/>
      <point x="331" y="738"/>
      <point x="351" y="724"/>
      <point x="372" y="709" type="curve"/>
      <point x="483" y="747" type="line"/>
      <point x="506" y="685" type="line"/>
      <point x="433" y="660" type="line"/>
      <point x="522" y="580"/>
      <point x="604" y="462"/>
      <point x="604" y="305" type="curve" smooth="yes"/>
      <point x="604" y="283" type="line" smooth="yes"/>
      <point x="604" y="99"/>
      <point x="487" y="-13"/>
      <point x="309" y="-13" type="curve" smooth="yes"/>
      <point x="146" y="-13"/>
      <point x="21" y="86"/>
      <point x="21" y="264" type="curve" smooth="yes"/>
      <point x="21" y="276" type="line" smooth="yes"/>
      <point x="21" y="440"/>
      <point x="141" y="529"/>
      <point x="252" y="529" type="curve" smooth="yes"/>
      <point x="303" y="529"/>
      <point x="328" y="515"/>
      <point x="357" y="486" type="curve"/>
      <point x="336" y="527"/>
      <point x="304" y="567"/>
      <point x="267" y="604" type="curve"/>
    </contour>
    <contour>
      <point x="314" y="132" type="curve" smooth="yes"/>
      <point x="374" y="132"/>
      <point x="404" y="177"/>
      <point x="404" y="258" type="curve" smooth="yes"/>
      <point x="404" y="266" type="line" smooth="yes"/>
      <point x="404" y="348"/>
      <point x="375" y="392"/>
      <point x="314" y="392" type="curve" smooth="yes"/>
      <point x="254" y="392"/>
      <point x="222" y="351"/>
      <point x="222" y="269" type="curve" smooth="yes"/>
      <point x="222" y="261" type="line" smooth="yes"/>
      <point x="222" y="176"/>
      <point x="251" y="132"/>
    </contour>
  </outline>
</glyph>
<glyph name="ntilde" format="2">
  <advance width="629"/>
  <unicode hex="00F1"/>
  <outline>
    <contour>
      <point x="47" y="0" type="line"/>
      <point x="47" y="523" type="line"/>
      <point x="244" y="523" type="line"/>
      <point x="244" y="439" type="line"/>
      <point x="273" y="494"/>
      <point x="329" y="537"/>
      <point x="417" y="537" type="curve" smooth="yes"/>
      <point x="516" y="537"/>
      <point x="585" y="474"/>
      <point x="585" y="344" type="curve" smooth="yes"/>
      <point x="585" y="0" type="line"/>
      <point x="388" y="0" type="line"/>
      <point x="388" y="300" type="line" smooth="yes"/>
      <point x="388" y="353"/>
      <point x="369" y="380"/>
      <point x="322" y="380" type="curve" smooth="yes"/>
      <point x="273" y="380"/>
      <point x="244" y="351"/>
      <point x="244" y="289" type="curve" smooth="yes"/>
      <point x="244" y="0" type="line"/>
    </contour>
    <contour>
      <point x="381" y="581" type="curve" smooth="yes"/>
      <point x="322" y="581"/>
      <point x="293" y="613"/>
      <point x="263" y="613" type="curve" smooth="yes"/>
      <point x="247" y="613"/>
      <point x="235" y="600"/>
      <point x="233" y="583" type="curve"/>
      <point x="129" y="583" type="line"/>
      <point x="135" y="693"/>
      <point x="183" y="745"/>
      <point x="247" y="745" type="curve" smooth="yes"/>
      <point x="302" y="745"/>
      <point x="335" y="713"/>
      <point x="368" y="713" type="curve" smooth="yes"/>
      <point x="386" y="713"/>
      <point x="395" y="725"/>
      <point x="398" y="744" type="curve"/>
      <point x="502" y="744" type="line"/>
      <point x="495" y="633"/>
      <point x="443" y="581"/>
    </contour>
  </outline>
</glyph>
<glyph name="otilde" format="2">
  <advance width="626"/>
  <unicode hex="00F5"/>
  <outline>
    <contour>
      <point x="314" y="132" type="curve" smooth="yes"/>
      <point x="374" y="132"/>
      <point x="404" y="176"/>
      <point x="404" y="259" type="curve" smooth="yes"/>
      <point x="404" y="266" type="line" smooth="yes"/>
      <point x="404" y="348"/>
      <point x="375" y="392"/>
      <point x="314" y="392" type="curve" smooth="yes"/>
      <point x="254" y="392"/>
      <point x="221" y="351"/>
      <point x="221" y="269" type="curve" smooth="yes"/>
      <point x="221" y="261" type="line" smooth="yes"/>
      <point x="221" y="176"/>
      <point x="251" y="132"/>
    </contour>
    <contour>
      <point x="313" y="-13" type="curve" smooth="yes"/>
      <point x="150" y="-13"/>
      <point x="22" y="83"/>
      <point x="22" y="255" type="curve" smooth="yes"/>
      <point x="22" y="263" type="line" smooth="yes"/>
      <point x="22" y="433"/>
      <point x="149" y="537"/>
      <point x="314" y="537" type="curve" smooth="yes"/>
      <point x="477" y="537"/>
      <point x="604" y="436"/>
      <point x="604" y="268" type="curve" smooth="yes"/>
      <point x="604" y="260" type="line" smooth="yes"/>
      <point x="604" y="88"/>
      <point x="476" y="-13"/>
    </contour>
    <contour>
      <point x="378" y="581" type="curve" smooth="yes"/>
      <point x="319" y="581"/>
      <point x="290" y="613"/>
      <point x="260" y="613" type="curve" smooth="yes"/>
      <point x="244" y="613"/>
      <point x="232" y="600"/>
      <point x="230" y="583" type="curve"/>
      <point x="126" y="583" type="line"/>
      <point x="132" y="693"/>
      <point x="180" y="745"/>
      <point x="244" y="745" type="curve" smooth="yes"/>
      <point x="299" y="745"/>
      <point x="332" y="713"/>
      <point x="365" y="713" type="curve" smooth="yes"/>
      <point x="383" y="713"/>
      <point x="392" y="725"/>
      <point x="395" y="744" type="curve"/>
      <point x="499" y="744" type="line"/>
      <point x="492" y="633"/>
      <point x="440" y="581"/>
    </contour>
  </outline>
</glyph>
<glyph name="odieresis" format="2">
  <advance width="626"/>
  <unicode hex="00F6"/>
  <outline>
    <contour>
      <point x="203" y="570" type="curve" smooth="yes"/>
      <point x="152" y="570"/>
      <point x="112" y="610"/>
      <point x="112" y="659" type="curve" smooth="yes"/>
      <point x="112" y="708"/>
      <point x="152" y="748"/>
      <point x="203" y="748" type="curve" smooth="yes"/>
      <point x="254" y="748"/>
      <point x="295" y="708"/>
      <point x="295" y="659" type="curve" smooth="yes"/>
      <point x="295" y="610"/>
      <point x="254" y="570"/>
    </contour>
    <contour>
      <point x="420" y="570" type="curve" smooth="yes"/>
      <point x="369" y="570"/>
      <point x="330" y="610"/>
      <point x="330" y="659" type="curve" smooth="yes"/>
      <point x="330" y="708"/>
      <point x="369" y="748"/>
      <point x="420" y="748" type="curve" smooth="yes"/>
      <point x="472" y="748"/>
      <point x="512" y="708"/>
      <point x="512" y="659" type="curve" smooth="yes"/>
      <point x="512" y="610"/>
      <point x="472" y="570"/>
    </contour>
    <contour>
      <point x="314" y="132" type="curve" smooth="yes"/>
      <point x="374" y="132"/>
      <point x="404" y="176"/>
      <point x="404" y="259" type="curve" smooth="yes"/>
      <point x="404" y="266" type="line" smooth="yes"/>
      <point x="404" y="348"/>
      <point x="375" y="392"/>
      <point x="314" y="392" type="curve" smooth="yes"/>
      <point x="254" y="392"/>
      <point x="221" y="351"/>
      <point x="221" y="269" type="curve" smooth="yes"/>
      <point x="221" y="261" type="line" smooth="yes"/>
      <point x="221" y="176"/>
      <point x="251" y="132"/>
    </contour>
    <contour>
      <point x="313" y="-13" type="curve" smooth="yes"/>
      <point x="150" y="-13"/>
      <point x="22" y="83"/>
      <point x="22" y="255" type="curve" smooth="yes"/>
      <point x="22" y="263" type="line" smooth="yes"/>
      <point x="22" y="433"/>
      <point x="149" y="537"/>
      <point x="314" y="537" type="curve" smooth="yes"/>
      <point x="477" y="537"/>
      <point x="604" y="436"/>
      <point x="604" y="268" type="curve" smooth="yes"/>
      <point x="604" y="260" type="line" smooth="yes"/>
      <point x="604" y="88"/>
      <point x="476" y="-13"/>
    </contour>
  </outline>
</glyph>
<glyph name="divide" format="2">
  <advance width="582"/>
  <unicode hex="00F7"/>
  <outline>
    <contour>
      <point x="291" y="34" type="curve" smooth="yes"/>
      <point x="236" y="34"/>
      <point x="191" y="77"/>
      <point x="191" y="132" type="curve" smooth="yes"/>
      <point x="191" y="186"/>
      <point x="236" y="229"/>
      <point x="291" y="229" type="curve" smooth="yes"/>
      <point x="346" y="229"/>
      <point x="391" y="186"/>
      <point x="391" y="132" type="curve" smooth="yes"/>
      <point x="391" y="77"/>
      <point x="346" y="34"/>
    </contour>
    <contour>
      <point x="38" y="273" type="line"/>
      <point x="38" y="407" type="line"/>
      <point x="545" y="407" type="line"/>
      <point x="545" y="273" type="line"/>
    </contour>
    <contour>
      <point x="291" y="450" type="curve" smooth="yes"/>
      <point x="236" y="450"/>
      <point x="191" y="493"/>
      <point x="191" y="547" type="curve" smooth="yes"/>
      <point x="191" y="602"/>
      <point x="236" y="645"/>
      <point x="291" y="645" type="curve" smooth="yes"/>
      <point x="346" y="645"/>
      <point x="391" y="602"/>
      <point x="391" y="547" type="curve" smooth="yes"/>
      <point x="391" y="493"/>
      <point x="346" y="450"/>
    </contour>
  </outline>
</glyph>
<glyph name="oslash" format="2">
  <advance width="626"/>
  <unicode hex="00F8"/>
  <outline>
    <contour>
      <point x="73" y="-39" type="line"/>
      <point x="22" y="7" type="line"/>
      <point x="86" y="75" type="line"/>
      <point x="45" y="120"/>
      <point x="21" y="180"/>
      <point x="21" y="255" type="curve" smooth="yes"/>
      <point x="21" y="263" type="line" smooth="yes"/>
      <point x="21" y="433"/>
      <point x="149" y="538"/>
      <point x="314" y="538" type="curve" smooth="yes"/>
      <point x="376" y="538"/>
      <point x="434" y="523"/>
      <point x="481" y="495" type="curve"/>
      <point x="546" y="564" type="line"/>
      <point x="596" y="518" type="line"/>
      <point x="534" y="452" type="line"/>
      <point x="578" y="407"/>
      <point x="604" y="344"/>
      <point x="604" y="268" type="curve" smooth="yes"/>
      <point x="604" y="260" type="line" smooth="yes"/>
      <point x="604" y="88"/>
      <point x="476" y="-13"/>
      <point x="313" y="-13" type="curve" smooth="yes"/>
      <point x="248" y="-13"/>
      <point x="188" y="2"/>
      <point x="140" y="32" type="curve"/>
    </contour>
    <contour>
      <point x="314" y="131" type="curve" smooth="yes"/>
      <point x="376" y="131"/>
      <point x="407" y="176"/>
      <point x="407" y="258" type="curve" smooth="yes"/>
      <point x="407" y="266" type="line" smooth="yes"/>
      <point x="407" y="283"/>
      <point x="405" y="298"/>
      <point x="403" y="312" type="curve"/>
      <point x="253" y="152" type="line"/>
      <point x="268" y="138"/>
      <point x="288" y="131"/>
    </contour>
    <contour>
      <point x="219" y="261" type="line" smooth="yes"/>
      <point x="219" y="246"/>
      <point x="220" y="232"/>
      <point x="222" y="219" type="curve"/>
      <point x="369" y="376" type="line"/>
      <point x="354" y="387"/>
      <point x="336" y="393"/>
      <point x="314" y="393" type="curve" smooth="yes"/>
      <point x="252" y="393"/>
      <point x="219" y="352"/>
      <point x="219" y="269" type="curve" smooth="yes"/>
    </contour>
  </outline>
</glyph>
<glyph name="ucircumflex" format="2">
  <advance width="628"/>
  <unicode hex="00FB"/>
  <outline>
    <contour>
      <point x="120" y="580" type="line"/>
      <point x="245" y="746" type="line"/>
      <point x="383" y="746" type="line"/>
      <point x="503" y="580" type="line"/>
      <point x="366" y="580" type="line"/>
      <point x="310" y="633" type="line"/>
      <point x="254" y="580" type="line"/>
    </contour>
    <contour>
      <point x="218" y="-13" type="curve" smooth="yes"/>
      <point x="118" y="-13"/>
      <point x="43" y="50"/>
      <point x="43" y="180" type="curve" smooth="yes"/>
      <point x="43" y="523" type="line"/>
      <point x="240" y="523" type="line"/>
      <point x="240" y="214" type="line" smooth="yes"/>
      <point x="240" y="161"/>
      <point x="260" y="134"/>
      <point x="306" y="134" type="curve" smooth="yes"/>
      <point x="355" y="134"/>
      <point x="384" y="163"/>
      <point x="384" y="225" type="curve" smooth="yes"/>
      <point x="384" y="523" type="line"/>
      <point x="581" y="523" type="line"/>
      <point x="581" y="0" type="line"/>
      <point x="384" y="0" type="line"/>
      <point x="384" y="81" type="line"/>
      <point x="355" y="25"/>
      <point x="306" y="-13"/>
    </contour>
  </outline>
</glyph>
<glyph name="udieresis" format="2">
  <advance width="628"/>
  <unicode hex="00FC"/>
  <outline>
    <contour>
      <point x="203" y="570" type="curve" smooth="yes"/>
      <point x="152" y="570"/>
      <point x="112" y="610"/>
      <point x="112" y="659" type="curve" smooth="yes"/>
      <point x="112" y="708"/>
      <point x="152" y="748"/>
      <point x="203" y="748" type="curve" smooth="yes"/>
      <point x="254" y="748"/>
      <point x="295" y="708"/>
      <point x="295" y="659" type="curve" smooth="yes"/>
      <point x="295" y="610"/>
      <point x="254" y="570"/>
    </contour>
    <contour>
      <point x="420" y="570" type="curve" smooth="yes"/>
      <point x="369" y="570"/>
      <point x="330" y="610"/>
      <point x="330" y="659" type="curve" smooth="yes"/>
      <point x="330" y="708"/>
      <point x="369" y="748"/>
      <point x="420" y="748" type="curve" smooth="yes"/>
      <point x="472" y="748"/>
      <point x="512" y="708"/>
      <point x="512" y="659" type="curve" smooth="yes"/>
      <point x="512" y="610"/>
      <point x="472" y="570"/>
    </contour>
    <contour>
      <point x="218" y="-13" type="curve" smooth="yes"/>
      <point x="118" y="-13"/>
      <point x="43" y="50"/>
      <point x="43" y="180" type="curve" smooth="yes"/>
      <point x="43" y="523" type="line"/>
      <point x="240" y="523" type="line"/>
      <point x="240" y="214" type="line" smooth="yes"/>
      <point x="240" y="161"/>
      <point x="260" y="134"/>
      <point x="306" y="134" type="curve" smooth="yes"/>
      <point x="355" y="134"/>
      <point x="384" y="163"/>
      <point x="384" y="225" type="curve" smooth="yes"/>
      <point x="384" y="523" type="line"/>
      <point x="581" y="523" type="line"/>
      <point x="581" y="0" type="line"/>
      <point x="384" y="0" type="line"/>
      <point x="384" y="81" type="line"/>
      <point x="355" y="25"/>
      <point x="306" y="-13"/>
    </contour>
  </outline>
</glyph>
<glyph name="yacute" format="2">
  <advance width="600"/>
  <unicode hex="00FD"/>
  <outline>
    <contour>
      <point x="129" y="-174" type="line"/>
      <point x="214" y="52" type="line"/>
      <point x="5" y="523" type="line"/>
      <point x="218" y="523" type="line"/>
      <point x="317" y="262" type="line"/>
      <point x="409" y="523" type="line"/>
      <point x="595" y="523" type="line"/>
      <point x="316" y="-174" type="line"/>
    </contour>
    <contour>
      <point x="236" y="578" type="line"/>
      <point x="288" y="747" type="line"/>
      <point x="481" y="747" type="line"/>
      <point x="377" y="578" type="line"/>
    </contour>
  </outline>
</glyph>
<glyph name="ydieresis" format="2">
  <advance width="600"/>
  <unicode hex="00FF"/>
  <outline>
    <contour>
      <point x="129" y="-174" type="line"/>
      <point x="214" y="52" type="line"/>
      <point x="5" y="523" type="line"/>
      <point x="218" y="523" type="line"/>
      <point x="317" y="262" type="line"/>
      <point x="409" y="523" type="line"/>
      <point x="595" y="523" type="line"/>
      <point x="316" y="-174" type="line"/>
    </contour>
    <contour>
      <point x="202" y="570" type="curve" smooth="yes"/>
      <point x="151" y="570"/>
      <point x="111" y="610"/>
      <point x="111" y="659" type="curve" smooth="yes"/>
      <point x="111" y="708"/>
      <point x="151" y="748"/>
      <point x="202" y="748" type="curve" smooth="yes"/>
      <point x="253" y="748"/>
      <point x="294" y="708"/>
      <point x="294" y="659" type="curve" smooth="yes"/>
      <point x="294" y="610"/>
      <point x="253" y="570"/>
    </contour>
    <contour>
      <point x="419" y="570" type="curve" smooth="yes"/>
      <point x="368" y="570"/>
      <point x="329" y="610"/>
      <point x="329" y="659" type="curve" smooth="yes"/>
      <point x="329" y="708"/>
      <point x="368" y="748"/>
      <point x="419" y="748" type="curve" smooth="yes"/>
      <point x="471" y="748"/>
      <point x="511" y="708"/>
      <point x="511" y="659" type="curve" smooth="yes"/>
      <point x="511" y="610"/>
      <point x="471" y="570"/>
    </contour>
  </outline>
</glyph>
<glyph name="Amacron" format="2">
  <advance width="760"/>
  <unicode hex="0100"/>
  <outline>
    <contour>
      <point x="9" y="0" type="line"/>
      <point x="234" y="715" type="line"/>
      <point x="527" y="715" type="line"/>
      <point x="751" y="0" type="line"/>
      <point x="511" y="0" type="line"/>
      <point x="478" y="119" type="line"/>
      <point x="252" y="119" type="line"/>
      <point x="220" y="0" type="line"/>
    </contour>
    <contour>
      <point x="211" y="769" type="line"/>
      <point x="211" y="884" type="line"/>
      <point x="544" y="884" type="line"/>
      <point x="544" y="769" type="line"/>
    </contour>
    <contour>
      <point x="366" y="532" type="line"/>
      <point x="295" y="273" type="line"/>
      <point x="436" y="273" type="line"/>
    </contour>
  </outline>
</glyph>
<glyph name="Abreve" format="2">
  <advance width="760"/>
  <unicode hex="0102"/>
  <outline>
    <contour>
      <point x="9" y="0" type="line"/>
      <point x="234" y="715" type="line"/>
      <point x="527" y="715" type="line"/>
      <point x="751" y="0" type="line"/>
      <point x="511" y="0" type="line"/>
      <point x="478" y="119" type="line"/>
      <point x="252" y="119" type="line"/>
      <point x="220" y="0" type="line"/>
    </contour>
    <contour>
      <point x="378" y="749" type="curve" smooth="yes"/>
      <point x="274" y="749"/>
      <point x="213" y="807"/>
      <point x="207" y="906" type="curve"/>
      <point x="331" y="906" type="line"/>
      <point x="333" y="880"/>
      <point x="350" y="864"/>
      <point x="378" y="864" type="curve" smooth="yes"/>
      <point x="404" y="864"/>
      <point x="422" y="881"/>
      <point x="425" y="906" type="curve"/>
      <point x="549" y="906" type="line"/>
      <point x="542" y="807"/>
      <point x="477" y="749"/>
    </contour>
    <contour>
      <point x="366" y="532" type="line"/>
      <point x="295" y="273" type="line"/>
      <point x="436" y="273" type="line"/>
    </contour>
  </outline>
</glyph>
<glyph name="Aogonek" format="2">
  <advance width="760"/>
  <unicode hex="0104"/>
  <outline>
    <contour>
      <point x="646" y="-182" type="curve" smooth="yes"/>
      <point x="566" y="-182"/>
      <point x="518" y="-150"/>
      <point x="518" y="-100" type="curve" smooth="yes"/>
      <point x="518" y="-51"/>
      <point x="564" y="-21"/>
      <point x="605" y="0" type="curve"/>
      <point x="511" y="0" type="line"/>
      <point x="478" y="119" type="line"/>
      <point x="252" y="119" type="line"/>
      <point x="220" y="0" type="line"/>
      <point x="9" y="0" type="line"/>
      <point x="234" y="715" type="line"/>
      <point x="527" y="715" type="line"/>
      <point x="746" y="15" type="line"/>
      <point x="708" y="-6"/>
      <point x="687" y="-36"/>
      <point x="687" y="-55" type="curve" smooth="yes"/>
      <point x="687" y="-70"/>
      <point x="697" y="-79"/>
      <point x="715" y="-79" type="curve" smooth="yes"/>
      <point x="726" y="-79"/>
      <point x="733" y="-78"/>
      <point x="740" y="-75" type="curve"/>
      <point x="740" y="-165" type="line"/>
      <point x="723" y="-174"/>
      <point x="690" y="-182"/>
    </contour>
    <contour>
      <point x="366" y="532" type="line"/>
      <point x="295" y="273" type="line"/>
      <point x="436" y="273" type="line"/>
    </contour>
  </outline>
</glyph>
<glyph name="aogonek" format="2">
  <advance width="585"/>
  <unicode hex="0105"/>
  <outline>
    <contour>
      <point x="450" y="-182" type="curve" smooth="yes"/>
      <point x="377" y="-182"/>
      <point x="331" y="-152"/>
      <point x="331" y="-101" type="curve" smooth="yes"/>
      <point x="331" y="-49"/>
      <point x="376" y="-20"/>
      <point x="419" y="0" type="curve"/>
      <point x="351" y="0" type="line"/>
      <point x="351" y="60" type="line"/>
      <point x="329" y="24"/>
      <point x="283" y="-13"/>
      <point x="198" y="-13" type="curve" smooth="yes"/>
      <point x="104" y="-13"/>
      <point x="20" y="33"/>
      <point x="20" y="145" type="curve" smooth="yes"/>
      <point x="20" y="268"/>
      <point x="120" y="316"/>
      <point x="301" y="316" type="curve" smooth="yes"/>
      <point x="346" y="316" type="line"/>
      <point x="346" y="325" type="line" smooth="yes"/>
      <point x="346" y="369"/>
      <point x="338" y="401"/>
      <point x="285" y="401" type="curve" smooth="yes"/>
      <point x="240" y="401"/>
      <point x="226" y="372"/>
      <point x="223" y="345" type="curve"/>
      <point x="39" y="345" type="line"/>
      <point x="47" y="473"/>
      <point x="147" y="538"/>
      <point x="297" y="538" type="curve" smooth="yes"/>
      <point x="449" y="538"/>
      <point x="541" y="476"/>
      <point x="541" y="338" type="curve" smooth="yes"/>
      <point x="541" y="12" type="line"/>
      <point x="503" y="-17"/>
      <point x="489" y="-39"/>
      <point x="489" y="-59" type="curve" smooth="yes"/>
      <point x="489" y="-77"/>
      <point x="500" y="-85"/>
      <point x="518" y="-85" type="curve" smooth="yes"/>
      <point x="529" y="-85"/>
      <point x="536" y="-84"/>
      <point x="544" y="-81" type="curve"/>
      <point x="544" y="-165" type="line"/>
      <point x="526" y="-174"/>
      <point x="497" y="-182"/>
    </contour>
    <contour>
      <point x="269" y="119" type="curve" smooth="yes"/>
      <point x="314" y="119"/>
      <point x="346" y="144"/>
      <point x="346" y="183" type="curve" smooth="yes"/>
      <point x="346" y="210" type="line"/>
      <point x="304" y="210" type="line" smooth="yes"/>
      <point x="238" y="210"/>
      <point x="214" y="197"/>
      <point x="214" y="160" type="curve" smooth="yes"/>
      <point x="214" y="135"/>
      <point x="233" y="119"/>
    </contour>
  </outline>
</glyph>
<glyph name="Cdotaccent" format="2">
  <advance width="764"/>
  <unicode hex="010A"/>
  <outline>
    <contour>
      <point x="408" y="-13" type="curve" smooth="yes"/>
      <point x="150" y="-13"/>
      <point x="28" y="134"/>
      <point x="28" y="353" type="curve" smooth="yes"/>
      <point x="28" y="361" type="line" smooth="yes"/>
      <point x="28" y="582"/>
      <point x="187" y="726"/>
      <point x="398" y="726" type="curve" smooth="yes"/>
      <point x="591" y="726"/>
      <point x="721" y="638"/>
      <point x="738" y="444" type="curve"/>
      <point x="504" y="444" type="line"/>
      <point x="497" y="510"/>
      <point x="462" y="547"/>
      <point x="399" y="547" type="curve" smooth="yes"/>
      <point x="317" y="547"/>
      <point x="267" y="483"/>
      <point x="267" y="362" type="curve" smooth="yes"/>
      <point x="267" y="354" type="line" smooth="yes"/>
      <point x="267" y="235"/>
      <point x="315" y="169"/>
      <point x="403" y="169" type="curve" smooth="yes"/>
      <point x="467" y="169"/>
      <point x="513" y="202"/>
      <point x="521" y="274" type="curve"/>
      <point x="747" y="274" type="line"/>
      <point x="735" y="86"/>
      <point x="597" y="-13"/>
    </contour>
    <contour>
      <point x="396" y="752" type="curve" smooth="yes"/>
      <point x="337" y="752"/>
      <point x="293" y="793"/>
      <point x="293" y="847" type="curve" smooth="yes"/>
      <point x="293" y="902"/>
      <point x="337" y="943"/>
      <point x="396" y="943" type="curve" smooth="yes"/>
      <point x="454" y="943"/>
      <point x="498" y="902"/>
      <point x="498" y="847" type="curve" smooth="yes"/>
      <point x="498" y="793"/>
      <point x="454" y="752"/>
    </contour>
  </outline>
</glyph>
<glyph name="Ccaron" format="2">
  <advance width="764"/>
  <unicode hex="010C"/>
  <outline>
    <contour>
      <point x="310" y="757" type="line"/>
      <point x="200" y="906" type="line"/>
      <point x="342" y="906" type="line"/>
      <point x="396" y="859" type="line"/>
      <point x="450" y="906" type="line"/>
      <point x="589" y="906" type="line"/>
      <point x="474" y="757" type="line"/>
    </contour>
    <contour>
      <point x="408" y="-13" type="curve" smooth="yes"/>
      <point x="150" y="-13"/>
      <point x="28" y="134"/>
      <point x="28" y="353" type="curve" smooth="yes"/>
      <point x="28" y="361" type="line" smooth="yes"/>
      <point x="28" y="582"/>
      <point x="187" y="726"/>
      <point x="398" y="726" type="curve" smooth="yes"/>
      <point x="591" y="726"/>
      <point x="721" y="638"/>
      <point x="738" y="444" type="curve"/>
      <point x="504" y="444" type="line"/>
      <point x="497" y="510"/>
      <point x="462" y="547"/>
      <point x="399" y="547" type="curve" smooth="yes"/>
      <point x="317" y="547"/>
      <point x="267" y="483"/>
      <point x="267" y="362" type="curve" smooth="yes"/>
      <point x="267" y="354" type="line" smooth="yes"/>
      <point x="267" y="235"/>
      <point x="315" y="169"/>
      <point x="403" y="169" type="curve" smooth="yes"/>
      <point x="467" y="169"/>
      <point x="513" y="202"/>
      <point x="521" y="274" type="curve"/>
      <point x="747" y="274" type="line"/>
      <point x="735" y="86"/>
      <point x="597" y="-13"/>
    </contour>
  </outline>
</glyph>
<glyph name="Dcroat" format="2">
  <advance width="785"/>
  <unicode hex="0110"/>
  <outline>
    <contour>
      <point x="29" y="284" type="line"/>
      <point x="29" y="435" type="line"/>
      <point x="83" y="435" type="line"/>
      <point x="83" y="715" type="line"/>
      <point x="356" y="715" type="line" smooth="yes"/>
      <point x="612" y="715"/>
      <point x="743" y="593"/>
      <point x="743" y="366" type="curve" smooth="yes"/>
      <point x="743" y="359" type="line" smooth="yes"/>
      <point x="743" y="131"/>
      <point x="609" y="0"/>
      <point x="356" y="0" type="curve" smooth="yes"/>
      <point x="83" y="0" type="line"/>
      <point x="83" y="284" type="line"/>
    </contour>
    <contour>
      <point x="306" y="174" type="line"/>
      <point x="349" y="174" type="line" smooth="yes"/>
      <point x="460" y="174"/>
      <point x="506" y="229"/>
      <point x="506" y="354" type="curve" smooth="yes"/>
      <point x="506" y="362" type="line" smooth="yes"/>
      <point x="506" y="493"/>
      <point x="457" y="541"/>
      <point x="347" y="541" type="curve" smooth="yes"/>
      <point x="306" y="541" type="line"/>
      <point x="306" y="435" type="line"/>
      <point x="410" y="435" type="line"/>
      <point x="410" y="284" type="line"/>
      <point x="306" y="284" type="line"/>
    </contour>
  </outline>
</glyph>
<glyph name="dcroat" format="2">
  <advance width="645"/>
  <unicode hex="0111"/>
  <outline>
    <contour>
      <point x="250" y="581" type="line"/>
      <point x="250" y="684" type="line"/>
      <point x="401" y="684" type="line"/>
      <point x="401" y="750" type="line"/>
      <point x="598" y="750" type="line"/>
      <point x="598" y="684" type="line"/>
      <point x="651" y="684" type="line"/>
      <point x="651" y="581" type="line"/>
      <point x="598" y="581" type="line"/>
      <point x="598" y="0" type="line"/>
      <point x="401" y="0" type="line"/>
      <point x="401" y="84" type="line"/>
      <point x="375" y="30"/>
      <point x="320" y="-13"/>
      <point x="241" y="-13" type="curve" smooth="yes"/>
      <point x="123" y="-13"/>
      <point x="23" y="72"/>
      <point x="23" y="256" type="curve" smooth="yes"/>
      <point x="23" y="264" type="line" smooth="yes"/>
      <point x="23" y="446"/>
      <point x="122" y="537"/>
      <point x="241" y="537" type="curve" smooth="yes"/>
      <point x="323" y="537"/>
      <point x="372" y="504"/>
      <point x="401" y="451" type="curve"/>
      <point x="401" y="581" type="line"/>
    </contour>
    <contour>
      <point x="314" y="137" type="curve" smooth="yes"/>
      <point x="373" y="137"/>
      <point x="406" y="179"/>
      <point x="406" y="260" type="curve" smooth="yes"/>
      <point x="406" y="268" type="line" smooth="yes"/>
      <point x="406" y="347"/>
      <point x="374" y="391"/>
      <point x="315" y="391" type="curve" smooth="yes"/>
      <point x="255" y="391"/>
      <point x="223" y="351"/>
      <point x="223" y="267" type="curve" smooth="yes"/>
      <point x="223" y="259" type="line" smooth="yes"/>
      <point x="223" y="178"/>
      <point x="256" y="137"/>
    </contour>
  </outline>
</glyph>
<glyph name="Ebreve" format="2">
  <advance width="620"/>
  <unicode hex="0114"/>
  <outline>
    <contour>
      <point x="65" y="0" type="line"/>
      <point x="65" y="715" type="line"/>
      <point x="573" y="715" type="line"/>
      <point x="573" y="541" type="line"/>
      <point x="291" y="541" type="line"/>
      <point x="291" y="440" type="line"/>
      <point x="515" y="440" type="line"/>
      <point x="515" y="281" type="line"/>
      <point x="291" y="281" type="line"/>
      <point x="291" y="174" type="line"/>
      <point x="589" y="174" type="line"/>
      <point x="589" y="0" type="line"/>
    </contour>
    <contour>
      <point x="325" y="749" type="curve" smooth="yes"/>
      <point x="221" y="749"/>
      <point x="160" y="807"/>
      <point x="154" y="906" type="curve"/>
      <point x="278" y="906" type="line"/>
      <point x="280" y="880"/>
      <point x="297" y="864"/>
      <point x="325" y="864" type="curve" smooth="yes"/>
      <point x="351" y="864"/>
      <point x="369" y="881"/>
      <point x="372" y="906" type="curve"/>
      <point x="496" y="906" type="line"/>
      <point x="489" y="807"/>
      <point x="424" y="749"/>
    </contour>
  </outline>
</glyph>
<glyph name="ebreve" format="2">
  <advance width="604"/>
  <unicode hex="0115"/>
  <outline>
    <contour>
      <point x="311" y="-13" type="curve" smooth="yes"/>
      <point x="144" y="-13"/>
      <point x="21" y="82"/>
      <point x="21" y="255" type="curve" smooth="yes"/>
      <point x="21" y="263" type="line" smooth="yes"/>
      <point x="21" y="433"/>
      <point x="151" y="538"/>
      <point x="311" y="538" type="curve" smooth="yes"/>
      <point x="458" y="538"/>
      <point x="583" y="454"/>
      <point x="583" y="266" type="curve" smooth="yes"/>
      <point x="583" y="218" type="line"/>
      <point x="220" y="218" type="line"/>
      <point x="225" y="155"/>
      <point x="262" y="121"/>
      <point x="318" y="121" type="curve" smooth="yes"/>
      <point x="373" y="121"/>
      <point x="394" y="147"/>
      <point x="400" y="177" type="curve"/>
      <point x="584" y="177" type="line"/>
      <point x="568" y="57"/>
      <point x="477" y="-13"/>
    </contour>
    <contour>
      <point x="221" y="321" type="curve"/>
      <point x="393" y="321" type="line"/>
      <point x="391" y="377"/>
      <point x="364" y="411"/>
      <point x="311" y="411" type="curve" smooth="yes"/>
      <point x="263" y="411"/>
      <point x="229" y="380"/>
    </contour>
    <contour>
      <point x="301" y="581" type="curve" smooth="yes"/>
      <point x="200" y="581"/>
      <point x="137" y="638"/>
      <point x="132" y="744" type="curve"/>
      <point x="251" y="744" type="line"/>
      <point x="253" y="716"/>
      <point x="270" y="699"/>
      <point x="301" y="699" type="curve" smooth="yes"/>
      <point x="330" y="699"/>
      <point x="349" y="716"/>
      <point x="352" y="744" type="curve"/>
      <point x="470" y="744" type="line"/>
      <point x="464" y="638"/>
      <point x="397" y="581"/>
    </contour>
  </outline>
</glyph>
<glyph name="Edotaccent" format="2">
  <advance width="620"/>
  <unicode hex="0116"/>
  <outline>
    <contour>
      <point x="327" y="752" type="curve" smooth="yes"/>
      <point x="268" y="752"/>
      <point x="224" y="793"/>
      <point x="224" y="847" type="curve" smooth="yes"/>
      <point x="224" y="902"/>
      <point x="268" y="943"/>
      <point x="327" y="943" type="curve" smooth="yes"/>
      <point x="385" y="943"/>
      <point x="429" y="902"/>
      <point x="429" y="847" type="curve" smooth="yes"/>
      <point x="429" y="793"/>
      <point x="385" y="752"/>
    </contour>
    <contour>
      <point x="65" y="0" type="line"/>
      <point x="65" y="715" type="line"/>
      <point x="573" y="715" type="line"/>
      <point x="573" y="541" type="line"/>
      <point x="291" y="541" type="line"/>
      <point x="291" y="440" type="line"/>
      <point x="515" y="440" type="line"/>
      <point x="515" y="281" type="line"/>
      <point x="291" y="281" type="line"/>
      <point x="291" y="174" type="line"/>
      <point x="589" y="174" type="line"/>
      <point x="589" y="0" type="line"/>
    </contour>
  </outline>
</glyph>
<glyph name="Eogonek" format="2">
  <advance width="620"/>
  <unicode hex="0118"/>
  <outline>
    <contour>
      <point x="470" y="-182" type="curve" smooth="yes"/>
      <point x="392" y="-182"/>
      <point x="345" y="-150"/>
      <point x="345" y="-100" type="curve" smooth="yes"/>
      <point x="345" y="-51"/>
      <point x="390" y="-21"/>
      <point x="431" y="0" type="curve"/>
      <point x="65" y="0" type="line"/>
      <point x="65" y="715" type="line"/>
      <point x="573" y="715" type="line"/>
      <point x="573" y="541" type="line"/>
      <point x="291" y="541" type="line"/>
      <point x="291" y="440" type="line"/>
      <point x="515" y="440" type="line"/>
      <point x="515" y="281" type="line"/>
      <point x="291" y="281" type="line"/>
      <point x="291" y="174" type="line"/>
      <point x="589" y="174" type="line"/>
      <point x="589" y="0" type="line"/>
      <point x="549" y="0" type="line"/>
      <point x="525" y="-21"/>
      <point x="513" y="-36"/>
      <point x="513" y="-55" type="curve" smooth="yes"/>
      <point x="513" y="-70"/>
      <point x="523" y="-79"/>
      <point x="541" y="-79" type="curve" smooth="yes"/>
      <point x="552" y="-79"/>
      <point x="559" y="-78"/>
      <point x="567" y="-75" type="curve"/>
      <point x="567" y="-165" type="line"/>
      <point x="549" y="-174"/>
      <point x="516" y="-182"/>
    </contour>
  </outline>
</glyph>
<glyph name="eogonek" format="2">
  <advance width="604"/>
  <unicode hex="0119"/>
  <outline>
    <contour>
      <point x="408" y="-182" type="curve" smooth="yes"/>
      <point x="335" y="-182"/>
      <point x="287" y="-153"/>
      <point x="287" y="-103" type="curve" smooth="yes"/>
      <point x="287" y="-61"/>
      <point x="331" y="-32"/>
      <point x="372" y="-8" type="curve"/>
      <point x="355" y="-11"/>
      <point x="329" y="-13"/>
      <point x="311" y="-13" type="curve" smooth="yes"/>
      <point x="144" y="-13"/>
      <point x="21" y="82"/>
      <point x="21" y="255" type="curve" smooth="yes"/>
      <point x="21" y="263" type="line" smooth="yes"/>
      <point x="21" y="433"/>
      <point x="151" y="538"/>
      <point x="311" y="538" type="curve" smooth="yes"/>
      <point x="458" y="538"/>
      <point x="583" y="454"/>
      <point x="583" y="266" type="curve" smooth="yes"/>
      <point x="583" y="218" type="line"/>
      <point x="220" y="218" type="line"/>
      <point x="225" y="155"/>
      <point x="262" y="121"/>
      <point x="318" y="121" type="curve" smooth="yes"/>
      <point x="373" y="121"/>
      <point x="394" y="147"/>
      <point x="400" y="177" type="curve"/>
      <point x="584" y="177" type="line"/>
      <point x="576" y="112"/>
      <point x="544" y="72"/>
      <point x="516" y="43" type="curve" smooth="yes"/>
      <point x="473" y="-1"/>
      <point x="445" y="-29"/>
      <point x="445" y="-59" type="curve" smooth="yes"/>
      <point x="445" y="-77"/>
      <point x="456" y="-85"/>
      <point x="474" y="-85" type="curve" smooth="yes"/>
      <point x="485" y="-85"/>
      <point x="492" y="-84"/>
      <point x="500" y="-81" type="curve"/>
      <point x="500" y="-165" type="line"/>
      <point x="482" y="-174"/>
      <point x="458" y="-182"/>
    </contour>
    <contour>
      <point x="221" y="321" type="curve"/>
      <point x="393" y="321" type="line"/>
      <point x="391" y="377"/>
      <point x="364" y="411"/>
      <point x="311" y="411" type="curve" smooth="yes"/>
      <point x="263" y="411"/>
      <point x="229" y="380"/>
    </contour>
  </outline>
</glyph>
<glyph name="Ecaron" format="2">
  <advance width="620"/>
  <unicode hex="011A"/>
  <outline>
    <contour>
      <point x="241" y="757" type="line"/>
      <point x="131" y="906" type="line"/>
      <point x="273" y="906" type="line"/>
      <point x="327" y="859" type="line"/>
      <point x="381" y="906" type="line"/>
      <point x="520" y="906" type="line"/>
      <point x="405" y="757" type="line"/>
    </contour>
    <contour>
      <point x="65" y="0" type="line"/>
      <point x="65" y="715" type="line"/>
      <point x="573" y="715" type="line"/>
      <point x="573" y="541" type="line"/>
      <point x="291" y="541" type="line"/>
      <point x="291" y="440" type="line"/>
      <point x="515" y="440" type="line"/>
      <point x="515" y="281" type="line"/>
      <point x="291" y="281" type="line"/>
      <point x="291" y="174" type="line"/>
      <point x="589" y="174" type="line"/>
      <point x="589" y="0" type="line"/>
    </contour>
  </outline>
</glyph>
<glyph name="Gcircumflex" format="2">
  <advance width="791"/>
  <unicode hex="011C"/>
  <outline>
    <contour>
      <point x="407" y="-13" type="curve" smooth="yes"/>
      <point x="160" y="-13"/>
      <point x="27" y="138"/>
      <point x="27" y="353" type="curve" smooth="yes"/>
      <point x="27" y="361" type="line" smooth="yes"/>
      <point x="27" y="580"/>
      <point x="190" y="726"/>
      <point x="407" y="726" type="curve" smooth="yes"/>
      <point x="581" y="726"/>
      <point x="735" y="647"/>
      <point x="747" y="456" type="curve"/>
      <point x="523" y="456" type="line"/>
      <point x="515" y="515"/>
      <point x="478" y="548"/>
      <point x="408" y="548" type="curve" smooth="yes"/>
      <point x="318" y="548"/>
      <point x="263" y="478"/>
      <point x="263" y="357" type="curve" smooth="yes"/>
      <point x="263" y="349" type="line" smooth="yes"/>
      <point x="263" y="244"/>
      <point x="298" y="159"/>
      <point x="414" y="159" type="curve" smooth="yes"/>
      <point x="504" y="159"/>
      <point x="538" y="203"/>
      <point x="543" y="250" type="curve"/>
      <point x="421" y="250" type="line"/>
      <point x="421" y="399" type="line"/>
      <point x="764" y="399" type="line"/>
      <point x="764" y="307" type="line" smooth="yes"/>
      <point x="764" y="129"/>
      <point x="647" y="-13"/>
    </contour>
    <contour>
      <point x="210" y="757" type="line"/>
      <point x="325" y="906" type="line"/>
      <point x="489" y="906" type="line"/>
      <point x="599" y="757" type="line"/>
      <point x="457" y="757" type="line"/>
      <point x="403" y="804" type="line"/>
      <point x="349" y="757" type="line"/>
    </contour>
  </outline>
</glyph>
<glyph name="gcircumflex" format="2">
  <advance width="644"/>
  <unicode hex="011D"/>
  <outline>
    <contour>
      <point x="115" y="580" type="line"/>
      <point x="240" y="746" type="line"/>
      <point x="378" y="746" type="line"/>
      <point x="498" y="580" type="line"/>
      <point x="361" y="580" type="line"/>
      <point x="305" y="633" type="line"/>
      <point x="249" y="580" type="line"/>
    </contour>
    <contour>
      <point x="299" y="-194" type="curve" smooth="yes"/>
      <point x="118" y="-194"/>
      <point x="33" y="-120"/>
      <point x="19" y="4" type="curve"/>
      <point x="214" y="4" type="line"/>
      <point x="221" y="-28"/>
      <point x="239" y="-58"/>
      <point x="300" y="-58" type="curve" smooth="yes"/>
      <point x="375" y="-58"/>
      <point x="400" y="-14"/>
      <point x="400" y="42" type="curve" smooth="yes"/>
      <point x="400" y="123" type="line"/>
      <point x="374" y="73"/>
      <point x="319" y="31"/>
      <point x="241" y="31" type="curve" smooth="yes"/>
      <point x="122" y="31"/>
      <point x="22" y="117"/>
      <point x="22" y="279" type="curve" smooth="yes"/>
      <point x="22" y="287" type="line" smooth="yes"/>
      <point x="22" y="444"/>
      <point x="121" y="538"/>
      <point x="240" y="538" type="curve" smooth="yes"/>
      <point x="322" y="538"/>
      <point x="371" y="504"/>
      <point x="400" y="451" type="curve"/>
      <point x="400" y="523" type="line"/>
      <point x="597" y="523" type="line"/>
      <point x="597" y="45" type="line" smooth="yes"/>
      <point x="597" y="-111"/>
      <point x="494" y="-194"/>
    </contour>
    <contour>
      <point x="314" y="171" type="curve" smooth="yes"/>
      <point x="372" y="171"/>
      <point x="406" y="213"/>
      <point x="406" y="279" type="curve" smooth="yes"/>
      <point x="406" y="286" type="line" smooth="yes"/>
      <point x="406" y="350"/>
      <point x="373" y="392"/>
      <point x="314" y="392" type="curve" smooth="yes"/>
      <point x="254" y="392"/>
      <point x="222" y="351"/>
      <point x="222" y="285" type="curve" smooth="yes"/>
      <point x="222" y="277" type="line" smooth="yes"/>
      <point x="222" y="213"/>
      <point x="254" y="171"/>
    </contour>
  </outline>
</glyph>
<glyph name="Gbreve" format="2">
  <advance width="791"/>
  <unicode hex="011E"/>
  <outline>
    <contour>
      <point x="407" y="-13" type="curve" smooth="yes"/>
      <point x="160" y="-13"/>
      <point x="27" y="138"/>
      <point x="27" y="353" type="curve" smooth="yes"/>
      <point x="27" y="361" type="line" smooth="yes"/>
      <point x="27" y="580"/>
      <point x="190" y="726"/>
      <point x="407" y="726" type="curve" smooth="yes"/>
      <point x="581" y="726"/>
      <point x="735" y="647"/>
      <point x="747" y="456" type="curve"/>
      <point x="523" y="456" type="line"/>
      <point x="515" y="515"/>
      <point x="478" y="548"/>
      <point x="408" y="548" type="curve" smooth="yes"/>
      <point x="318" y="548"/>
      <point x="263" y="478"/>
      <point x="263" y="357" type="curve" smooth="yes"/>
      <point x="263" y="349" type="line" smooth="yes"/>
      <point x="263" y="244"/>
      <point x="298" y="159"/>
      <point x="414" y="159" type="curve" smooth="yes"/>
      <point x="504" y="159"/>
      <point x="538" y="203"/>
      <point x="543" y="250" type="curve"/>
      <point x="421" y="250" type="line"/>
      <point x="421" y="399" type="line"/>
      <point x="764" y="399" type="line"/>
      <point x="764" y="307" type="line" smooth="yes"/>
      <point x="764" y="129"/>
      <point x="647" y="-13"/>
    </contour>
    <contour>
      <point x="405" y="749" type="curve" smooth="yes"/>
      <point x="301" y="749"/>
      <point x="240" y="807"/>
      <point x="234" y="906" type="curve"/>
      <point x="358" y="906" type="line"/>
      <point x="360" y="880"/>
      <point x="377" y="864"/>
      <point x="405" y="864" type="curve" smooth="yes"/>
      <point x="431" y="864"/>
      <point x="449" y="881"/>
      <point x="452" y="906" type="curve"/>
      <point x="576" y="906" type="line"/>
      <point x="569" y="807"/>
      <point x="504" y="749"/>
    </contour>
  </outline>
</glyph>
<glyph name="gbreve" format="2">
  <advance width="644"/>
  <unicode hex="011F"/>
  <outline>
    <contour>
      <point x="299" y="-194" type="curve" smooth="yes"/>
      <point x="118" y="-194"/>
      <point x="33" y="-120"/>
      <point x="19" y="4" type="curve"/>
      <point x="214" y="4" type="line"/>
      <point x="221" y="-28"/>
      <point x="239" y="-58"/>
      <point x="300" y="-58" type="curve" smooth="yes"/>
      <point x="375" y="-58"/>
      <point x="400" y="-14"/>
      <point x="400" y="42" type="curve" smooth="yes"/>
      <point x="400" y="123" type="line"/>
      <point x="374" y="73"/>
      <point x="319" y="31"/>
      <point x="241" y="31" type="curve" smooth="yes"/>
      <point x="122" y="31"/>
      <point x="22" y="117"/>
      <point x="22" y="279" type="curve" smooth="yes"/>
      <point x="22" y="287" type="line" smooth="yes"/>
      <point x="22" y="444"/>
      <point x="121" y="538"/>
      <point x="240" y="538" type="curve" smooth="yes"/>
      <point x="322" y="538"/>
      <point x="371" y="504"/>
      <point x="400" y="451" type="curve"/>
      <point x="400" y="523" type="line"/>
      <point x="597" y="523" type="line"/>
      <point x="597" y="45" type="line" smooth="yes"/>
      <point x="597" y="-111"/>
      <point x="494" y="-194"/>
    </contour>
    <contour>
      <point x="314" y="171" type="curve" smooth="yes"/>
      <point x="372" y="171"/>
      <point x="406" y="213"/>
      <point x="406" y="279" type="curve" smooth="yes"/>
      <point x="406" y="286" type="line" smooth="yes"/>
      <point x="406" y="350"/>
      <point x="373" y="392"/>
      <point x="314" y="392" type="curve" smooth="yes"/>
      <point x="254" y="392"/>
      <point x="222" y="351"/>
      <point x="222" y="285" type="curve" smooth="yes"/>
      <point x="222" y="277" type="line" smooth="yes"/>
      <point x="222" y="213"/>
      <point x="254" y="171"/>
    </contour>
    <contour>
      <point x="307" y="581" type="curve" smooth="yes"/>
      <point x="206" y="581"/>
      <point x="143" y="638"/>
      <point x="138" y="744" type="curve"/>
      <point x="257" y="744" type="line"/>
      <point x="259" y="716"/>
      <point x="276" y="699"/>
      <point x="307" y="699" type="curve" smooth="yes"/>
      <point x="336" y="699"/>
      <point x="355" y="716"/>
      <point x="358" y="744" type="curve"/>
      <point x="476" y="744" type="line"/>
      <point x="470" y="638"/>
      <point x="403" y="581"/>
    </contour>
  </outline>
</glyph>
<glyph name="Gdotaccent" format="2">
  <advance width="791"/>
  <unicode hex="0120"/>
  <outline>
    <contour>
      <point x="407" y="-13" type="curve" smooth="yes"/>
      <point x="160" y="-13"/>
      <point x="27" y="138"/>
      <point x="27" y="353" type="curve" smooth="yes"/>
      <point x="27" y="361" type="line" smooth="yes"/>
      <point x="27" y="580"/>
      <point x="190" y="726"/>
      <point x="407" y="726" type="curve" smooth="yes"/>
      <point x="581" y="726"/>
      <point x="735" y="647"/>
      <point x="747" y="456" type="curve"/>
      <point x="523" y="456" type="line"/>
      <point x="515" y="515"/>
      <point x="478" y="548"/>
      <point x="408" y="548" type="curve" smooth="yes"/>
      <point x="318" y="548"/>
      <point x="263" y="478"/>
      <point x="263" y="357" type="curve" smooth="yes"/>
      <point x="263" y="349" type="line" smooth="yes"/>
      <point x="263" y="244"/>
      <point x="298" y="159"/>
      <point x="414" y="159" type="curve" smooth="yes"/>
      <point x="504" y="159"/>
      <point x="538" y="203"/>
      <point x="543" y="250" type="curve"/>
      <point x="421" y="250" type="line"/>
      <point x="421" y="399" type="line"/>
      <point x="764" y="399" type="line"/>
      <point x="764" y="307" type="line" smooth="yes"/>
      <point x="764" y="129"/>
      <point x="647" y="-13"/>
    </contour>
    <contour>
      <point x="405" y="752" type="curve" smooth="yes"/>
      <point x="346" y="752"/>
      <point x="302" y="793"/>
      <point x="302" y="847" type="curve" smooth="yes"/>
      <point x="302" y="902"/>
      <point x="346" y="943"/>
      <point x="405" y="943" type="curve" smooth="yes"/>
      <point x="463" y="943"/>
      <point x="507" y="902"/>
      <point x="507" y="847" type="curve" smooth="yes"/>
      <point x="507" y="793"/>
      <point x="463" y="752"/>
    </contour>
  </outline>
</glyph>
<glyph name="gdotaccent" format="2">
  <advance width="644"/>
  <unicode hex="0121"/>
  <outline>
    <contour>
      <point x="299" y="-194" type="curve" smooth="yes"/>
      <point x="118" y="-194"/>
      <point x="33" y="-120"/>
      <point x="19" y="4" type="curve"/>
      <point x="214" y="4" type="line"/>
      <point x="221" y="-28"/>
      <point x="239" y="-58"/>
      <point x="300" y="-58" type="curve" smooth="yes"/>
      <point x="375" y="-58"/>
      <point x="400" y="-14"/>
      <point x="400" y="42" type="curve" smooth="yes"/>
      <point x="400" y="123" type="line"/>
      <point x="374" y="73"/>
      <point x="319" y="31"/>
      <point x="241" y="31" type="curve" smooth="yes"/>
      <point x="122" y="31"/>
      <point x="22" y="117"/>
      <point x="22" y="279" type="curve" smooth="yes"/>
      <point x="22" y="287" type="line" smooth="yes"/>
      <point x="22" y="444"/>
      <point x="121" y="538"/>
      <point x="240" y="538" type="curve" smooth="yes"/>
      <point x="322" y="538"/>
      <point x="371" y="504"/>
      <point x="400" y="451" type="curve"/>
      <point x="400" y="523" type="line"/>
      <point x="597" y="523" type="line"/>
      <point x="597" y="45" type="line" smooth="yes"/>
      <point x="597" y="-111"/>
      <point x="494" y="-194"/>
    </contour>
    <contour>
      <point x="314" y="171" type="curve" smooth="yes"/>
      <point x="372" y="171"/>
      <point x="406" y="213"/>
      <point x="406" y="279" type="curve" smooth="yes"/>
      <point x="406" y="286" type="line" smooth="yes"/>
      <point x="406" y="350"/>
      <point x="373" y="392"/>
      <point x="314" y="392" type="curve" smooth="yes"/>
      <point x="254" y="392"/>
      <point x="222" y="351"/>
      <point x="222" y="285" type="curve" smooth="yes"/>
      <point x="222" y="277" type="line" smooth="yes"/>
      <point x="222" y="213"/>
      <point x="254" y="171"/>
    </contour>
    <contour>
      <point x="308" y="570" type="curve" smooth="yes"/>
      <point x="248" y="570"/>
      <point x="205" y="610"/>
      <point x="205" y="665" type="curve" smooth="yes"/>
      <point x="205" y="720"/>
      <point x="248" y="761"/>
      <point x="308" y="761" type="curve" smooth="yes"/>
      <point x="366" y="761"/>
      <point x="411" y="720"/>
      <point x="411" y="665" type="curve" smooth="yes"/>
      <point x="411" y="610"/>
      <point x="366" y="570"/>
    </contour>
  </outline>
</glyph>
<glyph name="Gcommaaccent" format="2">
  <advance width="790"/>
  <unicode hex="0122"/>
  <outline>
    <contour>
      <point x="407" y="-13" type="curve" smooth="yes"/>
      <point x="160" y="-13"/>
      <point x="27" y="138"/>
      <point x="27" y="353" type="curve" smooth="yes"/>
      <point x="27" y="361" type="line" smooth="yes"/>
      <point x="27" y="580"/>
      <point x="190" y="726"/>
      <point x="407" y="726" type="curve" smooth="yes"/>
      <point x="581" y="726"/>
      <point x="735" y="647"/>
      <point x="747" y="456" type="curve"/>
      <point x="523" y="456" type="line"/>
      <point x="515" y="515"/>
      <point x="478" y="548"/>
      <point x="408" y="548" type="curve" smooth="yes"/>
      <point x="318" y="548"/>
      <point x="263" y="478"/>
      <point x="263" y="357" type="curve" smooth="yes"/>
      <point x="263" y="349" type="line" smooth="yes"/>
      <point x="263" y="244"/>
      <point x="298" y="159"/>
      <point x="414" y="159" type="curve" smooth="yes"/>
      <point x="504" y="159"/>
      <point x="538" y="203"/>
      <point x="543" y="250" type="curve"/>
      <point x="421" y="250" type="line"/>
      <point x="421" y="399" type="line"/>
      <point x="764" y="399" type="line"/>
      <point x="764" y="307" type="line" smooth="yes"/>
      <point x="764" y="129"/>
      <point x="647" y="-13"/>
    </contour>
    <contour>
      <point x="393" y="-233" type="line"/>
      <point x="283" y="-206" type="line"/>
      <point x="322" y="-31" type="line"/>
      <point x="494" y="-43" type="line"/>
    </contour>
  </outline>
</glyph>
<glyph name="hbar" format="2">
  <advance width="629"/>
  <unicode hex="0127"/>
  <outline>
    <contour>
      <point x="-6" y="581" type="line"/>
      <point x="-6" y="684" type="line"/>
      <point x="47" y="684" type="line"/>
      <point x="47" y="750" type="line"/>
      <point x="244" y="750" type="line"/>
      <point x="244" y="684" type="line"/>
      <point x="395" y="684" type="line"/>
      <point x="395" y="581" type="line"/>
      <point x="244" y="581" type="line"/>
      <point x="244" y="439" type="line"/>
      <point x="273" y="494"/>
      <point x="329" y="537"/>
      <point x="417" y="537" type="curve" smooth="yes"/>
      <point x="516" y="537"/>
      <point x="585" y="474"/>
      <point x="585" y="344" type="curve" smooth="yes"/>
      <point x="585" y="0" type="line"/>
      <point x="388" y="0" type="line"/>
      <point x="388" y="300" type="line" smooth="yes"/>
      <point x="388" y="353"/>
      <point x="369" y="380"/>
      <point x="322" y="380" type="curve" smooth="yes"/>
      <point x="273" y="380"/>
      <point x="244" y="351"/>
      <point x="244" y="289" type="curve" smooth="yes"/>
      <point x="244" y="0" type="line"/>
      <point x="47" y="0" type="line"/>
      <point x="47" y="581" type="line"/>
    </contour>
  </outline>
</glyph>
<glyph name="Itilde" format="2">
  <advance width="366"/>
  <unicode hex="0128"/>
  <outline>
    <contour>
      <point x="68" y="0" type="line"/>
      <point x="68" y="715" type="line"/>
      <point x="297" y="715" type="line"/>
      <point x="297" y="0" type="line"/>
    </contour>
    <contour>
      <point x="249" y="755" type="curve" smooth="yes"/>
      <point x="191" y="755"/>
      <point x="159" y="787"/>
      <point x="128" y="787" type="curve" smooth="yes"/>
      <point x="112" y="787"/>
      <point x="101" y="775"/>
      <point x="98" y="757" type="curve"/>
      <point x="-11" y="757" type="line"/>
      <point x="-4" y="868"/>
      <point x="51" y="917"/>
      <point x="115" y="917" type="curve" smooth="yes"/>
      <point x="170" y="917"/>
      <point x="205" y="885"/>
      <point x="239" y="885" type="curve" smooth="yes"/>
      <point x="256" y="885"/>
      <point x="265" y="897"/>
      <point x="268" y="915" type="curve"/>
      <point x="378" y="915" type="line"/>
      <point x="370" y="804"/>
      <point x="311" y="755"/>
    </contour>
  </outline>
</glyph>
<glyph name="itilde" format="2">
  <advance width="303"/>
  <unicode hex="0129"/>
  <outline>
    <contour>
      <point x="53" y="0" type="line"/>
      <point x="53" y="523" type="line"/>
      <point x="249" y="523" type="line"/>
      <point x="249" y="0" type="line"/>
    </contour>
    <contour>
      <point x="218" y="581" type="curve" smooth="yes"/>
      <point x="159" y="581"/>
      <point x="130" y="613"/>
      <point x="100" y="613" type="curve" smooth="yes"/>
      <point x="84" y="613"/>
      <point x="72" y="600"/>
      <point x="70" y="583" type="curve"/>
      <point x="-34" y="583" type="line"/>
      <point x="-28" y="693"/>
      <point x="20" y="745"/>
      <point x="84" y="745" type="curve" smooth="yes"/>
      <point x="139" y="745"/>
      <point x="172" y="713"/>
      <point x="205" y="713" type="curve" smooth="yes"/>
      <point x="223" y="713"/>
      <point x="232" y="725"/>
      <point x="235" y="744" type="curve"/>
      <point x="339" y="744" type="line"/>
      <point x="332" y="633"/>
      <point x="280" y="581"/>
    </contour>
  </outline>
</glyph>
<glyph name="Imacron" format="2">
  <advance width="366"/>
  <unicode hex="012A"/>
  <outline>
    <contour>
      <point x="68" y="0" type="line"/>
      <point x="68" y="715" type="line"/>
      <point x="297" y="715" type="line"/>
      <point x="297" y="0" type="line"/>
    </contour>
    <contour>
      <point x="16" y="769" type="line"/>
      <point x="16" y="884" type="line"/>
      <point x="349" y="884" type="line"/>
      <point x="349" y="769" type="line"/>
    </contour>
  </outline>
</glyph>
<glyph name="Ibreve" format="2">
  <advance width="366"/>
  <unicode hex="012C"/>
  <outline>
    <contour>
      <point x="68" y="0" type="line"/>
      <point x="68" y="715" type="line"/>
      <point x="297" y="715" type="line"/>
      <point x="297" y="0" type="line"/>
    </contour>
    <contour>
      <point x="183" y="749" type="curve" smooth="yes"/>
      <point x="79" y="749"/>
      <point x="18" y="807"/>
      <point x="12" y="906" type="curve"/>
      <point x="136" y="906" type="line"/>
      <point x="138" y="880"/>
      <point x="155" y="864"/>
      <point x="183" y="864" type="curve" smooth="yes"/>
      <point x="209" y="864"/>
      <point x="227" y="881"/>
      <point x="230" y="906" type="curve"/>
      <point x="354" y="906" type="line"/>
      <point x="347" y="807"/>
      <point x="282" y="749"/>
    </contour>
  </outline>
</glyph>
<glyph name="ibreve" format="2">
  <advance width="303"/>
  <unicode hex="012D"/>
  <outline>
    <contour>
      <point x="53" y="0" type="line"/>
      <point x="53" y="523" type="line"/>
      <point x="249" y="523" type="line"/>
      <point x="249" y="0" type="line"/>
    </contour>
    <contour>
      <point x="152" y="581" type="curve" smooth="yes"/>
      <point x="51" y="581"/>
      <point x="-12" y="638"/>
      <point x="-17" y="744" type="curve"/>
      <point x="102" y="744" type="line"/>
      <point x="104" y="716"/>
      <point x="121" y="699"/>
      <point x="152" y="699" type="curve" smooth="yes"/>
      <point x="181" y="699"/>
      <point x="200" y="716"/>
      <point x="203" y="744" type="curve"/>
      <point x="321" y="744" type="line"/>
      <point x="315" y="638"/>
      <point x="248" y="581"/>
    </contour>
  </outline>
</glyph>
<glyph name="Iogonek" format="2">
  <advance width="366"/>
  <unicode hex="012E"/>
  <outline>
    <contour>
      <point x="205" y="-182" type="curve" smooth="yes"/>
      <point x="126" y="-182"/>
      <point x="78" y="-150"/>
      <point x="78" y="-100" type="curve" smooth="yes"/>
      <point x="78" y="-51"/>
      <point x="123" y="-21"/>
      <point x="165" y="0" type="curve"/>
      <point x="68" y="0" type="line"/>
      <point x="68" y="715" type="line"/>
      <point x="297" y="715" type="line"/>
      <point x="297" y="13" type="line"/>
      <point x="266" y="-10"/>
      <point x="247" y="-33"/>
      <point x="247" y="-55" type="curve" smooth="yes"/>
      <point x="247" y="-70"/>
      <point x="257" y="-79"/>
      <point x="275" y="-79" type="curve" smooth="yes"/>
      <point x="286" y="-79"/>
      <point x="293" y="-78"/>
      <point x="300" y="-75" type="curve"/>
      <point x="300" y="-165" type="line"/>
      <point x="283" y="-174"/>
      <point x="250" y="-182"/>
    </contour>
  </outline>
</glyph>
<glyph name="Idotaccent" format="2">
  <advance width="366"/>
  <unicode hex="0130"/>
  <outline>
    <contour>
      <point x="68" y="0" type="line"/>
      <point x="68" y="715" type="line"/>
      <point x="297" y="715" type="line"/>
      <point x="297" y="0" type="line"/>
    </contour>
    <contour>
      <point x="184" y="752" type="curve" smooth="yes"/>
      <point x="125" y="752"/>
      <point x="81" y="793"/>
      <point x="81" y="847" type="curve" smooth="yes"/>
      <point x="81" y="902"/>
      <point x="125" y="943"/>
      <point x="184" y="943" type="curve" smooth="yes"/>
      <point x="242" y="943"/>
      <point x="286" y="902"/>
      <point x="286" y="847" type="curve" smooth="yes"/>
      <point x="286" y="793"/>
      <point x="242" y="752"/>
    </contour>
  </outline>
</glyph>
<glyph name="IJ" format="2">
  <advance width="830"/>
  <unicode hex="0132"/>
  <outline>
    <contour>
      <point x="68" y="0" type="line"/>
      <point x="68" y="715" type="line"/>
      <point x="297" y="715" type="line"/>
      <point x="297" y="0" type="line"/>
    </contour>
    <contour>
      <point x="509" y="-9" type="curve" smooth="yes"/>
      <point x="439" y="-9"/>
      <point x="403" y="1"/>
      <point x="373" y="16" type="curve"/>
      <point x="373" y="183" type="line"/>
      <point x="396" y="176"/>
      <point x="419" y="170"/>
      <point x="458" y="170" type="curve" smooth="yes"/>
      <point x="511" y="170"/>
      <point x="548" y="193"/>
      <point x="548" y="263" type="curve" smooth="yes"/>
      <point x="548" y="715" type="line"/>
      <point x="775" y="715" type="line"/>
      <point x="775" y="262" type="line" smooth="yes"/>
      <point x="775" y="85"/>
      <point x="688" y="-9"/>
    </contour>
  </outline>
</glyph>
<glyph name="ij" format="2">
  <advance width="605"/>
  <unicode hex="0133"/>
  <outline>
    <contour>
      <point x="53" y="0" type="line"/>
      <point x="53" y="523" type="line"/>
      <point x="249" y="523" type="line"/>
      <point x="249" y="0" type="line"/>
    </contour>
    <contour>
      <point x="151" y="562" type="curve" smooth="yes"/>
      <point x="90" y="562"/>
      <point x="44" y="604"/>
      <point x="44" y="661" type="curve" smooth="yes"/>
      <point x="44" y="719"/>
      <point x="90" y="761"/>
      <point x="151" y="761" type="curve" smooth="yes"/>
      <point x="211" y="761"/>
      <point x="257" y="719"/>
      <point x="257" y="661" type="curve" smooth="yes"/>
      <point x="257" y="604"/>
      <point x="211" y="562"/>
    </contour>
    <contour>
      <point x="293" y="-183" type="curve"/>
      <point x="293" y="-42" type="line"/>
      <point x="335" y="-40"/>
      <point x="354" y="-24"/>
      <point x="354" y="16" type="curve" smooth="yes"/>
      <point x="354" y="523" type="line"/>
      <point x="551" y="523" type="line"/>
      <point x="551" y="11" type="line" smooth="yes"/>
      <point x="551" y="-105"/>
      <point x="496" y="-183"/>
    </contour>
    <contour>
      <point x="453" y="562" type="curve" smooth="yes"/>
      <point x="392" y="562"/>
      <point x="346" y="604"/>
      <point x="346" y="661" type="curve" smooth="yes"/>
      <point x="346" y="719"/>
      <point x="392" y="761"/>
      <point x="453" y="761" type="curve" smooth="yes"/>
      <point x="513" y="761"/>
      <point x="559" y="719"/>
      <point x="559" y="661" type="curve" smooth="yes"/>
      <point x="559" y="604"/>
      <point x="513" y="562"/>
    </contour>
  </outline>
</glyph>
<glyph name="Kcommaaccent" format="2">
  <advance width="745"/>
  <unicode hex="0136"/>
  <outline>
    <contour>
      <point x="65" y="0" type="line"/>
      <point x="65" y="715" type="line"/>
      <point x="292" y="715" type="line"/>
      <point x="292" y="444" type="line"/>
      <point x="490" y="715" type="line"/>
      <point x="725" y="715" type="line"/>
      <point x="474" y="385" type="line"/>
      <point x="739" y="0" type="line"/>
      <point x="478" y="0" type="line"/>
      <point x="292" y="286" type="line"/>
      <point x="292" y="0" type="line"/>
    </contour>
    <contour>
      <point x="370" y="-233" type="line"/>
      <point x="260" y="-206" type="line"/>
      <point x="299" y="-31" type="line"/>
      <point x="471" y="-43" type="line"/>
    </contour>
  </outline>
</glyph>
<glyph name="kcommaaccent" format="2">
  <advance width="589"/>
  <unicode hex="0137"/>
  <outline>
    <contour>
      <point x="47" y="0" type="line"/>
      <point x="47" y="750" type="line"/>
      <point x="244" y="750" type="line"/>
      <point x="244" y="325" type="line"/>
      <point x="371" y="523" type="line"/>
      <point x="573" y="523" type="line"/>
      <point x="412" y="289" type="line"/>
      <point x="586" y="0" type="line"/>
      <point x="368" y="0" type="line"/>
      <point x="244" y="218" type="line"/>
      <point x="244" y="0" type="line"/>
    </contour>
    <contour>
      <point x="295" y="-233" type="line"/>
      <point x="185" y="-206" type="line"/>
      <point x="224" y="-31" type="line"/>
      <point x="396" y="-43" type="line"/>
    </contour>
  </outline>
</glyph>
<glyph name="Lacute" format="2">
  <advance width="582"/>
  <unicode hex="0139"/>
  <outline>
    <contour>
      <point x="99" y="757" type="line"/>
      <point x="150" y="906" type="line"/>
      <point x="351" y="906" type="line"/>
      <point x="248" y="757" type="line"/>
    </contour>
    <contour>
      <point x="65" y="0" type="line"/>
      <point x="65" y="715" type="line"/>
      <point x="292" y="715" type="line"/>
      <point x="292" y="175" type="line"/>
      <point x="552" y="175" type="line"/>
      <point x="552" y="0" type="line"/>
    </contour>
  </outline>
</glyph>
<glyph name="Lcaron" format="2">
  <advance width="582"/>
  <unicode hex="013D"/>
  <outline>
    <contour>
      <point x="353" y="535" type="line"/>
      <point x="368" y="715" type="line"/>
      <point x="526" y="715" type="line"/>
      <point x="465" y="535" type="line"/>
    </contour>
    <contour>
      <point x="65" y="0" type="line"/>
      <point x="65" y="715" type="line"/>
      <point x="292" y="715" type="line"/>
      <point x="292" y="175" type="line"/>
      <point x="552" y="175" type="line"/>
      <point x="552" y="0" type="line"/>
    </contour>
  </outline>
</glyph>
